<svg width="38" height="33" viewBox="0 0 38 33" fill="none" xmlns="http://www.w3.org/2000/svg">
<path d="M16.1498 3.10018L15.1523 2.4951L15.1489 2.50066L16.1498 3.10018ZM2.03312 26.6668L1.03228 26.0673C1.02908 26.0727 1.02592 26.078 1.0228 26.0834L2.03312 26.6668ZM4.88312 31.6668L4.8703 32.8335H4.88312V31.6668ZM33.1165 31.6668V32.8336L33.1293 32.8334L33.1165 31.6668ZM35.9665 26.6668L36.9768 26.0834C36.9737 26.078 36.9705 26.0727 36.9673 26.0673L35.9665 26.6668ZM21.8498 3.10018L22.8507 2.50065L22.8473 2.49511L21.8498 3.10018ZM18.9998 1.49561V0.328939V1.49561ZM20.1665 11.6668C20.1665 11.0225 19.6441 10.5002 18.9998 10.5002C18.3555 10.5002 17.8331 11.0225 17.8331 11.6668H20.1665ZM17.8331 18.3335C17.8331 18.9778 18.3555 19.5002 18.9998 19.5002C19.6441 19.5002 20.1665 18.9778 20.1665 18.3335H17.8331ZM15.1489 2.50066L1.03228 26.0673L3.03397 27.2664L17.1506 3.6997L15.1489 2.50066ZM1.0228 26.0834C0.62988 26.7639 0.421977 27.5354 0.419777 28.3211L2.7531 28.3276C2.75416 27.9493 2.85426 27.5779 3.04345 27.2502L1.0228 26.0834ZM0.419777 28.3211C0.417577 29.1069 0.621156 29.8795 1.01026 30.5621L3.03741 29.4067C2.85006 29.078 2.75204 28.706 2.7531 28.3276L0.419777 28.3211ZM1.01026 30.5621C1.39937 31.2448 1.96043 31.8136 2.63764 32.2121L3.82096 30.2011C3.4949 30.0092 3.22476 29.7353 3.03741 29.4067L1.01026 30.5621ZM2.63764 32.2121C3.31485 32.6106 4.0846 32.8248 4.8703 32.8334L4.89595 30.5002C4.51765 30.4961 4.14703 30.393 3.82096 30.2011L2.63764 32.2121ZM4.88312 32.8335H33.1165V30.5002H4.88312V32.8335ZM33.1293 32.8334C33.915 32.8248 34.6847 32.6106 35.3619 32.2121L34.1786 30.2011C33.8526 30.393 33.4819 30.4961 33.1036 30.5002L33.1293 32.8334ZM35.3619 32.2121C36.0391 31.8136 36.6002 31.2448 36.9893 30.5621L34.9622 29.4067C34.7748 29.7353 34.5047 30.0092 34.1786 30.2011L35.3619 32.2121ZM36.9893 30.5621C37.3784 29.8795 37.582 29.1069 37.5798 28.3211L35.2465 28.3276C35.2475 28.706 35.1495 29.078 34.9622 29.4067L36.9893 30.5621ZM37.5798 28.3211C37.5776 27.5354 37.3697 26.7639 36.9768 26.0834L34.9561 27.2502C35.1453 27.5779 35.2454 27.9493 35.2465 28.3276L37.5798 28.3211ZM36.9673 26.0673L22.8506 2.50066L20.8489 3.6997L34.9656 27.2664L36.9673 26.0673ZM22.8473 2.49511C22.4462 1.83385 21.8814 1.28713 21.2075 0.907701L20.0628 2.94094C20.3872 3.12362 20.6592 3.38686 20.8523 3.70524L22.8473 2.49511ZM21.2075 0.907701C20.5335 0.528271 19.7732 0.328939 18.9998 0.328939V2.66227C19.3722 2.66227 19.7383 2.75825 20.0628 2.94094L21.2075 0.907701ZM18.9998 0.328939C18.2264 0.328939 17.466 0.528271 16.7921 0.907701L17.9368 2.94094C18.2613 2.75825 18.6274 2.66227 18.9998 2.66227V0.328939ZM16.7921 0.907701C16.1182 1.28713 15.5534 1.83385 15.1523 2.49511L17.1473 3.70524C17.3404 3.38686 17.6123 3.12362 17.9368 2.94094L16.7921 0.907701ZM17.8331 11.6668V18.3335H20.1665V11.6668H17.8331ZM19.4998 25.0002C19.4998 25.2764 19.2759 25.5002 18.9998 25.5002V27.8336C20.5646 27.8336 21.8331 26.5651 21.8331 25.0002H19.4998ZM18.9998 25.5002C18.7236 25.5002 18.4998 25.2764 18.4998 25.0002H16.1664C16.1664 26.5651 17.4349 27.8336 18.9998 27.8336V25.5002ZM18.4998 25.0002C18.4998 24.7241 18.7236 24.5002 18.9998 24.5002V22.1669C17.4349 22.1669 16.1664 23.4354 16.1664 25.0002H18.4998ZM18.9998 24.5002C19.2759 24.5002 19.4998 24.7241 19.4998 25.0002H21.8331C21.8331 23.4354 20.5646 22.1669 18.9998 22.1669V24.5002Z" fill="white"/>
</svg>
