<svg width="18" height="18" viewBox="0 0 18 18" fill="none" xmlns="http://www.w3.org/2000/svg">
<path d="M10.0365 13.0745H10.1365V12.9745V9.74094C10.9695 9.32396 11.5409 8.4617 11.5409 7.46749C11.5409 6.06319 10.4032 4.92549 8.99891 4.92549C7.59573 4.92549 6.45697 6.06205 6.45585 7.46741V7.46749C6.45585 8.46171 7.02725 9.32397 7.86027 9.74094V12.9745V13.0745H7.96027H10.0365ZM3.27361 3.27146L3.26259 3.28249L3.26147 3.28465C1.80324 4.7485 0.9 6.76933 0.9 8.99997C0.9 11.2202 1.79464 13.2335 3.24323 14.6969V14.6982L3.27255 14.7275C4.73834 16.1922 6.76373 17.1 9 17.1C11.2374 17.1 13.2617 16.1922 14.7275 14.7275L14.7275 14.7275C16.1922 13.2617 17.1 11.2362 17.1 8.99997C17.1 6.76374 16.1933 4.73729 14.7275 3.27146L14.6982 3.24217H14.6969C13.2335 1.79465 11.2202 0.9 8.99891 0.9C6.76375 0.9 4.73835 1.80672 3.27361 3.27146ZM3.84701 14.1508L3.77748 14.0813C2.50135 12.7681 1.71431 10.976 1.71431 8.99997C1.71431 6.98711 2.53005 5.16501 3.84704 3.84695L3.7763 3.77627L3.84698 3.84701C5.16505 2.53001 6.98714 1.71428 8.99891 1.71428C11.0117 1.71428 12.8327 2.52997 14.1508 3.84692C15.4689 5.16717 16.2835 6.9882 16.2835 8.99997C16.2835 11.0117 15.4678 12.8339 14.1498 14.1508L14.1497 14.1508C12.8317 15.4689 11.0096 16.2846 8.99785 16.2846C6.98718 16.2846 5.16507 15.4689 3.84701 14.1508Z" fill="#F44D03" stroke="#F44D03" stroke-width="0.2"/>
</svg>
