<svg class="svg-icon" style="width: 1em; height: 1em;vertical-align: middle;fill: currentColor;overflow: hidden;" viewBox="0 0 1024 1024" version="1.1" xmlns="http://www.w3.org/2000/svg"><path d="M599.893333 955.733333H424.123733c-27.016533-0.682667-50.176-10.683733-69.239466-29.7472-16.913067-16.896-26.88-36.625067-29.610667-58.589866A99.1744 99.1744 0 0 1 324.266667 853.333333c0-4.3008 0.290133-8.891733 0.853333-13.806933V443.733333H170.666667a17.1008 17.1008 0 0 1-12.066134-29.1328l341.333334-341.333333a17.0496 17.0496 0 0 1 24.132266 0l340.3264 340.3264a17.066667 17.066667 0 0 1-9.8816 30.993067h-153.941333V855.04c-0.648533 27.460267-10.5984 51.114667-29.525333 70.741333-19.985067 19.3536-43.639467 29.2864-70.741334 29.969067L599.893333 955.733333zM211.8656 409.6h130.321067a17.066667 17.066667 0 0 1 17.066666 17.066667v413.866666a16.554667 16.554667 0 0 1-0.119466 2.065067A87.296 87.296 0 0 0 358.4 853.333333c0 3.157333 0.238933 6.331733 0.699733 9.5232 1.8432 14.762667 8.3456 27.409067 19.9168 38.997334 12.8512 12.834133 27.733333 19.3024 45.533867 19.746133h175.121067c18.414933-0.494933 33.860267-7.031467 47.223466-19.950933 12.578133-13.038933 19.114667-28.552533 19.5584-47.035734V427.52a17.066667 17.066667 0 0 1 17.066667-17.066667h129.467733L512 109.4656 211.8656 409.6z"  /></svg>