<svg width="22" height="22" viewBox="0 0 22 22" fill="none" xmlns="http://www.w3.org/2000/svg">
<path fill-rule="evenodd" clip-rule="evenodd" d="M10.8802 5.2104C11.4835 5.2104 12.0297 5.4536 12.4264 5.84601C12.8231 6.23842 13.0689 6.78002 13.0689 7.37427V8.69818C13.676 8.76839 14.221 9.04295 14.6316 9.44915L14.6329 9.45041C15.1119 9.92431 15.4098 10.5787 15.4098 11.2984V13.2667C15.4098 13.9876 15.1119 14.6433 14.6329 15.1172C14.1538 15.5911 13.4923 15.8857 12.7623 15.8857H8.99823C8.2695 15.8857 7.60793 15.5911 7.1276 15.1172C6.64854 14.6433 6.3507 13.9876 6.3507 13.2667V11.2984C6.3507 10.5787 6.64854 9.92431 7.1276 9.45041L7.12888 9.44915C7.5395 9.04295 8.08446 8.76839 8.69025 8.69818V7.37427C8.69025 6.77876 8.9361 6.23717 9.33279 5.84601C9.72947 5.45486 10.2795 5.2104 10.8802 5.2104ZM10.8802 11.1153C10.2288 11.1153 9.69905 11.6381 9.69905 12.2838C9.69905 12.9295 10.2275 13.4523 10.8802 13.4523C11.5342 13.4523 12.0627 12.9295 12.0627 12.2838C12.0627 11.6381 11.5342 11.1153 10.8802 11.1153ZM0.887126 6.17574V2.72932C0.887126 2.48735 0.688182 2.29051 0.443582 2.29051C0.198983 2.29051 0 2.4861 0 2.72932V7.5122V7.52349C0 7.76545 0.198983 7.96229 0.443582 7.96229H5.22657C5.47117 7.96229 5.67015 7.76545 5.67015 7.52349C5.67015 7.28152 5.47117 7.08468 5.22657 7.08468H1.44098C2.19505 5.30944 3.44466 3.79245 5.01872 2.70173C6.67769 1.55334 8.69913 0.878832 10.8815 0.878832C13.7064 0.878832 16.2652 2.01221 18.1168 3.84387C19.9684 5.67553 21.1129 8.20548 21.1129 11.0012C21.1129 13.797 19.9684 16.3282 18.1168 18.1587C16.2652 19.9891 13.7077 21.1224 10.8815 21.1224C8.49508 21.1224 6.29875 20.315 4.55994 18.9623C2.7831 17.5782 1.47899 15.6261 0.931488 13.3833C0.874457 13.1488 0.634939 13.0047 0.397944 13.0611C0.160948 13.1175 0.0152169 13.3544 0.0722479 13.5889C0.666638 16.0273 2.08225 18.1499 4.01243 19.6506C5.90332 21.1224 8.28977 22 10.8815 22C13.951 22 16.7316 20.7689 18.7442 18.778C20.7555 16.7883 22 14.0365 22 11C22 7.96351 20.7555 5.21166 18.7442 3.22203C16.7316 1.2324 13.951 0 10.8815 0C8.51409 0 6.31776 0.733427 4.51178 1.98462C2.97321 3.05152 1.71978 4.49327 0.887126 6.17574ZM12.7863 9.55823H12.7623H12.6254H9.13635H8.99947H8.97669C8.50143 9.5645 8.06925 9.7601 7.75621 10.0698C7.4381 10.3844 7.24038 10.8207 7.24038 11.2996V13.268C7.24038 13.7456 7.43811 14.1819 7.75749 14.4966C8.07559 14.8125 8.51661 15.0081 8.99947 15.0081H12.7635C13.2476 15.0081 13.6874 14.8125 14.0068 14.4966C14.3249 14.1819 14.5226 13.7456 14.5226 13.268V11.2996C14.5226 10.8207 14.3249 10.3857 14.0068 10.0698C13.6938 9.7601 13.2616 9.5645 12.7863 9.55823ZM10.8802 6.08797C10.5228 6.08797 10.1971 6.2334 9.96267 6.46659C9.72694 6.69978 9.57993 7.02073 9.57993 7.37427V8.68066H12.1805V7.37427C12.1805 7.02073 12.0348 6.69853 11.7978 6.46659C11.5633 6.2334 11.2376 6.08797 10.8802 6.08797Z" fill="#333130"/>
</svg>
