<svg width="24" height="22" viewBox="0 0 24 22" fill="none" xmlns="http://www.w3.org/2000/svg">
<path fill-rule="evenodd" clip-rule="evenodd" d="M2.65199 8.30751C2.40907 8.30751 2.21146 8.11067 2.21146 7.86869C2.21146 7.62672 2.40781 7.42988 2.65199 7.42988H3.49402C3.45374 7.2042 3.43235 6.97225 3.43235 6.73403V6.70018H2.65199C2.40907 6.70018 2.21146 6.50333 2.21146 6.26135C2.21146 6.01937 2.40781 5.82253 2.65199 5.82253H3.54059C3.71177 5.11791 4.07553 4.48852 4.5727 3.99328C5.27754 3.29116 6.25048 2.85735 7.32537 2.85735C7.60856 2.85735 7.88547 2.8887 8.15357 2.94637C8.42544 3.0053 8.691 3.09432 8.94399 3.20967C9.16425 3.30997 9.26117 3.5695 9.16047 3.78891C9.06104 4.00832 8.80051 4.10486 8.57899 4.00456C8.39019 3.91805 8.18503 3.84909 7.96854 3.8027C7.76338 3.75757 7.54815 3.73374 7.32537 3.73374C6.4934 3.73374 5.73946 4.06976 5.19573 4.61264C4.85967 4.9474 4.6029 5.36114 4.45564 5.82253H6.74261C6.98553 5.82253 7.18313 6.01937 7.18313 6.26135C7.18313 6.50333 6.98679 6.70018 6.74261 6.70018H4.31341V6.73403C4.31341 6.9735 4.34111 7.2067 4.39397 7.42988H6.74135C6.98427 7.42988 7.18188 7.62672 7.18188 7.86869C7.18188 8.11067 6.98553 8.30751 6.74135 8.30751H4.75771C4.88231 8.50686 5.02833 8.69117 5.19321 8.85542L5.19446 8.85667C5.73945 9.3983 6.49087 9.73431 7.3241 9.73431C7.54688 9.73431 7.76212 9.71049 7.96854 9.66661C8.1586 9.62523 8.34235 9.5663 8.51478 9.49358C9.1932 9.08611 9.94966 8.79273 10.7539 8.64353L10.7514 8.63475V8.6335L10.7489 8.62472L10.7476 8.62346L10.7451 8.61469V8.61344L10.7426 8.60466L10.7414 8.6034L10.7388 8.59463V8.59213L10.7363 8.58335V8.58209L10.7325 8.57331V8.57206L10.73 8.56329V8.56203L10.7275 8.55325V8.552L10.7237 8.54323V8.54198L10.7212 8.53319V8.52944L10.7187 8.52065L10.7174 8.5194L10.7149 8.51063V8.50938L10.7124 8.50059V8.49934L10.7099 8.49057L10.7086 8.48932L10.7061 8.48054V8.47928L10.7036 8.46926L10.7011 8.45922L10.6985 8.44919H10.6973L10.6948 8.43917L10.6923 8.42913L10.6898 8.41911L10.6872 8.40907V8.40406L10.6847 8.39528H10.6835L10.6822 8.38525H10.6809L10.6784 8.37522L10.6759 8.36519L10.6734 8.35516L10.6709 8.34513L10.6684 8.3351L10.6658 8.32507L10.6633 8.31504H10.6621L10.6608 8.30501L10.657 8.29497L10.6545 8.2862V8.28495L10.652 8.27491L10.6495 8.26489L10.6482 8.25486H10.6469L10.6457 8.24483H10.6444L10.6419 8.2348L10.6407 8.22476V8.22351L10.6381 8.21348L10.6356 8.20345L10.6331 8.19343L10.6306 8.18339L10.6281 8.17337L10.6255 8.16333L10.623 8.1533L10.6205 8.14327L10.6193 8.13324L10.6168 8.12321L10.6142 8.11318L10.6117 8.10189L10.6092 8.09187L10.6079 8.08058L10.6054 8.07056L10.6029 8.06052L10.6004 8.05049L10.5991 8.04046L10.5966 8.03043L10.5953 8.01915L10.5928 8.00912L10.5903 7.99909L10.5891 7.9878C10.5123 7.58284 10.4732 7.16909 10.4732 6.75409V6.72274V6.69015V6.66632V6.65755L10.4745 6.6262V6.59486L10.4758 6.58107V6.56351L10.477 6.53217L10.4783 6.50083V6.49581L10.4795 6.46948L10.4808 6.43814L10.4821 6.41056V6.38548L10.4833 6.35413L10.4858 6.32279L10.4884 6.29145L10.4896 6.2601L10.4947 6.19741L10.4984 6.16607C10.5765 5.24078 10.842 4.36815 11.2587 3.58705L11.2712 3.56323L11.2977 3.51684L11.3103 3.49302L11.3228 3.4692L11.3317 3.45415L11.3367 3.44663L11.3493 3.42281L11.3631 3.40024L11.3732 3.38269L11.377 3.37767L11.3896 3.35511L11.4034 3.33254L11.4147 3.31248L11.4172 3.30997L11.4311 3.2874L11.4449 3.26483L11.4588 3.24227L11.4726 3.2197C10.9553 2.53388 10.2882 1.96341 9.51795 1.55719C8.69856 1.12213 7.7596 0.876391 6.76401 0.876391C5.13909 0.876391 3.66771 1.53086 2.60415 2.59156C1.54059 3.651 0.882321 5.11666 0.882321 6.73403C0.882321 8.24107 1.45249 9.6152 2.39018 10.6521C3.26998 11.6238 4.47074 12.302 5.82505 12.5177C6.14475 11.8068 6.58527 11.1599 7.11768 10.6057C6.12712 10.553 5.23348 10.1318 4.57395 9.47478V9.47353H4.5727H4.57143C4.23537 9.13877 3.96224 8.74383 3.76589 8.30751H2.65199ZM13.8464 12.3158C14.039 12.4625 14.0768 12.7371 13.9283 12.9289C13.7823 13.1208 13.5054 13.1584 13.3128 13.0117C13.2373 12.9553 13.158 12.9051 13.0736 12.865V12.8662C12.9868 12.8249 12.8886 12.7898 12.7816 12.7622C12.6092 12.7183 12.4217 12.6982 12.2303 12.7033L12.1813 12.7058H12.1687C12.0919 12.7095 12.0164 12.7183 11.9396 12.7308C11.7004 12.7697 11.4752 12.8487 11.3027 12.9665C11.158 13.0668 11.0497 13.1972 11.0094 13.359C10.9843 13.4543 10.9805 13.5633 10.9994 13.685C11.0359 13.9044 11.1831 14.0937 11.3707 14.2567C11.5947 14.451 11.883 14.6128 12.1385 14.7469C12.3021 14.8322 12.4821 14.9049 12.657 14.9738L12.6772 14.9826C13.4248 15.2785 14.1057 15.5619 14.146 16.6865V16.7128L14.1473 16.7768V16.7843V16.7893C14.1385 17.3811 13.8892 17.855 13.5003 18.1873C13.2536 18.3967 12.9503 18.5471 12.6205 18.6311V19.4799C12.6205 19.7219 12.4242 19.9187 12.18 19.9187C11.9358 19.9187 11.7382 19.7231 11.7382 19.4799V18.695C11.5129 18.675 11.2826 18.6286 11.0459 18.5596H11.0434C10.7363 18.4694 10.4179 18.334 10.0881 18.1634C9.87413 18.0506 9.79106 17.7848 9.90434 17.5717C10.0176 17.3573 10.2845 17.2758 10.4984 17.3886C10.7766 17.534 11.0434 17.6456 11.2964 17.7221C11.5343 17.7923 11.7609 17.8312 11.971 17.8337L12.0541 17.8324H12.0629L12.1158 17.8299C12.1347 17.8274 12.1523 17.8262 12.1712 17.8249C12.4644 17.7973 12.7313 17.6933 12.9289 17.5253C13.1328 17.351 13.2649 17.099 13.27 16.7843L13.2687 16.7279V16.7166C13.2473 16.1587 12.8219 15.9806 12.3524 15.7951L12.3298 15.7863C12.1322 15.7073 11.9295 15.6271 11.7281 15.5217C11.4298 15.365 11.0875 15.1719 10.7955 14.9187C10.4657 14.6341 10.2064 14.2805 10.1322 13.8266C10.0919 13.5771 10.1032 13.3489 10.1548 13.1433C10.253 12.7609 10.4909 12.4638 10.8043 12.2481C11.0736 12.0638 11.4009 11.9397 11.7395 11.8783V11.052C11.7395 10.8101 11.9371 10.6132 12.1813 10.6132C12.4254 10.6132 12.6218 10.8101 12.6218 11.052V11.8457C12.7527 11.8607 12.8785 11.882 12.9994 11.9134C13.158 11.9535 13.309 12.0087 13.45 12.0751L13.4525 12.0764C13.5947 12.1453 13.7269 12.2256 13.8464 12.3158ZM17.6803 7.15404V7.80224H19.4298C19.6728 7.80224 19.8704 7.99908 19.8704 8.24106C19.8704 8.48304 19.674 8.67989 19.4298 8.67989H17.6803V9.81205C17.6803 10.054 17.4827 10.2509 17.2385 10.2509C16.9943 10.2509 16.798 10.054 16.798 9.81205V8.67989H15.0485C14.8055 8.67989 14.6067 8.48304 14.6067 8.24106C14.6067 7.99908 14.8043 7.80224 15.0485 7.80224H16.798V7.15404H15.0485C14.8055 7.15404 14.6067 6.9572 14.6067 6.71522C14.6067 6.47325 14.8043 6.2764 15.0485 6.2764H16.4758L14.7111 3.92181C14.5664 3.72748 14.6054 3.4529 14.8005 3.30871C14.9943 3.16327 15.2712 3.2034 15.416 3.39773L17.2373 5.82755L19.0598 3.39773C19.2045 3.2034 19.4814 3.16327 19.6753 3.30871C19.8691 3.4529 19.9106 3.72748 19.7646 3.92181L18 6.2764H19.4273C19.6702 6.2764 19.8678 6.47325 19.8678 6.71522C19.8678 6.9572 19.6715 7.15404 19.4273 7.15404H17.6803ZM12 2.47872C12.1435 2.30319 12.2958 2.13518 12.4569 1.9747V1.97219C13.6803 0.753521 15.3707 0 17.2385 0C19.1063 0 20.7967 0.754775 22.0201 1.97219C23.2436 3.19086 24 4.87593 24 6.73528C24 8.46675 23.3442 10.0465 22.2643 11.2401C21.2926 12.3146 19.9748 13.0781 18.4858 13.3552C18.6658 13.9608 18.7628 14.6015 18.7628 15.2647C18.7628 17.1241 18.005 18.8091 16.7816 20.0266H16.7804C15.5557 21.2452 13.8666 22 12 22C10.1334 22 8.4443 21.244 7.22089 20.0266H7.21837C5.99496 18.8079 5.23852 17.1241 5.23852 15.2647C5.23852 14.6015 5.33419 13.9595 5.51417 13.3552C4.02519 13.0781 2.70864 12.3158 1.7357 11.2401C0.658292 10.0465 0 8.46675 0 6.73528C0 4.87593 0.757706 3.19086 1.97986 1.97219H1.98239C3.2058 0.753521 4.8949 0 6.76274 0C7.9056 0 8.98553 0.283353 9.92952 0.78361C10.7275 1.20488 11.4311 1.78412 12 2.47872ZM10.477 9.60392L10.4833 9.60267L10.5261 9.59138L10.5702 9.5801L10.5752 9.57884L10.6142 9.56882L10.6255 9.56631L10.6595 9.55878L10.6746 9.55502L10.7036 9.54875L10.7237 9.54499L10.7502 9.53998L10.7753 9.53496L10.7955 9.5312L10.9767 9.49735L11.022 9.48983L11.0283 9.48857C11.2838 9.44594 11.5456 9.42087 11.8125 9.4121H11.8225H11.8326H11.8427H11.8515H11.8527H11.8628H11.8729H11.883H11.893H11.9031H11.9132H11.9245H11.9346H11.9446H11.9547H11.9648H11.9761H11.9862H11.9962H12.0063H12.0642H12.0831H12.1221H12.1586H12.18L12.2341 9.41335H12.2379L12.2945 9.41585H12.3109L12.3524 9.41836L12.3852 9.41961L12.4091 9.42087L12.4607 9.42463H12.4657L12.5223 9.4284L12.5349 9.42965L12.579 9.43341L12.6092 9.43591L12.6356 9.43842L12.6835 9.44343L12.6923 9.44469L12.7476 9.45096L12.7577 9.45221L12.8043 9.45848L12.8307 9.46225L12.8584 9.46601L12.9025 9.47227L12.9138 9.47353L12.9692 9.48231L12.9767 9.48356L13.0245 9.49108L13.0497 9.49484L13.0799 9.50111L13.1202 9.50863L13.1341 9.51114L13.1894 9.52117L13.1932 9.52242L13.2435 9.53246L13.2649 9.53747L13.2977 9.54499L13.3354 9.55377L13.3518 9.55753L13.4059 9.57007H13.4072C13.5481 9.60518 13.6891 9.64404 13.8263 9.68918L13.8301 9.69043L13.9622 9.73556L13.9849 9.74309L14.0868 9.7807L14.0982 9.78446C14.2102 9.82709 14.321 9.87223 14.4292 9.92113L14.4405 9.92488C14.545 9.97253 14.6482 10.0239 14.7489 10.0766L14.7791 10.0916L14.8118 10.1092L14.8735 10.143C14.9364 10.1769 14.9981 10.2133 15.0573 10.2496H15.0585L15.1051 10.2772L15.1177 10.2847L15.1504 10.3048L15.1768 10.3223L15.1945 10.3336L15.236 10.3599L15.2398 10.3625L15.2952 10.3988L15.3279 10.4214L15.3543 10.4389L15.3745 10.4527L15.4122 10.4791L15.4198 10.4853L15.4651 10.5167L15.4689 10.5204L15.5091 10.5493L15.5267 10.5618L15.5532 10.5819L15.5821 10.6044L15.5972 10.6157L15.6375 10.6471L15.64 10.6483L15.6828 10.6822L15.6929 10.6897L15.7256 10.716L15.747 10.7336L15.7684 10.7511L15.8011 10.7787L15.8112 10.7862L15.8527 10.8226L15.8552 10.8238L15.8943 10.8577L15.9081 10.8702L15.9345 10.8941L15.961 10.9179L15.9761 10.9317L16.0126 10.9643L16.0164 10.968L16.0566 11.0056L16.0642 11.0119L16.0957 11.0433L16.1145 11.0608L16.1359 11.0821L16.1649 11.1097L16.175 11.1197L16.214 11.1586H16.2152L16.2517 11.1975L16.2631 11.21L16.2895 11.2376L16.3121 11.2614L16.3285 11.279L16.3587 11.3128L16.365 11.3191L16.4015 11.3605L16.4065 11.3655L16.438 11.4006L16.4531 11.4181L16.4745 11.4432L16.4997 11.472L16.511 11.4846L16.545 11.526L16.5463 11.5272L16.5891 11.5799L16.6155 11.6112L16.6344 11.635L16.6507 11.6551L16.6771 11.6902L16.6834 11.699L16.7162 11.7429L16.72 11.7466L16.7489 11.7867L16.7615 11.803L16.7829 11.8306L16.8043 11.8595L16.8156 11.8758L16.8446 11.9184L16.8458 11.9209L16.8773 11.966L16.8836 11.9761L16.9087 12.0112L16.9238 12.035L16.9402 12.0588L16.9641 12.0939L16.9704 12.1039L16.9994 12.1516L17.0006 12.1528C17.5632 13.0518 17.8892 14.1137 17.8892 15.2522C17.8892 16.8695 17.231 18.334 16.1674 19.3947C15.1026 20.4553 13.6325 21.1098 12.0076 21.1098C10.3826 21.1098 8.91252 20.4553 7.8477 19.3947H7.84897C6.78541 18.334 6.12714 16.8695 6.12714 15.2522C6.12714 14.4021 6.30837 13.5934 6.63562 12.8637L6.63689 12.8612L6.64568 12.8412L6.65828 12.8148L6.67589 12.776L6.67968 12.7684L6.70234 12.7221L6.70737 12.7108C7.11266 11.8783 7.71051 11.1536 8.44178 10.5957C8.60667 10.4703 8.77784 10.3537 8.95405 10.2459C8.983 10.2333 9.00944 10.217 9.03335 10.1982C9.47514 9.94746 9.96224 9.74184 10.477 9.60392ZM11.6413 8.53947L11.6375 8.53069V8.52944L11.6337 8.51815L11.6325 8.51564L11.63 8.50687L11.6274 8.49934L11.6262 8.49558L11.6224 8.48429V8.48304L11.6186 8.47302L11.6174 8.46674L11.6161 8.46173L11.6123 8.45044L11.6086 8.43917L11.6073 8.43414L11.6048 8.42788L11.6023 8.41785L11.601 8.41659L11.5985 8.40531L11.5972 8.40155L11.5947 8.39402L11.5922 8.38651L11.5909 8.38275L11.5884 8.37271L11.5872 8.37021L11.5847 8.36143L11.5821 8.35516L11.5809 8.3514L11.5784 8.34011L11.5746 8.33009L11.5733 8.32507L11.5708 8.32005L11.5683 8.30877L11.5645 8.29749L11.5633 8.29372L11.562 8.2862L11.5595 8.27742L11.5582 8.27491L11.5557 8.26364L11.5544 8.26113L11.5519 8.25235L11.5507 8.24483L11.5494 8.24106L11.5469 8.22978L11.5456 8.22853L11.5431 8.2185L11.5418 8.21223L11.5406 8.20721L11.5368 8.19593L11.5343 8.18464L11.533 8.18089L11.5318 8.17462L11.5293 8.16459L11.528 8.16333L11.5255 8.15205L11.5242 8.14829L11.523 8.14077L11.5204 8.13324L11.5192 8.12948L11.5167 8.11819V8.11694L11.5142 8.10691L11.5117 8.10064V8.09563L11.5079 8.08434L11.5054 8.07306L11.5041 8.06804L11.5028 8.06178L11.5003 8.05175V8.05049L11.4978 8.03921L11.4965 8.03545L11.4953 8.02792L11.4928 8.01915V8.01664L11.489 8.0041V8.00285L11.4877 7.99407L11.4852 7.98655L11.484 7.98279L11.4814 7.97151L11.4789 7.96022V7.95521L11.4764 7.94894L11.4751 7.93765L11.4726 7.92637L11.4714 7.92261L11.4701 7.91509L11.4676 7.90505V7.9038L11.4651 7.89251L11.4638 7.89001L11.4626 7.88124L11.4613 7.87371L11.46 7.8712L11.4575 7.85866V7.85741L11.4563 7.84738L11.455 7.84111L11.4537 7.8361L11.4512 7.82481C11.387 7.48127 11.3543 7.12144 11.3543 6.74907V6.72149V6.69391V6.67385V6.66507L11.3556 6.63749V6.6099V6.59862L11.3568 6.58107V6.55348L11.3581 6.5259V6.52465L11.3594 6.49832L11.3606 6.47073L11.3619 6.44942V6.44315L11.3631 6.41557L11.3656 6.38799V6.37545L11.3669 6.3604L11.3694 6.33282L11.3757 6.25007L11.3782 6.22625V6.22249L11.3833 6.16732L11.3845 6.15228L11.3921 6.08582L11.3933 6.0783C11.4726 5.39249 11.6702 4.74178 11.9648 4.14874L11.966 4.14749L12.0264 4.02838L12.0315 4.02086L12.0529 3.98074L12.0654 3.95817V3.94062L12.0793 3.91679L12.0931 3.89297L12.1007 3.88044L12.107 3.87041L12.1196 3.84658L12.1334 3.82276L12.1359 3.819L12.1473 3.79894L12.1624 3.77512L12.1724 3.75631L12.1762 3.7513L12.1901 3.72747L12.2052 3.70366L12.2102 3.69488L12.219 3.68109L12.2341 3.65852L12.248 3.6347H12.2492L12.2631 3.61087L12.2782 3.5883L12.287 3.57452L12.2933 3.56574L12.3084 3.54317L12.3235 3.5206L12.326 3.51559L12.3386 3.49803L12.3537 3.47546L12.3663 3.45666L12.37 3.4529L12.4066 3.39899C12.6079 3.10937 12.8345 2.83855 13.0837 2.5903H13.085C14.1485 1.53086 15.6199 0.875137 17.2436 0.875137C18.8672 0.875137 20.3386 1.53086 21.4021 2.5903C22.467 3.64974 23.124 5.11541 23.124 6.73278C23.124 8.23981 22.5538 9.61395 21.6174 10.6508C20.7376 11.6225 19.5368 12.3008 18.1825 12.5164C17.8414 11.7604 17.3682 11.0784 16.7879 10.5004L16.7867 10.4991C16.4619 10.1769 16.1057 9.88727 15.7218 9.63526L15.7181 9.63275L15.6702 9.60267L15.5658 9.53622L15.5129 9.50487L15.5116 9.50362L15.46 9.47353L15.353 9.41084L15.2989 9.38075L15.2436 9.35191C15.1894 9.32182 15.1353 9.29298 15.0799 9.2654L15.0233 9.23782L15.0094 9.23029L14.9679 9.21023L14.9364 9.19519L14.9113 9.18391L14.8622 9.16008L14.8559 9.15758L14.798 9.13125L14.7867 9.12623L14.7413 9.10617L14.7124 9.09238L14.686 9.0811L14.6381 9.05978L14.6281 9.05602L14.5702 9.0322L14.5614 9.02844L14.5123 9.00963L14.4846 8.99835L14.4544 8.98581L14.4091 8.96825L14.3965 8.96449L14.3373 8.94193L14.331 8.93942L14.2782 8.92061L14.219 8.8993L14.175 8.88425L14.1586 8.87924L14.0982 8.85918L14.039 8.84037L14.0151 8.83284L13.9786 8.82157L13.9371 8.80903L13.9169 8.80401L13.8565 8.78646L13.7948 8.76891L13.7747 8.76389L13.7344 8.75261L13.6941 8.74257L13.6715 8.73756L13.6123 8.72252H13.6098L13.5481 8.70747L13.5305 8.70371L13.4852 8.69368L13.4487 8.6849L13.4235 8.67989L13.3656 8.66735L13.3606 8.6661L13.2977 8.65356L13.2826 8.65105L13.2347 8.64227L13.2008 8.636L13.1718 8.63099L13.1177 8.62221L13.1089 8.62096L13.0447 8.61093L13.0334 8.60968L12.9805 8.60215L12.949 8.59714L12.9176 8.59338L12.8647 8.58585L12.8534 8.5846L12.7892 8.57708L12.7804 8.57583L12.7237 8.56955L12.696 8.56705L12.6608 8.56329L12.6105 8.55953L12.5953 8.55828L12.5299 8.55325H12.5236L12.4644 8.54949L12.438 8.54824L12.4003 8.54699L12.3524 8.54448L12.3336 8.54323L12.2681 8.54072H12.2656L12.2026 8.53947H12.1775L12.1359 8.53821H12.0906H12.0667H12H11.995H11.9887H11.9836H11.9773H11.9723H11.966H11.961H11.9547H11.9497H11.9434H11.9408H11.9383H11.9333H11.927H11.922H11.9157H11.9106H11.9043H11.8993H11.893H11.8867H11.8817H11.8792H11.8754H11.8704H11.8641H11.859H11.8527H11.8464H11.8414H11.8351H11.8301H11.8238H11.8187H11.8125H11.8074H11.8011H11.7961H11.7898H11.7835H11.7785H11.7722H11.7671H11.7609H11.7583H11.7546H11.7432H11.737H11.7319H11.7256L11.6413 8.53947Z" fill="#333130"/>
</svg>
