<svg class="svg-icon" style="width: 1em; height: 1em;vertical-align: middle;fill: currentColor;overflow: hidden;" viewBox="0 0 1024 1024" version="1.1" xmlns="http://www.w3.org/2000/svg"><path d="M899.84 877.23008h-768a35.0208 35.0208 0 0 1-34.99008-34.99008v-655.36a35.03104 35.03104 0 0 1 34.99008-34.99008h768a35.0208 35.0208 0 0 1 34.99008 34.99008v655.36a35.0208 35.0208 0 0 1-34.99008 34.99008z m-768-696.32a5.98016 5.98016 0 0 0-5.96992 5.96992v655.36c0 3.28704 2.67264 5.96992 5.96992 5.96992h768a5.98016 5.98016 0 0 0 5.96992-5.96992v-655.36a5.98016 5.98016 0 0 0-5.96992-5.96992h-768z"  /><path d="M515.84 553.33888a34.7136 34.7136 0 0 1-23.81824-9.4208L116.77696 191.05792l19.87584-21.1456 375.2448 352.8704c2.2528 2.0992 5.62176 2.0992 7.86432 0l375.25504-352.8704 19.87584 21.1456L539.648 543.91808a34.64192 34.64192 0 0 1-23.808 9.4208z"  /></svg>