<svg width="24" height="21" viewBox="0 0 24 21" fill="none" xmlns="http://www.w3.org/2000/svg">
<path fill-rule="evenodd" clip-rule="evenodd" d="M22.6824 15.696C22.1253 15.696 19.4932 15.2751 19.4462 9.29031C19.5848 6.99991 18.7256 4.75779 17.0753 3.10127C15.805 1.96845 14.177 1.27885 12.4511 1.14019C12.5477 0.880198 12.5056 0.591732 12.3409 0.365167C12.1763 0.138603 11.9089 0.00365658 11.6204 0.00118047C11.374 -0.0112001 11.1314 0.0742234 10.9519 0.237647C10.7723 0.402308 10.6708 0.630109 10.672 0.867816C10.6906 0.964384 10.7265 1.056 10.7785 1.14143C9.05763 1.28876 7.43701 1.97835 6.16676 3.10251C4.51519 4.75903 3.65598 7.00115 3.79465 9.29155C3.79465 15.3221 1.07958 15.6861 0.545976 15.6973H0.450651C0.331797 15.6948 0.217891 15.7369 0.132465 15.8173C0.0482775 15.8953 0 16.0055 0 16.1194C0 16.351 0.186948 16.5416 0.427131 16.554H22.8C22.9102 16.5441 23.013 16.4946 23.0836 16.4129C23.1554 16.3324 23.1888 16.2259 23.1789 16.1207C23.1554 15.8731 22.9375 15.6886 22.6824 15.696ZM2.62097 15.696C3.64113 14.8071 4.6489 12.9834 4.67243 9.29031C4.54491 7.23762 5.30383 5.22578 6.77092 3.72773C9.54169 1.38904 13.6867 1.38904 16.4575 3.72773C17.9283 5.2233 18.6872 7.23638 18.556 9.29031C18.556 12.9834 19.5873 14.8083 20.6075 15.696H2.62097ZM13.9108 17.5469C13.995 17.4677 14.1101 17.4243 14.229 17.4281C14.3466 17.4243 14.4605 17.4677 14.5422 17.5482C14.6252 17.6274 14.671 17.7363 14.6673 17.849C14.7391 18.9459 14.1708 19.9896 13.1927 20.5579C12.2147 21.1274 10.9902 21.1274 10.0122 20.5579C9.0341 19.9896 8.46582 18.9459 8.53763 17.849C8.57354 17.641 8.76173 17.4862 8.9821 17.4862C9.20248 17.4862 9.39066 17.641 9.42656 17.849C9.36589 18.6327 9.76703 19.3842 10.4653 19.794C11.1623 20.2038 12.0401 20.2038 12.7384 19.794C13.4366 19.3842 13.8378 18.6327 13.7771 17.849C13.7783 17.7363 13.8266 17.6274 13.9108 17.5469Z" fill="#333130"/>
</svg>
