<svg class="svg-icon" style="width: 1em; height: 1em;vertical-align: middle;fill: currentColor;overflow: hidden;" viewBox="0 0 1024 1024" version="1.1" xmlns="http://www.w3.org/2000/svg"><path d="M893.456828 709.055005"  /><path d="M491.889987 337.939709"  /><path d="M568.154951 338.993714"  /><path d="M527.32401 876.195699c-3.564175 0-7.119141-0.976234-10.256598-2.928702-16.664541-10.379395-408.355455-256.871345-436.366416-500.994342-8.237615-71.78493 15.535835-136.232754 70.656223-191.560874 37.954427-42.778292 91.974761-66.333778 152.175865-66.333778 77.613682 0 158.166299 39.422871 223.789902 108.884896 65.623603-69.462025 146.176221-108.884896 223.780693-108.884896 60.191894 0 114.212228 23.555485 152.157445 66.333778 55.489802 55.698556 79.396281 120.497375 71.045079 192.603623-28.294416 244.245793-420.09073 489.63769-436.754249 499.970012C534.414499 875.228675 530.869766 876.195699 527.32401 876.195699zM303.534108 153.203264c-49.110511 0-92.960205 19.052938-123.463939 53.650921-0.265036 0.302899-0.549515 0.597611-0.833995 0.881067-47.28084 47.28084-66.893526 99.661837-59.954487 160.109558 23.517623 204.964138 346.068853 425.285033 408.061766 465.865263 62.049195-40.456411 384.695592-259.981173 408.393317-464.888006 7.033184-60.750619-12.71151-113.444748-60.352553-161.085792-0.293689-0.284479-0.568958-0.578168-0.833995-0.8913-30.493501-34.588773-74.333986-53.641711-123.44552-53.641711-72.154343 0-148.346653 40.721447-209.021547 111.710244-3.686972 4.313236-9.080819 6.7968-14.759145 6.7968l0 0c-5.678326 0-11.07115-2.483564-14.759145-6.7968C451.889971 193.924711 375.697661 153.203264 303.534108 153.203264z"  /></svg>