<svg width="24" height="22" viewBox="0 0 24 22" fill="none" xmlns="http://www.w3.org/2000/svg">
<path fill-rule="evenodd" clip-rule="evenodd" d="M17.1966 14.2049L17.587 13.979C17.7301 13.8961 17.8544 13.7856 17.9523 13.6563C18.0097 13.5816 18.0438 13.4947 18.0778 13.4077L18.0942 13.3663C19.6936 13.1491 21.1235 12.3909 22.1604 11.256C23.2501 10.0608 23.9155 8.47148 23.9155 6.72772C23.9155 4.87349 23.1623 3.19375 21.947 1.97727H21.9458L21.9445 1.97601C20.728 0.759521 19.0483 0.00753234 17.1953 0.00753234C15.3423 0.00753234 13.6601 0.760777 12.4436 1.97601V1.97727H12.4423C12.3248 2.09484 12.2237 2.2259 12.1226 2.35717L12.1225 2.35722C12.079 2.41375 12.0354 2.47033 11.9904 2.52588C11.4167 1.81281 10.7136 1.21398 9.9039 0.784629C8.96235 0.284977 7.88521 0 6.7453 0C4.88353 0 3.19627 0.755755 1.97601 1.97475V1.97727C0.755755 3.19752 0 4.88353 0 6.74404C0 8.47902 0.655322 10.0608 1.73121 11.256C2.69661 12.3281 4.00977 13.06 5.48487 13.34L5.43215 13.5333L5.4334 13.5345L5.32293 13.9476L5.32167 13.9463C5.27899 14.1095 5.2702 14.274 5.29154 14.4334H5.2928C5.31414 14.5991 5.36812 14.7561 5.44847 14.8941C5.52756 15.0335 5.63803 15.159 5.76985 15.2607C5.8979 15.3586 6.04478 15.434 6.20548 15.4767L6.6411 15.5934L6.76288 15.626V15.6286C6.76915 15.729 6.78045 15.8357 6.79301 15.9462L6.79552 15.9713C6.80933 16.0793 6.82816 16.191 6.85201 16.3052L6.77292 16.3504L6.74405 16.3667L6.35361 16.5927C6.20924 16.6756 6.08621 16.786 5.98829 16.9153C5.88911 17.0459 5.8163 17.1953 5.77487 17.3522L5.77362 17.351C5.73219 17.5066 5.72089 17.6711 5.74223 17.8381C5.76232 17.9975 5.81379 18.1557 5.89665 18.2988L5.8979 18.2976V18.3001L6.11258 18.6692L6.32474 19.0382C6.40885 19.1851 6.51933 19.3094 6.64487 19.4048H6.64612C6.77669 19.5053 6.92608 19.5781 7.08301 19.6195V19.622C7.23868 19.6634 7.40313 19.6747 7.56885 19.6521C7.72954 19.6308 7.88647 19.5793 8.03084 19.4977L8.42127 19.2717V19.2705L8.52923 19.2077C8.61711 19.2843 8.70499 19.3571 8.79036 19.4237V19.4224L8.79161 19.4237C8.87824 19.4902 8.96737 19.5542 9.05776 19.6145L9.07157 19.6245L9.03893 19.7463L8.92218 20.1819C8.87949 20.3439 8.86945 20.5096 8.89205 20.669C8.91464 20.836 8.96863 20.9917 9.04772 21.1298C9.12304 21.2603 9.22473 21.3783 9.34776 21.4775L9.3691 21.4963C9.49715 21.5943 9.64404 21.6696 9.80598 21.7123L10.219 21.8227V21.8215L10.6333 21.9332L10.632 21.9345C10.794 21.9771 10.9584 21.9859 11.1179 21.9646V21.9633C11.2836 21.9407 11.4418 21.8868 11.5799 21.8077C11.718 21.7286 11.8448 21.6181 11.9465 21.4863C12.0444 21.3582 12.1184 21.2114 12.1624 21.0494L12.2791 20.6138L12.3118 20.492H12.3143C12.4147 20.4857 12.5202 20.4744 12.6306 20.4619L12.6558 20.4581C12.7637 20.4443 12.8767 20.4255 12.9909 20.4029L13.0374 20.482L13.0537 20.5108L13.2797 20.9013C13.3613 21.0444 13.473 21.1687 13.6011 21.2666C13.7316 21.367 13.881 21.4398 14.038 21.4813V21.4825C14.1924 21.524 14.3581 21.5352 14.5238 21.5139C14.6845 21.4926 14.8427 21.4411 14.9845 21.3595V21.3582L14.987 21.357L15.3561 21.1436L15.6976 20.9465L15.724 20.9314C15.8658 20.8498 15.9889 20.7381 16.088 20.6088C16.1872 20.4782 16.2613 20.3288 16.3027 20.1719L16.3052 20.1731C16.3467 20.0175 16.3567 19.8517 16.3341 19.6873C16.314 19.5266 16.2625 19.3684 16.1797 19.2253L15.9537 18.8349L15.8897 18.7256C15.9675 18.639 16.0391 18.5511 16.1056 18.4645V18.4633H16.1069C16.1734 18.3766 16.2374 18.2863 16.2964 18.1959L16.3065 18.1821L16.4295 18.2147L16.8651 18.3314C17.0258 18.3741 17.1915 18.3829 17.351 18.3616C17.5167 18.339 17.6736 18.285 17.813 18.2047C17.9435 18.1293 18.0615 18.0289 18.1607 17.9059L18.1783 17.8833C18.2762 17.7552 18.3528 17.6083 18.3942 17.4476L18.506 17.0334H18.5047L18.6152 16.6203H18.6177C18.6604 16.4584 18.6692 16.2939 18.6466 16.1345C18.624 15.9688 18.57 15.8106 18.4896 15.6725C18.4105 15.5344 18.3013 15.4089 18.1682 15.3072C18.0415 15.2093 17.8933 15.1339 17.7326 15.0912L17.297 14.9745L17.174 14.9419C17.1692 14.8474 17.1579 14.7473 17.1461 14.6438L17.1438 14.6242L17.1413 14.5991C17.1275 14.4912 17.1087 14.3782 17.0861 14.2639L17.1652 14.2187L17.1966 14.2049ZM13.0613 2.59618L13.0638 2.59367C14.1196 1.53787 15.5796 0.885062 17.1953 0.885062C18.8085 0.885062 20.2698 1.53913 21.3269 2.59367L21.3281 2.59618C22.3839 3.65198 23.0367 5.11327 23.0367 6.72647C23.0367 8.24426 22.4592 9.62771 21.5114 10.6659C20.6401 11.62 19.445 12.2628 18.1118 12.475C18.1025 12.4499 18.0957 12.4242 18.0891 12.3987C18.0777 12.3554 18.0664 12.3124 18.0427 12.2729L18.0415 12.2716L17.8268 11.9025L17.6309 11.561L17.6146 11.5322C17.533 11.389 17.4213 11.266 17.292 11.1668C17.1614 11.0677 17.012 10.9949 16.8551 10.9522V10.9509C16.7007 10.9095 16.535 10.8982 16.3692 10.9208C16.2098 10.9409 16.0504 10.9936 15.9085 11.0752L15.5181 11.3012L15.4114 11.3639C15.3248 11.2861 15.2356 11.2145 15.1502 11.148L15.149 11.1493L15.1477 11.148C15.0536 11.0752 14.9607 11.0087 14.8703 10.9484L14.8678 10.9471L14.8992 10.8254L15.0172 10.3885C15.0599 10.2278 15.0686 10.0621 15.0473 9.90265C15.0247 9.73944 14.9707 9.58126 14.8916 9.44317C14.8163 9.31261 14.7159 9.1946 14.5916 9.09542L14.5703 9.07659C14.4422 8.97867 14.2941 8.90334 14.1346 8.86066L13.7203 8.75019V8.75144L13.3061 8.63971L13.3073 8.63845C13.1454 8.59577 12.9797 8.58698 12.8202 8.60832L12.8215 8.60958C12.6545 8.63218 12.4976 8.6849 12.3595 8.76525C12.2214 8.84434 12.0946 8.95356 11.9942 9.08663C11.9746 9.112 11.9621 9.14156 11.9495 9.17143C11.9403 9.1933 11.931 9.21533 11.9188 9.23603C11.8008 8.98871 11.6966 8.73386 11.6138 8.46897C11.4443 7.92036 11.3526 7.33534 11.3526 6.72647C11.3526 5.11327 12.0055 3.65198 13.0613 2.59618ZM0.878785 6.74404C0.878785 5.12457 1.53411 3.657 2.59618 2.59618C3.657 1.53536 5.12457 0.878785 6.74405 0.878785C7.73707 0.878785 8.67235 1.12484 9.49088 1.56047C10.2717 1.97475 10.9396 2.56605 11.4594 3.26782C10.8467 4.28219 10.4726 5.45725 10.4726 6.72647C10.4726 7.42071 10.5793 8.09361 10.7764 8.72759C10.9283 9.21469 11.1505 9.66663 11.4041 10.101C11.3715 10.1035 11.3413 10.106 11.3087 10.1098L11.2836 10.1123C11.1769 10.1261 11.0652 10.1462 10.9497 10.1688L10.9032 10.0884L10.8881 10.0596L10.6622 9.66789C10.5793 9.52477 10.4688 9.40049 10.3395 9.30256C10.209 9.20339 10.0596 9.13057 9.9039 9.08914V9.08789C9.74949 9.04646 9.58378 9.03516 9.41806 9.0565C9.25863 9.07785 9.10044 9.12806 8.95733 9.21092V9.21218L8.95607 9.21343L8.58698 9.42685L8.21789 9.64027C8.07101 9.72438 7.94673 9.83486 7.85131 9.9604V9.96165C7.75088 10.0922 7.67807 10.2416 7.63664 10.3973H7.63413C7.5927 10.5517 7.58266 10.7187 7.604 10.8831C7.62409 11.0438 7.67556 11.202 7.75967 11.3451L7.98439 11.7355L8.04716 11.8435C7.97937 11.9213 7.90655 12.0092 7.83123 12.1071C7.76469 12.1938 7.70067 12.2829 7.64041 12.3733L7.63036 12.3884L7.50859 12.3557L7.07296 12.239C6.91227 12.1963 6.74656 12.1862 6.58712 12.2088C6.42015 12.2314 6.26323 12.2867 6.12513 12.3645C6.06852 12.397 6.02083 12.4439 5.97292 12.491C5.95603 12.5076 5.9391 12.5242 5.92175 12.5403C4.527 12.3432 3.28289 11.6715 2.38276 10.671C1.44874 9.63023 0.878785 8.25304 0.878785 6.74404ZM16.7559 13.4429L16.7283 13.4617L16.3667 13.6701C16.191 13.7718 16.1131 13.9764 16.1634 14.1635C16.1885 14.2551 16.2098 14.3468 16.2274 14.4384C16.2462 14.5263 16.2613 14.6205 16.2738 14.7171L16.2763 14.7347C16.2864 14.8176 16.2964 14.908 16.3015 15.0009C16.309 15.0925 16.3115 15.1892 16.3115 15.2871C16.3115 15.4905 16.4483 15.6612 16.6379 15.7114V15.7127L17.0723 15.8294L17.5092 15.9462C17.5581 15.96 17.6021 15.9813 17.6372 16.0089C17.6761 16.0366 17.7088 16.0767 17.7326 16.1194C17.759 16.1634 17.7753 16.2098 17.7816 16.255V16.2563H17.7803C17.7866 16.3015 17.7841 16.3492 17.7703 16.3994H17.7715L17.6611 16.8124H17.6586L17.5481 17.2254C17.5355 17.2744 17.5142 17.3183 17.4853 17.3547L17.4753 17.3686C17.4489 17.3987 17.4137 17.4276 17.3761 17.4502C17.3321 17.4753 17.2844 17.4916 17.2367 17.4979C17.1928 17.5041 17.1451 17.5004 17.0949 17.4866L16.6605 17.3698L16.2236 17.2531C16.0177 17.1978 15.8068 17.2982 15.7164 17.4828C15.6725 17.5581 15.6286 17.6309 15.5821 17.7L15.5696 17.7201C15.5206 17.7941 15.4679 17.8657 15.4151 17.9347C15.3536 18.0126 15.2946 18.0854 15.2344 18.1532C15.1741 18.2222 15.1088 18.29 15.0423 18.3578C14.8941 18.506 14.8728 18.7332 14.9808 18.9039L15.1967 19.278H15.198L15.1967 19.2793L15.4227 19.671C15.449 19.7149 15.4641 19.7614 15.4691 19.804C15.4754 19.8505 15.4716 19.9007 15.4578 19.9497H15.4591C15.4465 19.9961 15.4252 20.0413 15.3951 20.0815C15.3687 20.1154 15.331 20.148 15.2858 20.1744L15.2582 20.192L14.918 20.3878L14.9155 20.3891L14.5464 20.6037L14.5451 20.6025C14.5012 20.6288 14.4548 20.6439 14.4121 20.6489C14.3669 20.6552 14.3154 20.6514 14.2664 20.6376L14.2652 20.6389C14.22 20.6263 14.1735 20.605 14.1346 20.5749C14.1007 20.5485 14.0681 20.5108 14.0417 20.4656L13.8158 20.0752L13.7982 20.0463L13.5885 19.6848C13.4831 19.5027 13.2671 19.4262 13.0751 19.4877C12.996 19.509 12.9119 19.5279 12.8227 19.5467C12.7348 19.5643 12.6407 19.5793 12.5428 19.5919L12.5252 19.5944C12.4423 19.6057 12.3532 19.6145 12.259 19.6208C12.1674 19.627 12.072 19.6308 11.9728 19.6308C11.7694 19.6308 11.5987 19.7676 11.5485 19.9559L11.4317 20.3916L11.315 20.8272C11.3024 20.8762 11.2798 20.9201 11.2535 20.9565C11.2246 20.9929 11.1857 21.0268 11.143 21.0507C11.0991 21.077 11.0526 21.0933 11.0074 21.0996H11.0024V21.0933C10.9572 21.0996 10.9082 21.0971 10.8593 21.0833V21.0858L10.4462 20.9741V20.9728L10.0332 20.8611C9.983 20.8485 9.94031 20.8272 9.9039 20.7983L9.89009 20.7883C9.85997 20.7619 9.83235 20.728 9.80849 20.6891C9.78339 20.6452 9.76581 20.5975 9.76079 20.5535V20.5523C9.75577 20.5071 9.75828 20.4581 9.77083 20.4091L9.88758 19.9735L10.0043 19.5379C10.0596 19.332 9.95914 19.1211 9.7746 19.0307C9.69927 18.9868 9.62646 18.9403 9.55741 18.8951L9.53858 18.8826C9.46451 18.8336 9.39295 18.7809 9.32391 18.7282C9.24607 18.6679 9.17326 18.6076 9.10547 18.5474C9.03642 18.4871 8.96737 18.4218 8.90084 18.3553C8.7527 18.2084 8.52547 18.1871 8.35599 18.295L7.98188 18.511V18.5097L7.59144 18.7357C7.54625 18.7621 7.4998 18.7771 7.45712 18.7834C7.41067 18.7897 7.36045 18.7847 7.31149 18.7708V18.7734C7.26504 18.7608 7.21985 18.7395 7.18093 18.7093V18.7081C7.14327 18.6792 7.11062 18.6428 7.08677 18.6014L6.87335 18.2298L6.8721 18.2285L6.65868 17.8582C6.63231 17.8142 6.61725 17.7678 6.61223 17.7238C6.60344 17.6786 6.60721 17.6284 6.62102 17.5782H6.61976C6.63231 17.5305 6.65366 17.4853 6.68379 17.4476C6.71015 17.4125 6.74781 17.3799 6.79175 17.3547L7.18344 17.1288L7.21106 17.1099L7.57387 16.9003C7.7559 16.7948 7.83248 16.5789 7.77097 16.3881C7.75088 16.309 7.7308 16.2236 7.71322 16.1345C7.69564 16.0466 7.68058 15.9525 7.66677 15.8558L7.66426 15.8382C7.65422 15.7554 7.64543 15.665 7.63915 15.5721C7.63287 15.4792 7.63036 15.3838 7.63036 15.2846C7.63036 15.0825 7.49227 14.9105 7.30521 14.8615V14.8602L6.86959 14.7435L6.43396 14.6255C6.385 14.6129 6.34106 14.5916 6.30591 14.564C6.26825 14.5351 6.23435 14.4962 6.2105 14.4535C6.18539 14.4096 6.16781 14.3631 6.16154 14.3179V14.3167H6.16279C6.15652 14.2715 6.16028 14.2225 6.17284 14.1735H6.17032L6.2808 13.7605H6.28206L6.39253 13.3475C6.40634 13.2973 6.42768 13.2546 6.4553 13.2182L6.46535 13.2044C6.49171 13.173 6.5256 13.1454 6.56578 13.1228C6.60972 13.0977 6.65617 13.0801 6.70136 13.0751L6.70262 13.0738V13.0751C6.74781 13.0688 6.79677 13.0725 6.84573 13.0851L7.28136 13.2019L7.71699 13.3199C7.92287 13.3751 8.13378 13.2747 8.22543 13.0901C8.26937 13.0135 8.31456 12.942 8.36101 12.8717L8.37356 12.8529C8.42378 12.7775 8.47525 12.706 8.52923 12.6369C8.57945 12.5716 8.63845 12.5001 8.70625 12.4235L8.72382 12.4022C8.78534 12.3319 8.84434 12.2703 8.90084 12.2126C9.0427 12.0707 9.06529 11.8536 8.97114 11.6866L8.74391 11.2974L8.74265 11.2962H8.74391L8.51919 10.9057C8.49283 10.8605 8.47776 10.8141 8.47274 10.7701C8.46646 10.7249 8.47023 10.6747 8.48278 10.6258L8.48153 10.6245C8.49408 10.5793 8.51668 10.5341 8.54556 10.4939V10.4952C8.57443 10.4575 8.61084 10.4236 8.65226 10.401L9.02261 10.1864L9.02638 10.1839L9.39546 9.97044V9.9717C9.44066 9.94533 9.48585 9.93027 9.52979 9.92525C9.57624 9.91897 9.62646 9.92274 9.67668 9.93654V9.93529C9.72313 9.94784 9.76832 9.96918 9.80724 9.99932C9.84239 10.0257 9.87503 10.0633 9.90139 10.1085L10.1274 10.4977L10.1462 10.5253L10.3559 10.8881C10.4613 11.0702 10.6772 11.1468 10.8693 11.084C10.9471 11.0639 11.0325 11.0451 11.1229 11.0262C11.2108 11.0087 11.3049 10.9936 11.4016 10.9798L11.4192 10.9773C11.502 10.9672 11.5924 10.9584 11.6853 10.9522C11.777 10.9446 11.8736 10.9421 11.9716 10.9421C12.1737 10.9421 12.3457 10.8053 12.3959 10.617H12.3971L12.5101 10.1839L12.6269 9.74823C12.6394 9.69927 12.6608 9.65533 12.6884 9.61893C12.7173 9.58126 12.7574 9.54737 12.7989 9.52351C12.8428 9.49841 12.8905 9.48083 12.9357 9.47581H12.937C12.9822 9.46953 13.0311 9.4733 13.0788 9.48585L13.0801 9.4846L13.4931 9.59633L13.4919 9.59758L13.9061 9.70806C13.9551 9.72187 13.999 9.74321 14.0354 9.77083L14.0493 9.78213C14.0794 9.80849 14.1083 9.84239 14.1296 9.88131C14.1547 9.92525 14.171 9.9717 14.1786 10.0194C14.1836 10.0633 14.1811 10.1123 14.1673 10.1613L14.0505 10.5969L13.9325 11.0325C13.8785 11.2384 13.979 11.4493 14.1635 11.5397C14.2401 11.5836 14.3129 11.6301 14.3819 11.6765C14.4648 11.7318 14.5439 11.7883 14.6154 11.8423C14.6933 11.9025 14.7661 11.9628 14.8339 12.0218C14.9029 12.0833 14.9707 12.1486 15.0385 12.2139C15.1867 12.362 15.4139 12.3833 15.5846 12.2754L15.9575 12.0594L15.9587 12.0582L15.96 12.0594L16.3504 11.8347C16.3956 11.8084 16.4408 11.7933 16.4847 11.787C16.5312 11.7807 16.5802 11.7845 16.6304 11.7983L16.6316 11.7971C16.6768 11.8096 16.722 11.831 16.7622 11.8623C16.7961 11.8887 16.83 11.9251 16.8551 11.9703L16.8739 11.9979L17.0698 12.3381L17.071 12.3406L17.2844 12.711C17.3095 12.7549 17.3259 12.8014 17.3309 12.8453C17.3372 12.893 17.3334 12.9445 17.3208 12.9909C17.3083 13.0374 17.287 13.0826 17.2556 13.1215C17.2292 13.1567 17.1928 13.1893 17.1476 13.2144L16.7559 13.4429ZM8.14805 8.93599H5.05472C5.01706 8.93474 4.9794 8.92971 4.94174 8.92093C4.70697 8.85816 4.56762 8.61837 4.63039 8.38361L4.94425 7.21357L4.37429 7.36673C4.14079 7.42825 3.89975 7.29015 3.83698 7.05539C3.77546 6.82189 3.91481 6.58085 4.14832 6.51808L5.20663 6.23436L5.85944 3.79887C5.92221 3.56536 6.16199 3.42601 6.39675 3.48878C6.63026 3.55155 6.76961 3.79259 6.70809 4.0261L6.18584 5.97323L7.09099 5.73094C7.3245 5.66817 7.56428 5.80752 7.62705 6.04228C7.68982 6.27453 7.55047 6.51557 7.31697 6.57708L5.92346 6.95119L5.62719 8.05595H8.14805C8.39034 8.05595 8.58744 8.25179 8.58744 8.49534C8.58744 8.73889 8.39034 8.93599 8.14805 8.93599ZM15.4389 4.82462H19.6344V4.82211H19.647C19.6608 4.82211 19.6733 4.82211 19.6859 4.82462L19.7085 4.82964C19.7286 4.83341 19.7449 4.83968 19.76 4.84722L19.7964 4.86479L19.8089 4.88613C19.8144 4.89432 19.8185 4.90318 19.8223 4.91125L19.8265 4.92003L19.829 4.93133C19.8361 4.94896 19.8387 4.96769 19.8411 4.98444L19.8416 4.98782L19.8466 5.03302C19.8491 5.04682 19.8491 5.06061 19.8491 5.07316V5.07319L19.8466 5.09579C19.8441 5.11838 19.8378 5.13722 19.829 5.15479H19.8303L19.8139 5.19873L19.2666 6.91738C19.2503 6.95504 19.2327 6.99396 19.2151 7.02911L19.2026 7.05171L19.1902 7.07271C19.1692 7.10874 19.1476 7.14551 19.1235 7.18227C19.0996 7.20864 19.0695 7.24128 19.0356 7.27517C18.9967 7.31535 18.9565 7.35175 18.9176 7.38188L18.9101 7.38816C18.8548 7.43335 18.7782 7.47729 18.7029 7.51998L18.6766 7.53253L18.6389 7.55513C18.6113 7.56392 18.5837 7.57145 18.5573 7.57647C18.5284 7.58275 18.4983 7.58651 18.4707 7.58903L18.4543 7.58526H14.2412C13.9989 7.58526 13.8018 7.78236 13.8018 8.02591C13.8018 8.26945 13.9977 8.4653 14.2412 8.4653H18.4543C18.4704 8.4653 18.4847 8.46438 18.501 8.46334L18.5096 8.46279C18.5811 8.45902 18.6527 8.44898 18.723 8.43642C18.8084 8.41885 18.8925 8.39625 18.9728 8.36612C18.9893 8.36064 19.0044 8.35317 19.0196 8.34564L19.0369 8.33725L19.1084 8.29833L19.131 8.28452C19.2365 8.22552 19.3494 8.16023 19.4612 8.06985H19.4624C19.534 8.01335 19.6005 7.95435 19.6608 7.89534C19.7135 7.84136 19.7713 7.77483 19.834 7.69699L19.8554 7.66812L19.8579 7.66937C19.9018 7.60283 19.9433 7.53253 19.9809 7.46223L19.9935 7.43587C20.0261 7.37309 20.0575 7.30907 20.0826 7.24755C20.0914 7.22496 20.0989 7.20361 20.1039 7.18102L20.6438 5.48496C20.6827 5.39206 20.7091 5.29665 20.7204 5.19999L20.7254 5.15354C20.7304 5.07445 20.7291 4.99787 20.7178 4.91877C20.7128 4.83717 20.6965 4.75432 20.6739 4.67774L20.6613 4.64259C20.6362 4.56852 20.6049 4.50072 20.5684 4.43795L20.5634 4.42917C20.517 4.34505 20.4567 4.27099 20.3889 4.21073L20.3877 4.20947C20.3174 4.14544 20.2345 4.09397 20.1441 4.05631C20.0638 4.01739 19.9797 3.98726 19.8968 3.97094L19.8604 3.96467C19.7863 3.95086 19.7135 3.94458 19.6394 3.94583H15.4439C15.2016 3.94583 15.0045 4.14168 15.0045 4.38523C15.0045 4.62878 15.1966 4.82462 15.4389 4.82462ZM14.1019 6.64505H16.3616C16.6039 6.64505 16.801 6.44795 16.801 6.2044C16.801 5.96085 16.6052 5.76501 16.3616 5.76501H14.1019C13.8596 5.76501 13.6612 5.96085 13.6612 6.2044C13.6612 6.44795 13.8596 6.64505 14.1019 6.64505ZM12.5649 13.0664C13.175 13.2309 13.6646 13.6289 13.9584 14.1373C14.2521 14.6457 14.3513 15.2684 14.1894 15.8798C14.0262 16.4912 13.6282 16.9795 13.1185 17.2733V17.2746C12.6088 17.5683 11.9874 17.6688 11.376 17.5043C10.7646 17.3411 10.2763 16.9431 9.9825 16.4334V16.4347C9.68748 15.925 9.5883 15.3023 9.7515 14.6909C9.91596 14.0808 10.3139 13.5925 10.8224 13.2987V13.2974C11.3321 13.0024 11.9535 12.9032 12.5649 13.0664ZM12.6829 16.5163C12.9955 16.3343 13.2403 16.033 13.342 15.6538C13.4424 15.2747 13.3809 14.8893 13.1989 14.5767H13.2001L13.1989 14.5754C13.0181 14.2628 12.7155 14.018 12.3376 13.9164C11.9585 13.8147 11.5744 13.8749 11.2605 14.057V14.0557L11.2592 14.057C10.9467 14.2377 10.7018 14.5403 10.6002 14.9194C10.4985 15.2973 10.56 15.6827 10.7408 15.9953V15.9966V15.9978C10.9228 16.3104 11.2241 16.5552 11.6032 16.6569C11.9811 16.7586 12.3665 16.6971 12.6804 16.5163H12.6829Z" fill="#333130"/>
</svg>
