<svg width="18" height="22" viewBox="0 0 18 22" fill="none" xmlns="http://www.w3.org/2000/svg">
<path fill-rule="evenodd" clip-rule="evenodd" d="M9.27984 0.111905L9.28346 0.114413C10.3061 1.0648 11.5294 1.75941 12.8917 2.26971C14.2734 2.78754 15.8037 3.11854 17.4198 3.33921C17.6157 3.36554 17.7631 3.52854 17.7837 3.72288H17.7849C18.324 8.59519 17.8453 12.5234 16.3984 15.5488C14.937 18.6056 12.5001 20.7321 9.14203 21.9746C9.04654 22.0097 8.94621 22.0072 8.85797 21.9746C5.49873 20.7321 3.06302 18.6044 1.60159 15.5488C0.154667 12.5234 -0.324016 8.59519 0.215105 3.72288C0.239281 3.50848 0.408512 3.34799 0.609172 3.33545C2.21445 3.11478 3.7339 2.78503 5.10709 2.26971C6.47181 1.75816 7.69632 1.06355 8.72017 0.111905C8.87973 -0.0385527 9.12269 -0.0360451 9.27984 0.111905ZM9.86489 7.65984C9.63159 7.65984 9.44182 7.85669 9.44182 8.09868V11.3849V11.3962C9.44182 11.6382 9.63159 11.835 9.86489 11.835H10.6361L9.57478 13.6418C9.52401 13.7145 9.49379 13.8035 9.49379 13.9001C9.49379 14.142 9.68357 14.3389 9.91808 14.3389H11.5826V14.3376C11.7252 14.3376 11.863 14.2624 11.9428 14.1283L13.397 11.6545C13.4478 11.5818 13.478 11.4927 13.478 11.3962V8.10996V8.09868C13.478 7.85669 13.2882 7.65984 13.0549 7.65984H9.87819H9.86489ZM12.6306 8.53751H10.288V10.9574H11.3892V10.9586C11.4641 10.9586 11.5403 10.9799 11.6092 11.0226C11.8074 11.1479 11.8703 11.4175 11.7494 11.6231L10.6687 13.46H11.3457L12.6306 11.2746V8.53751ZM4.94511 7.65984C4.71181 7.65984 4.52203 7.85669 4.52203 8.09868V11.3849V11.3962C4.52203 11.6382 4.71181 11.835 4.94511 11.835H5.71632L4.65379 13.6418C4.60302 13.7145 4.5728 13.8035 4.5728 13.9001C4.5728 14.142 4.76258 14.3389 4.99588 14.3389H6.66038V14.3376C6.80181 14.3376 6.94082 14.2624 7.02061 14.1283L8.47478 11.6545C8.52555 11.5818 8.55577 11.4927 8.55577 11.3962V8.10996V8.09868C8.55577 7.85669 8.36599 7.65984 8.13269 7.65984H4.95599H4.94511ZM7.70962 8.53751H5.36819V10.9574H6.46819V10.9586C6.54313 10.9586 6.61929 10.9799 6.68819 11.0226C6.88764 11.1479 6.95049 11.4175 6.82841 11.6231L5.74775 13.46H6.42467L7.70962 11.2746V8.53751ZM12.6088 3.09221C11.2671 2.58944 10.0474 1.91739 8.9994 1.01465C7.95016 1.91865 6.7317 2.58944 5.38994 3.09221C4.03972 3.5975 2.56621 3.93227 1.01653 4.15921C0.554776 8.70427 1.01533 12.3579 2.35588 15.1601C3.69401 17.9586 5.92423 19.9234 8.9994 21.0944C12.0734 19.9221 14.3036 17.9586 15.6417 15.1601C16.9823 12.3566 17.444 8.70302 16.981 4.15921C15.4326 3.93101 13.9591 3.5975 12.6088 3.09221Z" fill="#333130"/>
</svg>
