<svg width="210" height="85" viewBox="0 0 210 85" fill="none" xmlns="http://www.w3.org/2000/svg">
<path d="M41.9917 34.2524C41.9917 29.0296 39.1847 24.154 34.6564 21.5501L34.1062 21.2317L32.6743 20.4068L23.9938 15.388L22.5481 14.5621L5.99701 5V15.0258L13.8666 19.568L15.3133 20.4068L23.9938 25.4127L25.4406 26.2515L30.3172 29.0585C32.1679 30.1291 33.3102 32.1112 33.3102 34.2524V35.7281C33.3102 37.8693 32.1679 39.8504 30.3172 40.922L25.4406 43.728L23.9938 44.5678L15.3133 49.5727L13.8666 50.4115L5.99701 54.9547V64.9805L22.5481 55.4174L23.9938 54.5925L32.6743 49.5727L34.1062 48.7478L34.6564 48.4304C39.1847 45.8255 41.9917 40.9499 41.9917 35.7281" fill="black"/>
<path d="M40.9807 53.8494C40.9807 58.5996 38.4285 63.0344 34.3092 65.4025L32.5062 66.4423L24.6118 71.0084L8.24176 80.4571V71.3378L16.7153 66.4423L24.6118 61.8891L30.3619 58.5737C32.0465 57.5996 33.0853 55.7966 33.0853 53.8494V52.5071C33.0853 50.5599 32.0465 48.7569 30.3619 47.7828L24.6118 44.4664L16.7153 39.9142L8.24176 35.0187V25.8994L24.6118 35.3481L32.5062 39.9142L34.3092 40.954C38.4285 43.3221 40.9807 47.7569 40.9807 52.5071" fill="#F44D03"/>
<path d="M11.8666 48.869L5.91641 52.5316L5 17.2812L11.8666 20.9439V48.869Z" fill="black"/>
<path d="M59.3209 58.6125C58.8721 58.6125 58.5219 58.4931 58.2661 58.2533C58.0094 58.0135 57.8821 57.7339 57.8821 57.4145V24.7621C57.8821 24.4427 58.0094 24.1621 58.2661 23.9233C58.5219 23.6835 58.8721 23.5631 59.3209 23.5631H67.8073C69.6929 23.5631 71.3954 23.8994 72.9148 24.5701C74.4322 25.2417 75.6302 26.3283 76.5098 27.8307C77.3893 29.3332 77.8281 31.3312 77.8281 33.8237V48.3519C77.8281 50.8454 77.3893 52.8434 76.5098 54.3459C75.6302 55.8484 74.4322 56.9349 72.9148 57.6066C71.3954 58.2772 69.6929 58.6125 67.8073 58.6125H59.3209ZM61.0472 55.6882H67.8073C69.9486 55.6882 71.6272 55.0882 72.8421 53.8902C74.056 52.6912 74.665 50.8454 74.665 48.3519V33.8237C74.665 31.3312 74.056 29.4854 72.8421 28.2864C71.6272 27.0874 69.9655 26.4885 67.8561 26.4885H61.0472V55.6882Z" fill="#333130"/>
<path d="M92.3096 58.9488C90.6788 58.9488 89.1683 58.5259 87.7783 57.6782C86.3883 56.8314 85.2768 55.712 84.446 54.322C83.6142 52.931 83.1992 51.4375 83.1992 49.8385V44.6604C83.1992 43.0624 83.6072 41.5759 84.4211 40.2017C85.237 38.8276 86.3395 37.7252 87.7295 36.8933C89.1206 36.0625 90.6469 35.6466 92.3096 35.6466C93.9394 35.6466 95.4499 36.0535 96.8409 36.8694C98.2309 37.6844 99.3404 38.7709 100.172 40.1301C101.003 41.4883 101.419 42.9987 101.419 44.6604V49.8385C101.419 51.4056 101.003 52.8922 100.172 54.2981C99.3404 55.7051 98.2309 56.8314 96.8409 57.6782C95.4499 58.5259 93.9394 58.9488 92.3096 58.9488ZM92.3096 56.0722C93.428 56.0722 94.4349 55.7767 95.3295 55.1847C96.225 54.5936 96.9434 53.8185 97.4876 52.8593C98.0309 51.9011 98.3026 50.8932 98.3026 49.8385V44.6604C98.3026 43.6057 98.0389 42.6157 97.5115 41.6873C96.9842 40.7609 96.2648 40.0027 95.3543 39.4097C94.4429 38.8197 93.428 38.5232 92.3096 38.5232C91.1902 38.5232 90.1823 38.8197 89.2887 39.4097C88.3922 40.0027 87.6738 40.7609 87.1305 41.6873C86.5873 42.6157 86.3166 43.6057 86.3166 44.6604V49.8385C86.3166 50.8932 86.5793 51.9011 87.1067 52.8593C87.634 53.8185 88.3604 54.5936 89.2887 55.1847C90.2161 55.7767 91.222 56.0722 92.3096 56.0722Z" fill="#333130"/>
<path d="M108.131 58.6135C107.715 58.6135 107.356 58.4861 107.052 58.2294C106.747 57.9747 106.597 57.6871 106.597 57.3667V23.2278C106.597 22.8447 106.747 22.5492 107.052 22.3412C107.356 22.1333 107.715 22.0298 108.131 22.0298C108.578 22.0298 108.953 22.1333 109.258 22.3412C109.561 22.5492 109.713 22.8447 109.713 23.2278V46.531L121.413 36.1262C121.669 35.9341 121.908 35.8386 122.132 35.8386C122.388 35.8386 122.636 35.9102 122.875 36.0545C123.115 36.1978 123.314 36.3739 123.475 36.5819C123.635 36.7898 123.715 37.0366 123.715 37.3242C123.715 37.4854 123.691 37.6366 123.644 37.7809C123.595 37.9242 123.506 38.0605 123.379 38.1878L116.331 44.4206L124.626 56.5041C124.753 56.6951 124.817 56.92 124.817 57.1747C124.817 57.3986 124.737 57.6394 124.578 57.8941C124.418 58.1508 124.202 58.3578 123.931 58.518C123.66 58.6772 123.395 58.7578 123.139 58.7578C122.756 58.7578 122.436 58.5657 122.181 58.1817L114.125 46.3868L109.713 50.2225V57.3667C109.713 57.6871 109.561 57.9747 109.258 58.2294C108.953 58.4861 108.579 58.6135 108.131 58.6135Z" fill="#333130"/>
<path d="M132.589 58.8662C132.372 58.8662 132.21 58.8175 132.101 58.721C131.993 58.6244 131.889 58.4563 131.794 58.2155L126.151 42.8425C126.127 42.7709 126.096 42.6803 126.061 42.5719C126.024 42.4634 126.006 42.3858 126.006 42.3371C126.006 42.1679 126.054 42.0236 126.151 41.9032C126.248 41.7828 126.374 41.6853 126.531 41.6137C126.687 41.541 126.85 41.5052 127.019 41.5052C127.164 41.5052 127.308 41.541 127.454 41.6137C127.599 41.6853 127.694 41.7938 127.743 41.939L132.626 55.5031L136.568 43.0604C136.616 42.8674 136.713 42.7291 136.857 42.6445C137.003 42.5599 137.17 42.5171 137.364 42.5171C137.556 42.5171 137.719 42.5599 137.851 42.6445C137.985 42.7291 138.086 42.8674 138.16 43.0604L141.957 55.6832L146.949 41.939C147.021 41.6495 147.25 41.5052 147.635 41.5052C147.781 41.5052 147.931 41.5351 148.088 41.5958C148.244 41.6555 148.371 41.746 148.468 41.8664C148.564 41.9878 148.614 42.1321 148.614 42.3002C148.614 42.3729 148.601 42.4694 148.577 42.5898C148.553 42.7112 148.516 42.7948 148.469 42.8425L142.827 58.3598C142.754 58.5538 142.65 58.6851 142.519 58.7578C142.386 58.8304 142.247 58.8662 142.102 58.8662C141.909 58.8662 141.759 58.8304 141.65 58.7578C141.542 58.6851 141.451 58.5648 141.38 58.3956L137.365 45.6644L133.386 58.2155C133.314 58.4324 133.211 58.5956 133.078 58.7031C132.945 58.8115 132.783 58.8662 132.589 58.8662Z" fill="#333130"/>
<path d="M155.448 58.8314C154.05 58.8314 152.868 58.4394 151.903 57.6553C150.938 56.8722 150.457 55.6722 150.457 54.0563C150.457 52.7787 150.812 51.7897 151.523 51.0902C152.234 50.3917 153.223 49.9031 154.489 49.6255C155.755 49.3489 157.219 49.2096 158.883 49.2096H160.836V48.2683C160.836 47.4246 160.686 46.5927 160.385 45.7728C160.083 44.9529 159.601 44.2783 158.938 43.747C158.274 43.2166 157.388 42.952 156.279 42.952C155.508 42.952 154.874 43.0296 154.381 43.1858C153.886 43.344 153.489 43.5122 153.188 43.6933C152.885 43.8734 152.65 43.9639 152.482 43.9639C152.241 43.9639 152.047 43.8495 151.903 43.6206C151.759 43.3918 151.686 43.1808 151.686 42.9878C151.686 42.6982 151.921 42.4266 152.392 42.1739C152.862 41.9201 153.458 41.7162 154.182 41.5589C154.906 41.4017 155.628 41.3231 156.353 41.3231C157.92 41.3231 159.156 41.6555 160.06 42.3181C160.965 42.9818 161.615 43.8375 162.013 44.8863C162.411 45.935 162.61 47.0624 162.61 48.2683V57.8533C162.61 58.0463 162.533 58.2215 162.376 58.3777C162.219 58.5349 162.008 58.6125 161.743 58.6125C161.502 58.6125 161.297 58.5349 161.128 58.3777C160.959 58.2215 160.875 58.0463 160.875 57.8533V56.0812C160.272 56.7807 159.519 57.4135 158.614 57.9797C157.709 58.5468 156.654 58.8314 155.448 58.8314ZM155.702 57.2394C156.546 57.2394 157.36 57.0284 158.143 56.6066C158.926 56.1847 159.573 55.6663 160.078 55.0514C160.585 54.4364 160.837 53.8633 160.837 53.333V50.6564H159.066C157.884 50.6564 156.775 50.723 155.738 50.8554C154.701 50.9887 153.857 51.2902 153.206 51.7598C152.555 52.2295 152.229 52.9708 152.229 53.9847C152.229 55.118 152.568 55.9439 153.243 56.4613C153.917 56.9797 154.737 57.2394 155.702 57.2394Z" fill="#333130"/>
<path d="M168.362 58.6135C168.121 58.6135 167.915 58.5349 167.747 58.3787C167.577 58.2215 167.494 58.0473 167.494 57.8543V31.6665C167.494 31.4267 167.577 31.2396 167.747 31.1063C167.915 30.974 168.121 30.9073 168.362 30.9073C168.627 30.9073 168.843 30.974 169.012 31.1063C169.18 31.2396 169.265 31.4267 169.265 31.6665V57.8543C169.265 58.0473 169.18 58.2215 169.012 58.3787C168.843 58.5349 168.626 58.6135 168.362 58.6135Z" fill="#333130"/>
<path d="M175.523 58.6135C175.282 58.6135 175.076 58.5349 174.908 58.3787C174.739 58.2215 174.655 58.0473 174.655 57.8543V31.6665C174.655 31.4267 174.739 31.2396 174.908 31.1063C175.076 30.974 175.282 30.9073 175.523 30.9073C175.788 30.9073 176.004 30.974 176.173 31.1063C176.342 31.2396 176.426 31.4267 176.426 31.6665V57.8543C176.426 58.0473 176.342 58.2215 176.173 58.3787C176.004 58.5349 175.787 58.6135 175.523 58.6135Z" fill="#333130"/>
<path d="M188.398 58.8304C186.927 58.8304 185.632 58.5538 184.511 57.9986C183.389 57.4444 182.502 56.6663 181.852 55.6653C181.201 54.6653 180.876 53.4892 180.876 52.1389V47.8345C180.876 46.6534 181.183 45.5679 181.798 44.5798C182.413 43.5908 183.221 42.8017 184.222 42.2097C185.222 41.6196 186.326 41.3241 187.532 41.3241C188.713 41.3241 189.797 41.6077 190.786 42.1739C191.774 42.741 192.577 43.5122 193.191 44.4883C193.806 45.4654 194.115 46.5927 194.115 47.8703C194.115 48.7629 193.963 49.4076 193.662 49.8056C193.36 50.2036 192.98 50.4454 192.523 50.529C192.064 50.6146 191.569 50.6564 191.04 50.6564H182.648V52.1748C182.648 53.718 183.202 54.9419 184.312 55.8464C185.42 56.7508 186.807 57.2026 188.472 57.2026C189.46 57.2026 190.22 57.0822 190.75 56.8414C191.28 56.6006 191.691 56.3588 191.979 56.117C192.269 55.8772 192.534 55.7558 192.775 55.7558C192.944 55.7558 193.088 55.8046 193.21 55.9001C193.33 55.9966 193.427 56.112 193.5 56.2444C193.571 56.3767 193.607 56.5041 193.607 56.6235C193.607 56.8653 193.396 57.1668 192.974 57.5279C192.551 57.8901 191.955 58.1976 191.183 58.4503C190.412 58.7041 189.484 58.8304 188.398 58.8304ZM190.351 49.1728C191.171 49.1728 191.714 49.0892 191.979 48.9201C192.245 48.7519 192.377 48.4017 192.377 47.8703C192.377 47.0514 192.178 46.2614 191.78 45.5022C191.382 44.742 190.815 44.1211 190.08 43.6385C189.343 43.1569 188.494 42.9151 187.53 42.9151C186.612 42.9151 185.787 43.1331 185.052 43.5669C184.317 44.0007 183.732 44.5798 183.298 45.3032C182.863 46.0256 182.647 46.8216 182.647 47.6902V49.1728H190.351Z" fill="#333130"/>
<path d="M203.228 58.6135C201.443 58.6135 200.082 58.2036 199.141 57.3837C198.201 56.5638 197.73 55.2623 197.73 53.4772V34.0177C197.73 33.7779 197.827 33.5909 198.02 33.4575C198.212 33.3252 198.406 33.2585 198.598 33.2585C198.839 33.2585 199.051 33.3252 199.232 33.4575C199.413 33.5909 199.503 33.7779 199.503 34.0177V41.541H204.313C204.505 41.541 204.669 41.6137 204.801 41.7589C204.933 41.9032 205 42.0963 205 42.3371C205 42.5301 204.933 42.7052 204.801 42.8614C204.669 43.0186 204.505 43.0962 204.313 43.0962H199.503V53.4772C199.503 54.732 199.785 55.6245 200.352 56.1538C200.918 56.6852 201.877 56.9498 203.228 56.9498H204.132C204.397 56.9498 204.603 57.0284 204.746 57.1847C204.892 57.3419 204.964 57.5409 204.964 57.7817C204.964 57.9986 204.892 58.1916 204.746 58.3608C204.602 58.5299 204.396 58.6135 204.132 58.6135H203.228Z" fill="#333130"/>
</svg>
