<svg width="22" height="18" viewBox="0 0 22 18" fill="none" xmlns="http://www.w3.org/2000/svg">
<path d="M2 0C0.89543 0 0 0.89543 0 2H2V0ZM20 0H2V2H20V0ZM22 2C22 0.89543 21.1046 0 20 0V2H22ZM20 4C21.1046 4 22 3.10457 22 2H20V4ZM2 4H20V2H2V4ZM0 2C0 3.10457 0.89543 4 2 4V2H0ZM2 7C0.89543 7 0 7.89543 0 9H2V7ZM20 7H2V9H20V7ZM22 9C22 7.89543 21.1046 7 20 7V9H22ZM20 11C21.1046 11 22 10.1046 22 9H20V11ZM2 11H20V9H2V11ZM0 9C0 10.1046 0.89543 11 2 11V9H0ZM2 14C0.89543 14 0 14.8954 0 16H2V14ZM20 14H2V16H20V14ZM22 16C22 14.8954 21.1046 14 20 14V16H22ZM20 18C21.1046 18 22 17.1046 22 16H20V18ZM2 18H20V16H2V18ZM0 16C0 17.1046 0.89543 18 2 18V16H0Z" fill="black"/>
</svg>
