<svg width="25" height="26" viewBox="0 0 25 26" fill="none" xmlns="http://www.w3.org/2000/svg">
<path d="M5.86621 23.2733C5.78144 23.187 5.66035 23.1308 5.5258 23.1308C5.3926 23.1308 5.27286 23.1842 5.18675 23.2733H5.1854C5.10064 23.3596 5.04682 23.4815 5.04682 23.6199C5.04682 23.7556 5.10064 23.8775 5.18675 23.9652C5.27286 24.0529 5.39395 24.1077 5.5258 24.1077C5.66035 24.1077 5.7801 24.0542 5.86621 23.9652V23.9624C5.95232 23.8761 6.00614 23.7528 6.00614 23.6172C6.00748 23.4857 5.95232 23.3623 5.86621 23.2733ZM5.52446 22.1731C5.91464 22.1731 6.26985 22.3334 6.52817 22.5979L6.52952 22.6006C6.7865 22.8609 6.94661 23.2253 6.94661 23.6227C6.94661 24.0213 6.7865 24.3844 6.52952 24.6461H6.52817C6.26985 24.9078 5.91464 25.0722 5.52311 25.0722C5.13024 25.0722 4.77504 24.9092 4.51671 24.6461C4.25973 24.3844 4.09962 24.0213 4.09962 23.6227C4.09962 23.224 4.25972 22.8609 4.51805 22.5992L4.51671 22.5979C4.77638 22.3348 5.13293 22.1731 5.52446 22.1731ZM16.3877 23.2733C16.3029 23.187 16.1819 23.1308 16.0487 23.1308C15.9155 23.1308 15.7957 23.1842 15.7096 23.2733H15.7082C15.6235 23.3596 15.5683 23.4815 15.5683 23.6199C15.5683 23.7556 15.6235 23.8775 15.7082 23.9652C15.793 24.0529 15.9141 24.1077 16.0473 24.1077C16.1832 24.1077 16.3003 24.0542 16.3864 23.9652V23.9624C16.4711 23.8761 16.5263 23.7528 16.5263 23.6172C16.5263 23.4802 16.4711 23.3582 16.3864 23.2692L16.3877 23.2733ZM16.0487 22.1731C16.4388 22.1731 16.794 22.3334 17.0524 22.5979L17.0537 22.6006C17.3107 22.8609 17.4721 23.2253 17.4721 23.6227C17.4721 24.0213 17.312 24.3844 17.0537 24.6461H17.0524C16.794 24.9078 16.4388 25.0722 16.0473 25.0722C15.6544 25.0722 15.2979 24.9092 15.0409 24.6461C14.7839 24.383 14.6225 24.0213 14.6225 23.6227C14.6225 23.224 14.7826 22.8609 15.0409 22.5992V22.5979C15.3019 22.3348 15.6571 22.1731 16.0487 22.1731ZM14.5162 2.65793C13.4856 1.60983 12.0621 0.959045 10.4852 0.959045C8.91098 0.959045 7.48614 1.60983 6.45552 2.65793C5.4249 3.7074 4.78715 5.15966 4.78715 6.76127C4.78715 8.36425 5.4249 9.81515 6.45552 10.8646C7.48614 11.9141 8.91098 12.5635 10.4852 12.5635C12.0594 12.5635 13.4842 11.9127 14.5162 10.8646C15.5481 9.81378 16.1845 8.36425 16.1845 6.76127C16.1845 5.16103 15.5468 3.70877 14.5162 2.65793ZM4.81271 10.2769H1.1544C1.10058 10.2769 1.05753 10.2837 1.02659 10.296C0.998332 10.307 0.976804 10.3248 0.963349 10.344C0.948549 10.3673 0.940479 10.4043 0.940479 10.4522C0.940479 10.5098 0.952587 10.5755 0.979496 10.6454L3.587 17.4985C3.65965 17.6903 3.81034 17.8698 3.99198 18.0013C4.16554 18.1301 4.36333 18.2082 4.53958 18.2082H17.5757L20.1092 10.2755H16.1603C15.8845 10.7372 15.5549 11.1619 15.1808 11.5414C13.9766 12.7663 12.319 13.5225 10.4852 13.5225C8.65265 13.5225 6.9937 12.7635 5.79221 11.5414H5.79086C5.41952 11.1633 5.08988 10.7386 4.81271 10.2769ZM9.3792 6.15022C9.30655 6.40368 9.04553 6.54891 8.79662 6.47356C8.54771 6.39957 8.40509 6.13378 8.47909 5.88032L9.00247 4.07731C9.06167 3.86906 9.25004 3.73343 9.45321 3.73343V3.73206H11.2696C11.8764 3.73206 12.428 3.98689 12.829 4.39243L12.8303 4.3938V4.39243C13.2299 4.79934 13.4788 5.36243 13.4788 5.9817C13.4788 6.5996 13.2299 7.16407 12.8303 7.57098C12.4307 7.97926 11.8777 8.23135 11.2696 8.23135H8.77106L8.41586 9.4466C8.34186 9.70006 8.07949 9.84392 7.83058 9.76856C7.58167 9.69184 7.44039 9.42605 7.51439 9.17258L7.96243 7.64496C8.00952 7.43123 8.19654 7.27231 8.42123 7.27231H11.2696C11.618 7.27231 11.9356 7.12708 12.1657 6.8928C12.3944 6.65852 12.5383 6.33655 12.5383 5.9817C12.5383 5.62686 12.3957 5.30489 12.1657 5.07061V5.06924C11.9369 4.83633 11.618 4.6911 11.2696 4.6911H9.80302L9.3792 6.15022ZM17.2676 19.1686H4.53958C4.16555 19.1686 3.77267 19.0192 3.44438 18.7781C3.12282 18.5411 2.85237 18.2095 2.71245 17.841L0.104945 10.9893C0.0336353 10.8016 0 10.6194 0 10.4509C0 10.2166 0.0632344 10.0015 0.181635 9.81926L0.18029 9.81789C0.300036 9.63156 0.473602 9.48907 0.691567 9.40276C0.83284 9.34658 0.991604 9.31644 1.15844 9.31644H4.34045C4.02427 8.52865 3.84936 7.66551 3.84936 6.76127C3.84936 4.89524 4.5934 3.20321 5.7949 1.98112H5.79624C6.99908 0.757647 8.65669 0 10.4892 0C12.3217 0 13.9807 0.757647 15.1835 1.98112C16.3864 3.20458 17.1291 4.89524 17.1291 6.76127C17.1291 7.66551 16.9541 8.52865 16.6393 9.31644H20.4187L20.8049 8.10804C20.9246 7.73265 21.1856 7.39424 21.5031 7.15448C21.8274 6.90924 22.2216 6.75716 22.5997 6.75716H24.5291C24.7888 6.75716 25 6.97226 25 7.23805C25 7.50111 24.7901 7.71758 24.5291 7.71758H22.5997C22.4234 7.71758 22.2297 7.79704 22.0615 7.92446C21.8933 8.05187 21.7561 8.22313 21.6982 8.40535L17.8637 20.4016L17.8543 20.4304C17.7305 20.799 17.4748 21.1237 17.1667 21.3566C16.8425 21.6046 16.4469 21.7553 16.0688 21.7553H4.40907C4.1494 21.7553 3.93816 21.5402 3.93816 21.2744C3.93816 21.0086 4.1494 20.7948 4.40907 20.7948H16.0688C16.2424 20.7948 16.4375 20.7126 16.6057 20.5866C16.7698 20.4633 16.903 20.2975 16.9636 20.1208L16.9703 20.1043L17.2676 19.1686Z" />
</svg>
