<svg width="25" height="26" viewBox="0 0 25 26" fill="none" xmlns="http://www.w3.org/2000/svg">
<path d="M6.04134 1.60607L1.70009 5.71305H5.14648C5.39155 5.71305 5.61562 5.61438 5.77806 5.45542C5.93911 5.29646 6.04134 5.0772 6.04134 4.83602V1.60607ZM4.68435 13.8695C4.41407 13.8695 4.19421 13.6543 4.19421 13.3898C4.19421 13.1254 4.41407 12.9102 4.68435 12.9102H15.2168C15.4871 12.9102 15.7069 13.1254 15.7069 13.3898C15.7069 13.6543 15.4871 13.8695 15.2168 13.8695H4.68435ZM4.68435 10.5038C4.41407 10.5038 4.19421 10.2887 4.19421 10.0242C4.19421 9.75974 4.41407 9.54459 4.68435 9.54459H15.2168C15.4871 9.54459 15.7069 9.75974 15.7069 10.0242C15.7069 10.2887 15.4871 10.5038 15.2168 10.5038H4.68435ZM4.68435 17.2323C4.41407 17.2323 4.19421 17.0172 4.19421 16.7527C4.19421 16.4882 4.41407 16.2731 4.68435 16.2731H10.5058C10.7761 16.2731 10.996 16.4882 10.996 16.7527C10.996 17.0172 10.7761 17.2323 10.5058 17.2323H4.68435ZM14.6902 20.5294L13.5041 19.3687L13.0195 21.0036L14.6902 20.5294ZM13.9592 18.4574L15.6215 20.0841L23.678 12.199C23.9063 11.9756 24.0211 11.681 24.0211 11.3864C24.0211 11.0917 23.9063 10.7957 23.678 10.5724C23.4498 10.349 23.1487 10.238 22.8476 10.238C22.5465 10.238 22.244 10.3504 22.0171 10.5724L13.9592 18.4574ZM12.7843 18.3656C12.8025 18.2752 12.8459 18.1875 12.9187 18.1176L21.3225 9.89403C21.7427 9.48292 22.2944 9.27737 22.8462 9.27737C23.3979 9.27737 23.9511 9.48292 24.3698 9.89403C24.7885 10.3038 25 10.8451 25 11.385C25 11.9249 24.7899 12.4662 24.3698 12.8759L15.966 21.0995L15.9632 21.1022L15.9604 21.105L15.9576 21.1064L15.9562 21.1077L15.9534 21.1105L15.9492 21.1132V21.1146L15.9464 21.1159L15.9436 21.1187L15.9408 21.1214L15.938 21.1242L15.9338 21.1269L15.9324 21.1283H15.931L15.9282 21.131L15.9254 21.1338L15.924 21.1351L15.9212 21.1365L15.9184 21.1392L15.9142 21.142L15.9114 21.1447L15.9072 21.1475L15.9058 21.1488H15.9044L15.9016 21.1516L15.8974 21.1543L15.8946 21.1557L15.8904 21.1571L15.8876 21.1598L15.8834 21.1612L15.8792 21.1639L15.8764 21.1653H15.875L15.8722 21.168L15.868 21.1694L15.8652 21.1708L15.861 21.1721L15.8582 21.1735L15.8442 21.1886L15.8414 21.1899L15.8386 21.1913H15.8372L15.833 21.1927L15.8288 21.1941H15.8274H15.8246L15.8204 21.1954L15.8162 21.2023L15.812 21.2037L15.8077 21.205L15.8063 21.2064H15.8049L15.8007 21.2078L15.7979 21.2091H15.7965L15.7937 21.2105L15.7895 21.2119L15.7853 21.2132L15.7811 21.2146L15.7769 21.216H15.7741H15.7727L15.7685 21.2174L15.7643 21.2187H15.7615L15.7573 21.2201H15.7545L15.7503 21.2215L15.7461 21.2228H15.7433H15.7419L15.7377 21.2242H15.7335H15.7321H15.7293H15.7251H15.7223H15.7209L12.4468 22.1547C12.1877 22.2273 11.9174 22.0821 11.8418 21.8285C11.8152 21.7381 11.8166 21.6463 11.8418 21.5627V21.5613V21.5599L12.7843 18.3656ZM4.68435 20.598C4.41407 20.598 4.19421 20.3828 4.19421 20.1183C4.19421 19.8538 4.41407 19.6387 4.68435 19.6387H10.5058C10.7761 19.6387 10.996 19.8538 10.996 20.1183C10.996 20.3828 10.7761 20.598 10.5058 20.598H4.68435ZM18.9222 20.3472C18.9222 20.0827 19.1421 19.8675 19.4124 19.8675C19.6827 19.8675 19.9025 20.0827 19.9025 20.3472V23.2373C19.9025 23.7416 19.6911 24.2006 19.3522 24.5323C19.0119 24.8653 18.5427 25.0722 18.0274 25.0722H16.8356H1.87514C1.35979 25.0722 0.890659 24.8653 0.550361 24.5323C0.211463 24.2006 0 23.7416 0 23.2373V6.20501V6.19268C0 6.04468 0.0700178 5.91038 0.179249 5.82268L6.19258 0.132926L6.20239 0.124703L6.2444 0.0918137L6.2486 0.0890744L6.25 0.0877022L6.2584 0.0822212H6.2598C6.32702 0.0369991 6.40264 0.0109633 6.47966 0.00411145H6.48106L6.53008 0.00136961V0H18.0246C18.5385 0 19.0077 0.206926 19.348 0.541295V0.539922C19.6883 0.872921 19.8997 1.33199 19.8997 1.83629V9.14856C19.8997 9.41304 19.6799 9.62818 19.4096 9.62818C19.1393 9.62818 18.9194 9.41304 18.9194 9.14856V1.83629C18.9194 1.59648 18.8186 1.37722 18.6562 1.21825L18.6576 1.21688H18.6562C18.4951 1.05929 18.2711 0.960626 18.0246 0.960626H7.02162V4.8415C7.02162 5.34442 6.81016 5.80349 6.47126 6.13512L6.46986 6.13649H6.47126C6.13236 6.46812 5.66183 6.67505 5.14648 6.67505H0.978884V23.24C0.978884 23.4798 1.07971 23.6991 1.24216 23.858C1.40461 24.017 1.62867 24.1157 1.87374 24.1157H16.8356H18.0274C18.2725 24.1157 18.4965 24.017 18.659 23.858C18.8214 23.6991 18.9222 23.4798 18.9222 23.24V20.3472Z" fill="#666261"/>
</svg>
