<svg width="26" height="26" viewBox="0 0 26 26" fill="none" xmlns="http://www.w3.org/2000/svg">
<path d="M5.41465 7.05273L7.09794 7.64027L8.77978 7.05273L7.09794 4.54L5.41465 7.05273ZM8.31013 8.25724L7.26454 8.62183C7.15108 8.66249 7.03187 8.65828 6.92702 8.62183L5.88143 8.25724L7.09506 10.0689L8.31013 8.25724ZM15.4985 16.3774C15.421 16.6368 15.1409 16.7854 14.8752 16.7083C14.6095 16.6326 14.4573 16.3606 14.5363 16.1012L15.3133 13.5379C15.3779 13.3262 15.5775 13.1874 15.7944 13.1874V13.1846H18.4874C19.3348 13.1846 20.1046 13.5225 20.6633 14.068L20.6935 14.0988C21.2335 14.6429 21.5681 15.3804 21.5681 16.1909C21.5681 17.0182 21.2206 17.7712 20.6633 18.3152C20.1046 18.8607 19.3333 19.2001 18.4874 19.2001H14.6368L14.068 21.0636C13.9891 21.323 13.709 21.4688 13.4433 21.3917C13.1776 21.3146 13.0268 21.0411 13.1058 20.7817L13.7722 18.5971C13.8239 18.3797 14.0235 18.2171 14.2619 18.2171H18.4859C19.0547 18.2171 19.5746 17.9885 19.9509 17.6212C20.3272 17.2538 20.5613 16.7476 20.5613 16.1895C20.5613 15.6441 20.3387 15.1477 19.9768 14.7845L19.9509 14.7592C19.5746 14.3919 19.0561 14.1633 18.4859 14.1633H16.1678L15.4985 16.3774ZM22.3624 11.6295C20.9462 10.247 18.9886 9.39024 16.8271 9.39024C14.6655 9.39024 12.7065 10.2456 11.2918 11.6295C9.87564 13.0107 8.99953 14.9233 8.99953 17.0336C8.99953 19.1454 9.87564 21.0552 11.2918 22.4377V22.4391V22.4405C12.7065 23.8217 14.6655 24.677 16.8271 24.677C18.9786 24.677 20.9261 23.8301 22.338 22.4643L22.3624 22.4377C23.7785 21.0552 24.6561 19.1439 24.6561 17.0336C24.6561 14.9345 23.79 13.0317 22.3897 11.6534L22.3624 11.6295ZM12.8228 9.34394C12.932 9.05088 13.0196 8.74663 13.0813 8.43534C13.1517 8.07357 13.1891 7.69638 13.1891 7.30516C13.1891 5.66178 12.5083 4.17541 11.4067 3.09992L11.4052 3.09855C10.3036 2.02306 8.77978 1.35842 7.0965 1.35842C5.41322 1.35842 3.89079 2.02447 2.78776 3.09855C1.68615 4.17545 1.00394 5.66178 1.00394 7.30516C1.00394 8.94855 1.68615 10.4349 2.78776 11.5118C3.88936 12.5873 5.41322 13.2533 7.0965 13.2533C7.47567 13.2533 7.83904 13.2211 8.1823 13.1622C8.47817 13.1103 8.76686 13.036 9.04836 12.9434C9.45769 12.2031 9.97617 11.5258 10.5808 10.9355C11.2343 10.296 11.9898 9.75899 12.8228 9.34394ZM8.51982 14.0918L8.35896 14.1213C7.94102 14.1942 7.51876 14.2334 7.0965 14.2334C5.13746 14.2334 3.36226 13.4566 2.07825 12.203C0.794246 10.9495 0 9.21636 0 7.30375C0 5.39255 0.794246 3.65941 2.07825 2.40584L2.07969 2.40443C3.36369 1.15086 5.13746 0.375452 7.0965 0.375452C9.05411 0.375452 10.8279 1.15087 12.1133 2.40584L12.1147 2.40725C13.3988 3.66222 14.193 5.39255 14.193 7.30375C14.193 7.74825 14.1485 8.18851 14.0652 8.61759C14.0494 8.69751 14.0321 8.77605 14.0135 8.85457C14.8968 8.56572 15.8433 8.40868 16.8256 8.40868C19.2644 8.40868 21.4733 9.3734 23.0719 10.9355L23.1006 10.9649C24.6834 12.5241 25.66 14.6695 25.66 17.0336C25.66 19.4146 24.6704 21.5712 23.0719 23.1332L23.0417 23.1613C21.4461 24.7065 19.2486 25.66 16.8256 25.66C14.3883 25.66 12.1794 24.6939 10.5808 23.1318L10.5794 23.1332C8.98086 21.5726 7.99128 19.416 7.99128 17.0336C7.99272 16.0002 8.17943 15.0103 8.51982 14.0918ZM4.09187 17.896C3.89511 17.7039 3.89511 17.394 4.09187 17.2019C4.28864 17.0098 4.60605 17.0098 4.80281 17.2019L7.09363 19.4384C7.29039 19.6305 7.29039 19.9404 7.09363 20.1325L4.80281 22.369C4.60605 22.5611 4.28864 22.5611 4.09187 22.369C3.89511 22.1783 3.89511 21.8684 4.09187 21.6763L5.52381 20.2769H5.20353C3.79457 20.2769 2.512 19.7147 1.58275 18.8074C0.653494 17.9002 0.0775586 16.6494 0.0775586 15.2724V14.3077C0.0775586 14.0371 0.30305 13.817 0.580246 13.817C0.857442 13.817 1.08293 14.0357 1.08293 14.3077V15.2724C1.08293 16.3788 1.54684 17.3842 2.29369 18.1119C3.04054 18.8425 4.07033 19.294 5.20209 19.294H5.52237L4.09187 17.896ZM18.6008 4.61852C18.7976 4.81062 18.7976 5.1205 18.6008 5.3126C18.4041 5.5033 18.0867 5.5033 17.8899 5.3126L15.5991 3.07472C15.4023 2.88262 15.4023 2.57269 15.5991 2.38059L17.8899 0.144076C18.0867 -0.0480255 18.4041 -0.0480255 18.6008 0.144076C18.7976 0.336178 18.7976 0.646101 18.6008 0.838203L17.1675 2.23758H17.4878C18.8967 2.23758 20.1793 2.79987 21.1085 3.7071C22.0364 4.61292 22.6137 5.86508 22.6137 7.24205V8.20538C22.6137 8.476 22.3882 8.69752 22.111 8.69752C21.8338 8.69752 21.6083 8.4774 21.6083 8.20538V7.24205C21.6083 6.13571 21.1444 5.13033 20.3976 4.40118C19.6507 3.67203 18.621 3.21914 17.4878 3.21914H17.1675L18.6008 4.61852ZM7.51732 3.37478L7.51875 3.37756L7.52163 3.38179L9.95751 7.02051L9.96469 7.03031L9.98336 7.05975V7.06116L9.98623 7.06818L9.9891 7.07238L10.0078 7.11025L10.0106 7.11585V7.11863L10.015 7.12706V7.12848L10.0164 7.13549L10.0178 7.1411V7.14388L10.0207 7.15231L10.0308 7.18877L10.0322 7.19579L10.0336 7.19998L10.0365 7.2126L10.0379 7.2224V7.22523L10.0422 7.25608V7.26027V7.26588C10.0451 7.30374 10.0437 7.34159 10.0379 7.37945V7.38086L10.0279 7.42575V7.42994L10.0236 7.44676V7.44959L10.0221 7.45519L10.0207 7.46221L10.0193 7.46499L10.0164 7.47342L10.0135 7.48044V7.48322L10.0121 7.49024L10.0049 7.50564L10.002 7.51407L10.0006 7.5169L9.9891 7.53791V7.53932L9.9848 7.54634L9.98336 7.54912L9.98048 7.55336L9.97761 7.56033V7.56174L9.96756 7.57719L9.96612 7.57997L9.96038 7.58981L7.51732 11.2397C7.36651 11.4655 7.05342 11.5286 6.82218 11.3813C6.76186 11.3435 6.71302 11.2944 6.67568 11.2397L6.67424 11.2369L6.67281 11.2327L4.23406 7.58981L4.22688 7.57997L4.22544 7.57719L4.22113 7.57017V7.56876L4.21682 7.56033L4.21252 7.55194L4.21108 7.54912L4.20964 7.54493L4.20677 7.53932L4.20533 7.5365L4.20103 7.52811L4.19672 7.51968L4.19528 7.5169L4.19241 7.51129L4.19097 7.50564L4.18953 7.50286L4.18666 7.49584V7.49306L4.18379 7.48463V7.48322L4.18092 7.4762L4.17948 7.47342L4.17805 7.46781L4.17517 7.46221V7.45938L4.17374 7.44959L4.1723 7.44116L4.17087 7.43837L4.16943 7.43277L4.16799 7.42575V7.42293L4.16656 7.41454V7.41313L4.16368 7.39768L4.16225 7.39066V7.38788V7.37945L4.16081 7.36965L4.15937 7.3542V7.35283V7.34299C4.15363 7.28129 4.16081 7.21682 4.18235 7.15372V7.14949L4.18379 7.14529L4.18523 7.13828C4.19384 7.11444 4.2039 7.09341 4.21539 7.07238L4.21682 7.06959L4.2197 7.06399L4.22257 7.05834V7.05697L4.24124 7.02753L4.24842 7.01769L6.6886 3.37195C6.83941 3.1462 7.15251 3.08312 7.38375 3.23035C7.43115 3.27242 7.47998 3.32009 7.51732 3.37478Z" fill="#666261"/>
</svg>
