<svg width="25" height="26" viewBox="0 0 25 26" fill="none" xmlns="http://www.w3.org/2000/svg">
<path fill-rule="evenodd" clip-rule="evenodd" d="M12.7969 0.100641L24.8229 9.63638C24.9201 9.71309 24.9827 9.82512 24.9969 9.94782C25.0111 10.0705 24.9758 10.1938 24.8987 10.2905C24.814 10.4068 24.6764 10.4729 24.5324 10.4667C24.4222 10.4719 24.3141 10.436 24.2292 10.366L23.3702 9.6867V23.3487C23.3632 24.3026 22.5848 25.0722 21.6269 25.0722H16.9782C16.0203 25.0722 15.2419 24.3026 15.2349 23.3487V18.9834C15.235 18.5506 14.8863 18.1977 14.4517 18.1909H10.5862C10.1516 18.1977 9.80297 18.5506 9.80302 18.9834V23.3487C9.79608 24.3026 9.01762 25.0722 8.05975 25.0722H3.38578C2.42997 25.0722 1.65514 24.3006 1.65514 23.3487V9.66154L0.770876 10.366C0.685952 10.436 0.577824 10.4719 0.467699 10.4667C0.268749 10.4668 0.091529 10.3415 0.0260593 10.1544C-0.0394104 9.96728 0.0212208 9.75942 0.177155 9.63638L12.2411 0H12.3295H12.4179H12.6327L12.7969 0.100641ZM21.6269 24.1287C22.0616 24.1287 22.4159 23.7815 22.4228 23.3487V8.93189L12.5063 1.06931L2.6152 8.90673V23.3487C2.6152 23.5556 2.69772 23.754 2.8446 23.9002C2.99148 24.0465 3.19069 24.1287 3.39841 24.1287H8.04712C8.48176 24.1287 8.83606 23.7815 8.84296 23.3487V18.9834C8.83957 18.5219 9.02214 18.0784 9.3498 17.7521C9.67747 17.4258 10.1229 17.244 10.5862 17.2474H14.4517C14.9129 17.2473 15.355 17.4306 15.68 17.7566C16.0049 18.0825 16.1857 18.5241 16.1824 18.9834V23.3487C16.1893 23.7815 16.5436 24.1287 16.9782 24.1287H21.6269Z" />
</svg>
