<svg width="25" height="25" viewBox="0 0 25 25" fill="none" xmlns="http://www.w3.org/2000/svg">
<path d="M19.8893 4.20125C17.8812 2.19314 15.1084 0.952373 12.0446 0.952373C8.98072 0.952373 6.20664 2.1945 4.19989 4.20125C2.19178 6.20936 0.950995 8.98344 0.950995 12.0459C0.950995 15.1098 2.19314 17.8839 4.19989 19.8907C6.20664 21.8988 8.98072 23.1409 12.0446 23.1409C15.1071 23.1409 17.8812 21.8988 19.8893 19.8907C21.896 17.8839 23.1382 15.1098 23.1382 12.0459C23.1382 8.98344 21.8974 6.20936 19.8893 4.20125ZM10.4854 17.6077C10.2732 17.6077 10.1004 17.4349 10.1004 17.2227C10.1004 17.0105 10.2732 16.8377 10.4854 16.8377H11.5684V10.2909H10.4882C10.2256 10.2909 10.012 10.0773 10.012 9.81335C10.012 9.54941 10.2256 9.33718 10.4882 9.33718H12.0323H12.0446C12.3072 9.33718 12.5208 9.54941 12.5208 9.81335V16.8363H13.6037C13.816 16.8363 13.9887 17.0091 13.9887 17.2213C13.9887 17.4336 13.816 17.6064 13.6037 17.6064H12.3248C12.2459 17.6635 12.1493 17.6975 12.0446 17.6975C11.9398 17.6975 11.8419 17.6635 11.763 17.6064H10.4854V17.6077ZM12.0459 6.14816C12.5248 6.14816 12.9126 6.53588 12.9126 7.01614C12.9126 7.4964 12.5248 7.88415 12.0459 7.88415C11.567 7.88415 11.1779 7.4964 11.1779 7.01614C11.1779 6.53588 11.567 6.14816 12.0459 6.14816ZM12.0459 0C15.371 0 18.3832 1.34827 20.5627 3.5278C22.7436 5.7087 24.0919 8.71951 24.0919 12.0459C24.0919 15.3724 22.7436 18.3846 20.5627 20.5641C18.3832 22.745 15.371 24.0932 12.0459 24.0932C8.7195 24.0932 5.70733 22.745 3.5278 20.5641C1.34826 18.3846 0 15.3738 0 12.0459C0 8.72087 1.34826 5.7087 3.5278 3.5278C5.70733 1.34827 8.7195 0 12.0459 0Z" />
</svg>
