<svg width="88" height="36" viewBox="0 0 88 36" fill="none" xmlns="http://www.w3.org/2000/svg">
<path d="M17.5965 14.5069C17.5965 12.2949 16.4202 10.23 14.5227 9.12712L14.2921 8.99227L13.6921 8.64291L10.0545 6.51728L9.44869 6.1675L2.513 2.11768V6.36388L5.81073 8.28766L6.41698 8.64291L10.0545 10.7631L10.6608 11.1183L12.7043 12.3071C13.4798 12.7606 13.9585 13.6001 13.9585 14.5069V15.1319C13.9585 16.0388 13.4798 16.8778 12.7043 17.3317L10.6608 18.5201L10.0545 18.8758L6.41698 20.9955L5.81073 21.3508L2.513 23.275V27.5212L9.44869 23.4709L10.0545 23.1216L13.6921 20.9955L14.2921 20.6462L14.5227 20.5117C16.4202 19.4085 17.5965 17.3435 17.5965 15.1319" fill="black"/>
<path d="M17.1729 22.8068C17.1729 24.8186 16.1034 26.6969 14.3772 27.6998L13.6216 28.1402L10.3135 30.0741L3.45367 34.0759V30.2136L7.00449 28.1402L10.3135 26.2118L12.7231 24.8076C13.429 24.3951 13.8643 23.6315 13.8643 22.8068V22.2383C13.8643 21.4135 13.429 20.6499 12.7231 20.2374L10.3135 18.8328L7.00449 16.9048L3.45367 14.8314V10.9691L10.3135 14.9709L13.6216 16.9048L14.3772 17.3452C16.1034 18.3481 17.1729 20.2264 17.1729 22.2383" fill="#F44D03"/>
<path d="M4.97265 20.6976L2.47924 22.2488L2.09521 7.31921L4.97265 8.87045V20.6976Z" fill="black"/>
<path d="M24.8582 24.8241C24.6702 24.8241 24.5234 24.7736 24.4163 24.672C24.3087 24.5704 24.2553 24.452 24.2553 24.3167V10.4875C24.2553 10.3522 24.3087 10.2334 24.4163 10.1322C24.5234 10.0307 24.6702 9.97967 24.8582 9.97967H28.4145C29.2046 9.97967 29.918 10.1221 30.5547 10.4061C31.1906 10.6906 31.6926 11.1508 32.0612 11.7871C32.4298 12.4235 32.6137 13.2697 32.6137 14.3253V20.4785C32.6137 21.5345 32.4298 22.3807 32.0612 23.0171C31.6926 23.6534 31.1906 24.1136 30.5547 24.3981C29.918 24.6821 29.2046 24.8241 28.4145 24.8241H24.8582ZM25.5817 23.5856H28.4145C29.3118 23.5856 30.0152 23.3315 30.5243 22.8241C31.033 22.3163 31.2881 21.5345 31.2881 20.4785V14.3253C31.2881 13.2697 31.033 12.4879 30.5243 11.9801C30.0152 11.4723 29.3189 11.2186 28.4349 11.2186H25.5817V23.5856Z" fill="#333130"/>
<path d="M38.6821 24.9666C37.9987 24.9666 37.3657 24.7875 36.7832 24.4284C36.2008 24.0698 35.735 23.5957 35.3869 23.007C35.0383 22.4178 34.8644 21.7853 34.8644 21.1081V18.915C34.8644 18.2382 35.0354 17.6086 35.3764 17.0266C35.7183 16.4446 36.1803 15.9777 36.7628 15.6254C37.3457 15.2735 37.9853 15.0974 38.6821 15.0974C39.3651 15.0974 39.998 15.2697 40.5809 15.6153C41.1634 15.9604 41.6283 16.4206 41.9769 16.9963C42.3251 17.5715 42.4993 18.2112 42.4993 18.915V21.1081C42.4993 21.7718 42.3251 22.4014 41.9769 22.9969C41.6283 23.5927 41.1634 24.0698 40.5809 24.4284C39.998 24.7875 39.3651 24.9666 38.6821 24.9666ZM38.6821 23.7482C39.1507 23.7482 39.5727 23.6231 39.9475 23.3723C40.3228 23.122 40.6239 22.7937 40.8519 22.3875C41.0796 21.9817 41.1934 21.5548 41.1934 21.1081V18.915C41.1934 18.4683 41.0829 18.049 40.8619 17.6558C40.6409 17.2635 40.3395 16.9423 39.958 16.6912C39.576 16.4413 39.1507 16.3157 38.6821 16.3157C38.213 16.3157 37.7906 16.4413 37.4162 16.6912C37.0405 16.9423 36.7395 17.2635 36.5118 17.6558C36.2841 18.049 36.1707 18.4683 36.1707 18.915V21.1081C36.1707 21.5548 36.2808 21.9817 36.5018 22.3875C36.7228 22.7937 37.0272 23.122 37.4162 23.3723C37.8048 23.6231 38.2263 23.7482 38.6821 23.7482Z" fill="#333130"/>
<path d="M45.3121 24.8245C45.1378 24.8245 44.9873 24.7706 44.8597 24.6619C44.7321 24.554 44.6692 24.4322 44.6692 24.2965V9.83765C44.6692 9.6754 44.7321 9.55024 44.8597 9.46217C44.9873 9.37409 45.1378 9.33026 45.3121 9.33026C45.4994 9.33026 45.6565 9.37409 45.7841 9.46217C45.9113 9.55024 45.9751 9.6754 45.9751 9.83765V19.7073L50.8777 15.3005C50.9849 15.2192 51.0853 15.1787 51.1792 15.1787C51.2863 15.1787 51.3902 15.209 51.4906 15.2702C51.5911 15.3308 51.6745 15.4054 51.7421 15.4935C51.8088 15.5816 51.8425 15.6861 51.8425 15.8079C51.8425 15.8762 51.8325 15.9402 51.8125 16.0013C51.7921 16.062 51.755 16.1197 51.7016 16.1737L48.7483 18.8134L52.2241 23.9311C52.2774 24.0121 52.3041 24.1073 52.3041 24.2152C52.3041 24.31 52.2708 24.412 52.2041 24.5199C52.1369 24.6286 52.0464 24.7162 51.933 24.7841C51.8192 24.8515 51.7083 24.8857 51.6011 24.8857C51.4406 24.8857 51.3063 24.8043 51.1996 24.6416L47.8239 19.6462L45.9751 21.2707V24.2965C45.9751 24.4322 45.9113 24.554 45.7841 24.6619C45.6565 24.7706 45.4998 24.8245 45.3121 24.8245Z" fill="#333130"/>
<path d="M55.561 24.9316C55.4701 24.9316 55.4021 24.9109 55.3567 24.8701C55.3112 24.8292 55.2679 24.758 55.2278 24.656L52.8633 18.1451C52.8533 18.1147 52.8403 18.0764 52.8253 18.0304C52.8099 17.9845 52.8024 17.9516 52.8024 17.931C52.8024 17.8593 52.8224 17.7982 52.8633 17.7472C52.9037 17.6963 52.9567 17.655 53.0225 17.6246C53.088 17.5939 53.156 17.5787 53.2268 17.5787C53.2877 17.5787 53.3482 17.5939 53.4091 17.6246C53.4699 17.655 53.51 17.7009 53.5304 17.7624L55.5764 23.5072L57.2284 18.2374C57.2484 18.1556 57.2893 18.097 57.3497 18.0612C57.4106 18.0254 57.4807 18.0073 57.562 18.0073C57.6424 18.0073 57.7108 18.0254 57.7663 18.0612C57.8222 18.097 57.8647 18.1556 57.8955 18.2374L59.4866 23.5835L61.5785 17.7624C61.609 17.6398 61.7049 17.5787 61.8662 17.5787C61.9271 17.5787 61.9901 17.5913 62.056 17.617C62.1214 17.6423 62.1744 17.6807 62.2152 17.7317C62.2553 17.7831 62.2761 17.8442 62.2761 17.9154C62.2761 17.9462 62.2707 17.987 62.2607 18.038C62.2507 18.0894 62.2352 18.1248 62.2156 18.1451L59.8511 24.7171C59.8206 24.7993 59.7773 24.8549 59.7222 24.8857C59.6664 24.9164 59.6084 24.9316 59.5475 24.9316C59.4666 24.9316 59.4037 24.9164 59.3582 24.8857C59.3128 24.8549 59.2748 24.8039 59.2448 24.7323L57.5624 19.3402L55.895 24.656C55.8649 24.7478 55.8216 24.817 55.7661 24.8625C55.7103 24.9084 55.6423 24.9316 55.561 24.9316Z" fill="#333130"/>
<path d="M65.1402 24.9168C64.5544 24.9168 64.059 24.7508 63.6546 24.4187C63.2501 24.0871 63.0487 23.5788 63.0487 22.8945C63.0487 22.3534 63.1972 21.9345 63.4953 21.6382C63.7934 21.3424 64.2079 21.1355 64.7382 21.0179C65.2686 20.9007 65.8824 20.8417 66.5795 20.8417H67.398V20.4431C67.398 20.0857 67.3351 19.7334 67.2087 19.3861C67.0824 19.0389 66.8806 18.7532 66.6025 18.5281C66.3244 18.3035 65.9529 18.1914 65.4884 18.1914C65.1652 18.1914 64.8996 18.2243 64.6928 18.2905C64.4856 18.3575 64.3192 18.4287 64.1929 18.5054C64.0661 18.5817 63.9677 18.62 63.8972 18.62C63.7963 18.62 63.715 18.5715 63.6546 18.4746C63.5941 18.3777 63.5637 18.2884 63.5637 18.2066C63.5637 18.084 63.6621 17.9689 63.8593 17.8619C64.0565 17.7544 64.3063 17.668 64.6094 17.6014C64.913 17.5349 65.2157 17.5016 65.5192 17.5016C66.1759 17.5016 66.6938 17.6423 67.0728 17.923C67.4518 18.2041 67.7245 18.5665 67.8913 19.0107C68.0581 19.4548 68.1415 19.9323 68.1415 20.4431V24.5026C68.1415 24.5843 68.1089 24.6585 68.0431 24.7247C67.9776 24.7913 67.8892 24.8241 67.7779 24.8241C67.677 24.8241 67.5911 24.7913 67.5202 24.7247C67.4493 24.6585 67.4143 24.5843 67.4143 24.5026V23.752C67.1616 24.0483 66.846 24.3163 66.467 24.5561C66.0875 24.7963 65.6455 24.9168 65.1402 24.9168ZM65.2465 24.2426C65.6001 24.2426 65.9412 24.1532 66.2693 23.9745C66.5975 23.7959 66.8685 23.5763 67.0803 23.3159C67.2925 23.0554 67.3984 22.8127 67.3984 22.5881V21.4545H66.6563C66.1609 21.4545 65.696 21.4827 65.2615 21.5387C64.8271 21.5952 64.4735 21.7229 64.2004 21.9218C63.9277 22.1207 63.7913 22.4347 63.7913 22.8641C63.7913 23.3441 63.9331 23.6939 64.2162 23.913C64.4985 24.1326 64.8421 24.2426 65.2465 24.2426Z" fill="#333130"/>
<path d="M70.5515 24.8245C70.4506 24.8245 70.3643 24.7913 70.2938 24.7251C70.2229 24.6585 70.1879 24.5848 70.1879 24.503V13.4117C70.1879 13.3101 70.2229 13.2309 70.2938 13.1744C70.3643 13.1184 70.4506 13.0902 70.5515 13.0902C70.6628 13.0902 70.7533 13.1184 70.8242 13.1744C70.8946 13.2309 70.9301 13.3101 70.9301 13.4117V24.503C70.9301 24.5848 70.8946 24.6585 70.8242 24.7251C70.7533 24.7913 70.6624 24.8245 70.5515 24.8245Z" fill="#333130"/>
<path d="M73.5523 24.8245C73.4514 24.8245 73.3651 24.7913 73.2947 24.7251C73.2238 24.6585 73.1887 24.5848 73.1887 24.503V13.4117C73.1887 13.3101 73.2238 13.2309 73.2947 13.1744C73.3651 13.1184 73.4514 13.0902 73.5523 13.0902C73.6637 13.0902 73.7541 13.1184 73.825 13.1744C73.8955 13.2309 73.9309 13.3101 73.9309 13.4117V24.503C73.9309 24.5848 73.8955 24.6585 73.825 24.7251C73.7541 24.7913 73.6632 24.8245 73.5523 24.8245Z" fill="#333130"/>
<path d="M78.9478 24.9164C78.3311 24.9164 77.7886 24.7993 77.3187 24.5641C76.8488 24.3294 76.4769 23.9998 76.2046 23.5759C75.9319 23.1524 75.7956 22.6542 75.7956 22.0824V20.2593C75.7956 19.7591 75.9244 19.2993 76.1821 18.8809C76.4398 18.462 76.7783 18.1278 77.1978 17.877C77.6168 17.6271 78.0793 17.502 78.5846 17.502C79.0795 17.502 79.534 17.6221 79.9485 17.8619C80.3625 18.1021 80.699 18.4287 80.9563 18.8421C81.214 19.2559 81.3432 19.7334 81.3432 20.2745C81.3432 20.6525 81.2798 20.9256 81.1535 21.0942C81.0272 21.2627 80.8679 21.3651 80.6761 21.4005C80.4839 21.4368 80.2766 21.4545 80.0548 21.4545H76.5382V22.0975C76.5382 22.7512 76.7704 23.2695 77.2353 23.6526C77.6998 24.0357 78.2811 24.227 78.9786 24.227C79.3927 24.227 79.7112 24.176 79.9335 24.074C80.1553 23.972 80.3275 23.8696 80.4484 23.7672C80.5697 23.6656 80.6811 23.6142 80.782 23.6142C80.8529 23.6142 80.9129 23.6349 80.9642 23.6753C81.0146 23.7162 81.0551 23.7651 81.0855 23.8211C81.1156 23.8772 81.1306 23.9311 81.1306 23.9817C81.1306 24.0841 81.0422 24.2118 80.8654 24.3648C80.6882 24.5182 80.4384 24.6484 80.1148 24.7554C79.7917 24.8629 79.4027 24.9164 78.9478 24.9164ZM79.7663 20.8261C80.1098 20.8261 80.3371 20.7907 80.4484 20.7191C80.5597 20.6479 80.6152 20.4995 80.6152 20.2745C80.6152 19.9277 80.5318 19.5931 80.365 19.2715C80.1982 18.9496 79.9606 18.6866 79.6524 18.4822C79.3439 18.2782 78.9878 18.1758 78.5838 18.1758C78.1993 18.1758 77.8537 18.2681 77.5456 18.4519C77.2374 18.6356 76.9922 18.8809 76.8105 19.1872C76.6282 19.4932 76.5378 19.8303 76.5378 20.1982V20.8261H79.7663Z" fill="#333130"/>
<path d="M85.1621 24.8245C84.4141 24.8245 83.8437 24.6509 83.4497 24.3037C83.0557 23.9564 82.8584 23.4052 82.8584 22.6492V14.4075C82.8584 14.3059 82.8989 14.2267 82.9798 14.1702C83.0602 14.1142 83.1416 14.086 83.222 14.086C83.3229 14.086 83.4117 14.1142 83.4876 14.1702C83.5635 14.2267 83.601 14.3059 83.601 14.4075V17.5939H85.617C85.6975 17.5939 85.7659 17.6246 85.8214 17.6861C85.8768 17.7472 85.9047 17.829 85.9047 17.931C85.9047 18.0127 85.8768 18.0869 85.8214 18.1531C85.7659 18.2197 85.6975 18.2525 85.617 18.2525H83.601V22.6492C83.601 23.1806 83.7195 23.5586 83.9571 23.7828C84.1944 24.0078 84.5959 24.1199 85.1621 24.1199H85.5412C85.6521 24.1199 85.7384 24.1532 85.7984 24.2194C85.8593 24.286 85.8897 24.3703 85.8897 24.4722C85.8897 24.5641 85.8593 24.6459 85.7984 24.7175C85.738 24.7891 85.6516 24.8245 85.5412 24.8245H85.1621Z" fill="#333130"/>
</svg>
