<svg width="78" height="78" viewBox="0 0 78 78" fill="none" xmlns="http://www.w3.org/2000/svg">
<path d="M56.0307 31.1511C56.0307 26.482 53.5214 22.1233 49.4732 19.7954L48.9813 19.5108L47.7012 18.7734L39.941 14.2866L38.6486 13.5483L23.8522 5V13.9628L30.8875 18.0235L32.1808 18.7734L39.941 23.2486L41.2344 23.9984L45.5939 26.5078C47.2485 27.4649 48.2696 29.2368 48.2696 31.1511V32.4702C48.2696 34.3845 47.2485 36.1555 45.5939 37.1136L41.2344 39.622L39.941 40.3728L32.1808 44.8471L30.8875 45.5969L23.8522 49.6585V58.6213L38.6486 50.0721L39.941 49.3347L47.7012 44.8471L48.9813 44.1097L49.4732 43.8259C53.5214 41.4971 56.0307 37.1385 56.0307 32.4702" fill="black"/>
<path d="M55.127 48.6702C55.127 52.9168 52.8454 56.8814 49.1627 58.9985L47.5509 59.928L40.4934 64.0101L25.859 72.457V64.3045L33.4342 59.928L40.4934 55.8576L45.634 52.8937C47.14 52.0228 48.0686 50.411 48.0686 48.6702V47.4703C48.0686 45.7295 47.14 44.1177 45.634 43.2468L40.4934 40.282L33.4342 36.2125L25.859 31.836V23.6835L40.4934 32.1304L47.5509 36.2125L49.1627 37.142C52.8454 39.2591 55.127 43.2237 55.127 47.4703" fill="#F44D03"/>
<path d="M29.0995 44.2181L23.7802 47.4925L22.9609 15.9793L29.0995 19.2537V44.2181Z" fill="black"/>
</svg>
