<svg width="22" height="22" viewBox="0 0 22 22" fill="none" xmlns="http://www.w3.org/2000/svg">
<path fill-rule="evenodd" clip-rule="evenodd" d="M14.7379 22V14.7535H22V22H14.7379ZM16.6127 20.2239H20.2201V16.577H16.6127V20.2239Z" />
<path fill-rule="evenodd" clip-rule="evenodd" d="M0 0H7.26214V7.31755H0V0ZM1.77994 5.54144H5.4822V1.84715H1.77994V5.54144Z" />
<path fill-rule="evenodd" clip-rule="evenodd" d="M14.7379 0.118042H22V7.36454H14.7379V0.118042ZM16.6127 5.58878H20.2201V1.89449H16.6127V5.58878Z" />
<path d="M9.80151 17.24V19.6792H12.2697V17.24V14.7772H9.80151V17.24Z" />
<rect x="9.80151" width="2.46818" height="2.46286" />
<path fill-rule="evenodd" clip-rule="evenodd" d="M19.6505 9.94618V12.3143V12.5274H14.4531V10.1593H12.0798V12.5274H9.70658V14.8956H7.33334V22H0V14.5877H5.24488V12.2196H7.61812V9.85145H9.99137V5.2099H12.3646V7.57804H14.7379V9.94618H19.6505ZM12.0798 12.5274V14.8956H14.4531V12.5274H12.0798ZM1.85113 20.2239H5.55339V16.577H1.85113V20.2239Z" />
<path d="M2.39697 8.85681H4.86516V11.3197H2.39697V8.85681Z" />
</svg>
