<svg width="26" height="25" viewBox="0 0 26 25" fill="none" xmlns="http://www.w3.org/2000/svg">
<path d="M23.2756 13.5358H18.8703C18.2621 13.5358 17.7084 13.7861 17.3084 14.1861C16.9084 14.5874 16.6581 15.1398 16.6581 15.748C16.6581 16.3561 16.907 16.9098 17.307 17.3098V17.3084C17.707 17.7098 18.2607 17.9588 18.8689 17.9588H23.2729C23.5014 17.9588 23.7082 17.8663 23.8565 17.718L23.8579 17.7153C24.0062 17.567 24.1 17.3588 24.1 17.1316V14.3616C24.1 14.1344 24.0062 13.9289 23.8565 13.7779V13.7766C23.7096 13.6283 23.5028 13.5358 23.2756 13.5358ZM23.5477 12.6038V8.46107C23.5477 8.21209 23.4456 7.98489 23.2837 7.82163L23.2824 7.81891C23.1178 7.65701 22.8906 7.55497 22.6429 7.55497H5.39034H5.09238H1.85709C1.60812 7.55497 1.38228 7.65701 1.21766 7.82163C1.05303 7.98489 0.950995 8.21209 0.950995 8.46107V23.0321C0.950995 23.2811 1.05303 23.5083 1.21766 23.6729V23.6743C1.38092 23.8375 1.60812 23.9382 1.85709 23.9382H22.6416C22.8906 23.9382 23.1178 23.8362 23.281 23.6729C23.4456 23.5083 23.5477 23.2811 23.5477 23.0321V18.8894C23.4593 18.9043 23.3681 18.9111 23.2742 18.9111H18.8703C17.9995 18.9111 17.2077 18.5547 16.6349 17.9819V17.9805C16.0622 17.4064 15.7057 16.616 15.7057 15.7466C15.7057 14.8745 16.0622 14.084 16.6349 13.5099C17.2077 12.9371 17.9995 12.5807 18.8703 12.5807H23.2756C23.3681 12.5834 23.4579 12.5902 23.5477 12.6038ZM18.7152 14.7834C19.2485 14.7834 19.6798 15.2146 19.6798 15.748C19.6798 16.2813 19.2485 16.7126 18.7152 16.7126C18.1818 16.7126 17.7506 16.2813 17.7506 15.748C17.7506 15.2146 18.1818 14.7834 18.7152 14.7834ZM10.5725 6.60262L19.1097 2.08709L18.7669 1.4354C18.6512 1.215 18.4539 1.06262 18.2308 0.993238V0.991867C18.0091 0.923842 17.7601 0.938815 17.5397 1.05446L6.98757 6.60397H10.5725V6.60262ZM19.5519 2.92788L12.6051 6.60262H21.4838L19.5519 2.92788ZM6.28147 16.2527C6.53861 16.3071 6.70187 16.5615 6.64609 16.8173C6.5903 17.0744 6.33725 17.2377 6.08011 17.1833L4.95497 16.9398C5.1332 17.5057 5.43659 18.0268 5.83658 18.4608C6.37534 19.0458 7.09369 19.4757 7.93177 19.658C9.01337 19.8921 10.0882 19.6649 10.9494 19.1111C11.8106 18.5574 12.4609 17.6717 12.6949 16.5901C12.9289 15.5085 12.7017 14.4337 12.148 13.5711C11.5943 12.7113 10.7099 12.061 9.62832 11.827C8.76984 11.6419 7.91544 11.744 7.16988 12.0732C6.40391 12.4093 5.75087 12.982 5.31959 13.7194C5.18762 13.9453 4.89647 14.0215 4.67063 13.8895C4.44478 13.7562 4.36859 13.465 4.50192 13.2392C5.03524 12.3263 5.84339 11.6188 6.79166 11.2025C7.71545 10.7971 8.7712 10.6678 9.82968 10.8964C11.1671 11.1862 12.2623 11.9916 12.948 13.0582C13.6337 14.1249 13.9139 15.4541 13.6255 16.7901C13.3357 18.1275 12.5303 19.2227 11.4636 19.9097C10.397 20.5968 9.06915 20.8757 7.73177 20.5873C6.69642 20.3628 5.80665 19.8281 5.13728 19.1043C4.8611 18.8037 4.62437 18.4717 4.42845 18.1152L4.39716 18.2635C4.34138 18.5207 4.08833 18.6839 3.83119 18.6295C3.57542 18.5737 3.4108 18.3207 3.46658 18.0635L3.86657 16.216C3.92235 15.9602 4.1754 15.7956 4.43254 15.8513L6.28147 16.2527ZM24.5 18.4186V23.0335C24.5 23.545 24.2919 24.0103 23.9545 24.3464C23.6171 24.6838 23.1531 24.8919 22.6416 24.8919H1.85709C1.3469 24.8919 0.881611 24.6838 0.545565 24.3464C0.208159 24.0103 0 23.545 0 23.0335V8.46242C0 7.95087 0.20952 7.48558 0.545565 7.14953C0.881611 6.81212 1.3469 6.60397 1.85845 6.60397H4.94817L17.0975 0.212299C17.5506 -0.0257904 18.0594 -0.0557233 18.5124 0.0830486H18.5138C18.9669 0.224542 19.3696 0.538818 19.6077 0.991867L22.5586 6.60262H22.6429C23.1531 6.60262 23.6171 6.81214 23.9545 7.14818L23.9558 7.14953C24.2919 7.48694 24.5014 7.95224 24.5014 8.46107V13.0759L24.5313 13.1045H24.5327C24.8538 13.4269 25.0551 13.8718 25.0551 14.3616V17.1316C25.0551 17.6187 24.8551 18.0635 24.5327 18.386L24.5313 18.3887L24.5 18.4186ZM5.09238 22.3437V24.4157V22.3437ZM5.09238 7.55497V9.15085V7.55497Z" />
</svg>
