<svg width="25" height="25" viewBox="0 0 25 25" fill="none" xmlns="http://www.w3.org/2000/svg">
<path d="M15.2105 4.4094C14.8935 4.27744 14.5602 4.1645 14.216 4.07063C13.9983 4.02845 13.8337 3.83527 13.8337 3.60398V1.95505C13.8337 1.68022 13.7207 1.42853 13.5384 1.24623V1.24486C13.3575 1.06391 13.1058 0.950992 12.8296 0.950992H11.2637C10.9984 0.950992 10.7548 1.05439 10.5766 1.22309L10.5562 1.24623C10.3739 1.42853 10.261 1.67886 10.261 1.95505V3.60398C10.261 3.8135 10.1195 4.00669 9.90722 4.06247C9.55621 4.15634 9.21336 4.27334 8.88548 4.41075C8.55896 4.54544 8.24332 4.70055 7.94401 4.87197C7.75898 4.99714 7.50593 4.97673 7.34266 4.81347L6.17671 3.64888C5.98216 3.45297 5.72366 3.35637 5.46788 3.35637C5.21075 3.35637 4.95225 3.45297 4.75906 3.64888L3.65161 4.75497C3.45705 4.94952 3.36046 5.20665 3.36046 5.46379C3.36046 5.72093 3.45705 5.97944 3.65161 6.17263L4.81756 7.33858C4.96586 7.48688 5.00259 7.72224 4.89239 7.91271C4.71144 8.22427 4.55226 8.54807 4.41349 8.88003C4.28288 9.19703 4.1686 9.53172 4.07472 9.87457C4.03119 10.0922 3.83936 10.2569 3.60807 10.2569H1.96049C1.68567 10.2569 1.43398 10.3698 1.25167 10.5521L1.25031 10.5507C1.06936 10.733 0.956436 10.9834 0.956436 11.2596V12.8255C0.956436 13.0895 1.05984 13.333 1.2299 13.5126L1.25167 13.5343C1.43262 13.7166 1.68431 13.8296 1.96049 13.8296H3.60807V13.8309C3.81895 13.8309 4.01078 13.9711 4.06792 14.1833C4.1618 14.5343 4.27744 14.8772 4.41485 15.2064C4.54954 15.5316 4.70464 15.8486 4.87742 16.1479C5.00123 16.3329 4.98218 16.5846 4.81892 16.7479L3.65297 17.9138C3.45841 18.1084 3.36182 18.3655 3.36182 18.6226C3.36182 18.8798 3.45841 19.1383 3.65297 19.3315L4.76042 20.4376C4.95497 20.6335 5.21211 20.7301 5.46925 20.7301C5.72638 20.7301 5.98352 20.6335 6.17807 20.4376L7.34402 19.273C7.49232 19.126 7.72769 19.0879 7.91816 19.1981C8.22972 19.3791 8.55352 19.5396 8.88548 19.677C9.20248 19.8076 9.5358 19.9219 9.88001 20.0158C10.0977 20.058 10.2623 20.2512 10.2623 20.4824V22.1314C10.2623 22.4062 10.3752 22.6579 10.5575 22.8402L10.5562 22.8416C10.7371 23.0225 10.9902 23.1354 11.265 23.1354H12.831C13.0963 23.1354 13.3398 23.0321 13.518 22.862L13.5398 22.8402C13.7207 22.6579 13.835 22.4076 13.835 22.1314V20.4824C13.835 20.2729 13.9751 20.0797 14.1874 20.0226C14.5384 19.9301 14.8812 19.8131 15.2105 19.677C15.5356 19.541 15.8513 19.3859 16.152 19.2131C16.337 19.0893 16.59 19.1097 16.7533 19.273L17.9193 20.4376C18.1138 20.6335 18.3723 20.7301 18.6294 20.7301C18.8866 20.7301 19.1437 20.6335 19.3383 20.4376L20.4444 19.3315C20.6389 19.1369 20.7369 18.8798 20.7369 18.6226C20.7369 18.3655 20.6389 18.107 20.4444 17.9138L19.2798 16.7479C19.1315 16.5996 19.0947 16.3642 19.2049 16.1737C19.3845 15.8622 19.5451 15.537 19.6825 15.2064C19.8144 14.8894 19.9274 14.5547 20.0212 14.2119C20.0648 13.9942 20.2566 13.8296 20.4879 13.8296H22.1355C22.4117 13.8296 22.662 13.7166 22.8443 13.5343V13.5357C23.0252 13.3534 23.1382 13.1031 23.1382 12.8269V11.2609C23.1382 10.997 23.0334 10.7535 22.8647 10.5739L22.8429 10.5521C22.6606 10.3698 22.4103 10.2569 22.1341 10.2569H20.4865V10.2555C20.277 10.2555 20.0838 10.1154 20.028 9.90313C19.9328 9.54804 19.8158 9.20519 19.6811 8.87731C19.5491 8.55759 19.3941 8.24195 19.2199 7.94128C19.0947 7.75489 19.1138 7.50184 19.2784 7.33858L20.443 6.17263C20.6376 5.97808 20.7355 5.72093 20.7355 5.46379C20.7355 5.20665 20.6376 4.94816 20.443 4.75497L19.3369 3.64888C19.1424 3.45297 18.8839 3.35637 18.6281 3.35637C18.371 3.35637 18.1124 3.45297 17.9179 3.64888L16.7519 4.81347V4.81212C16.6036 4.96042 16.3683 4.99851 16.1778 4.88831C15.8649 4.70736 15.5425 4.54818 15.2105 4.4094ZM14.1112 9.98069C13.5833 9.45281 12.8527 9.12493 12.0459 9.12493C11.2514 9.12493 10.5303 9.44056 10.0052 9.95347L9.97933 9.98069C9.45145 10.5099 9.12357 11.2392 9.12357 12.0459C9.12357 12.8555 9.45009 13.586 9.97661 14.1126L9.97797 14.1139C10.5045 14.6418 11.2351 14.9683 12.0432 14.9683C12.85 14.9683 13.5806 14.6404 14.1085 14.1126L14.1098 14.1139V14.1126C14.6364 13.586 14.9629 12.8555 14.9629 12.0459C14.967 11.2392 14.6391 10.5099 14.1112 9.98069ZM12.0473 8.17258C13.1167 8.17258 14.0853 8.60658 14.786 9.30724C15.4867 10.0093 15.9207 10.978 15.9207 12.0459C15.9207 13.1139 15.4867 14.0826 14.7846 14.7846L14.786 14.786C14.0853 15.4867 13.1167 15.9207 12.0473 15.9207C10.9793 15.9207 10.012 15.4867 9.30996 14.786V14.7846L9.3086 14.7833C8.60794 14.0813 8.17529 13.1139 8.17529 12.0459C8.17529 10.978 8.6093 10.0093 9.30996 9.30724L9.33853 9.28003C10.0365 8.59569 10.9929 8.17258 12.0473 8.17258ZM14.786 3.24753C15.0513 3.33052 15.3139 3.42576 15.5724 3.53324C15.8322 3.64072 16.0867 3.75908 16.3329 3.88833L17.2458 2.97543C17.6267 2.59449 18.1274 2.40402 18.6294 2.40402C19.1301 2.40402 19.6308 2.59449 20.0117 2.97543L21.1192 4.08153C21.5001 4.46247 21.6906 4.96313 21.6906 5.46516C21.6906 5.96719 21.5001 6.46785 21.1192 6.8488L20.2063 7.76305C20.3355 8.00795 20.4539 8.26101 20.5614 8.52087C20.6675 8.77936 20.7627 9.04329 20.8457 9.30859H22.1368C22.6756 9.30859 23.1654 9.52899 23.5191 9.88272L23.5477 9.91266C23.8851 10.265 24.0946 10.7412 24.0946 11.2636V12.8296C24.0946 13.3656 23.8742 13.8554 23.5205 14.2092L23.5191 14.2105L23.5205 14.2119C23.1667 14.5656 22.677 14.786 22.1382 14.786H20.8471C20.7641 15.0513 20.6688 15.3139 20.5627 15.5724C20.4552 15.8309 20.3355 16.0853 20.2063 16.3315L21.1192 17.2458C21.5001 17.6267 21.6906 18.1274 21.6906 18.6294C21.6906 19.1315 21.5001 19.6308 21.1192 20.0131L20.0117 21.1192C19.6308 21.5001 19.1301 21.6906 18.6294 21.6906C18.1274 21.6906 17.6267 21.5001 17.2458 21.1192L16.3329 20.2063C16.0853 20.3355 15.8336 20.4552 15.5751 20.5614C15.318 20.6688 15.054 20.7627 14.786 20.8471V22.1382C14.786 22.677 14.5656 23.1667 14.2119 23.5205L14.1819 23.549C13.8296 23.8864 13.352 24.0946 12.8296 24.0946H11.2637C10.7276 24.0946 10.2392 23.8742 9.8841 23.5205V23.5191L9.88274 23.5205C9.529 23.1667 9.3086 22.677 9.3086 22.1382V20.8471C9.0433 20.7641 8.78072 20.6688 8.52223 20.5614C8.26237 20.4539 8.00795 20.3355 7.7617 20.2049L6.8488 21.1192C6.46786 21.5001 5.96583 21.6906 5.46516 21.6906C4.9645 21.6906 4.46247 21.5001 4.08153 21.1192L2.97407 20.0131C2.59313 19.6321 2.40402 19.1315 2.40402 18.6294C2.40402 18.1274 2.59449 17.6281 2.97407 17.2458L3.88697 16.3329C3.75773 16.0853 3.638 15.8322 3.53188 15.5751C3.42576 15.318 3.33052 15.054 3.24753 14.786H1.95641C1.41765 14.786 0.929226 14.5656 0.574133 14.2119L0.545563 14.1819C0.208157 13.8296 0 13.3534 0 12.831V11.265C0 10.7276 0.220401 10.2392 0.574133 9.88544L0.575496 9.8841L0.574133 9.88272C0.927866 9.52899 1.41765 9.30859 1.95641 9.30859H3.24753C3.33052 9.04329 3.42576 8.78071 3.53188 8.52222C3.63936 8.26372 3.75909 8.00795 3.88833 7.76305L2.97407 6.8488C2.59313 6.46921 2.40402 5.96719 2.40402 5.46516C2.40402 4.96313 2.59449 4.46383 2.97407 4.08153L4.08153 2.97543C4.46247 2.59449 4.96314 2.40402 5.46516 2.40402C5.96583 2.40402 6.46786 2.59449 6.8488 2.97543L7.7617 3.88833C8.00931 3.75908 8.26237 3.63936 8.5195 3.53324C8.77664 3.42576 9.04058 3.33188 9.3086 3.24753V1.95641C9.3086 1.41764 9.529 0.927863 9.88274 0.574131L9.91267 0.545555C10.265 0.208149 10.7426 0 11.265 0H12.831C13.3684 0 13.8568 0.220398 14.2105 0.574131L14.2119 0.57549V0.574131C14.5656 0.927863 14.786 1.41764 14.786 1.95641V3.24753Z" />
</svg>
