<svg width="25" height="25" viewBox="0 0 82 82" fill="none" xmlns="http://www.w3.org/2000/svg">
<path fill-rule="evenodd" clip-rule="evenodd" d="M76.6988 33.9599H56.6191C51.0738 33.9599 46.5677 38.4698 46.5677 44.0151V50.4731C46.5677 56.0146 51.0738 60.5284 56.6191 60.5284H76.6988V61.652C76.6988 69.9508 69.8381 76.7003 61.4128 76.7003H19.888C11.4588 76.7003 4.59809 69.9508 4.59809 61.652V32.8363C4.59809 24.5374 11.4588 17.7879 19.888 17.7879H61.4128C69.8381 17.7879 76.6988 24.5374 76.6988 32.8363V33.9599ZM76.6988 55.9264H56.6191C53.6125 55.9264 51.1658 53.4797 51.1658 50.4731V44.0151C51.1658 41.0085 53.6125 38.5618 56.6191 38.5618H76.6988V55.9264ZM53.0603 4.79899C53.7352 4.53055 54.4715 4.53822 55.1465 4.82967C55.8214 5.12113 56.3391 5.66569 56.6191 6.39049L59.3649 13.186H32.5893L53.0603 4.79899ZM64.4539 13.489L60.9027 4.69928C60.1817 2.84701 58.7897 1.39356 56.9757 0.6074C55.1656 -0.178763 53.1638 -0.201773 51.3269 0.538371L20.4441 13.186H19.888C8.92007 13.186 0 21.9987 0 32.8363V61.652C0 72.4857 8.92007 81.3022 19.888 81.3022H61.4128C72.3769 81.3022 81.2969 72.4857 81.2969 61.652V32.8363C81.2969 23.0303 73.9684 14.9462 64.4539 13.489Z" />
</svg>
