<svg width="18" height="21" viewBox="0 0 18 21" fill="none" xmlns="http://www.w3.org/2000/svg">
<path d="M16.7519 11.5473C16.7019 11.5402 16.6419 11.5374 16.5733 11.5374L12.6117 11.5374L12.5959 11.5374C12.2702 11.5374 12.0059 11.2734 12.0059 10.9513L12.0059 4.24317C12.0059 4.0601 11.9316 3.89404 11.8116 3.77484L11.8102 3.77345C11.6902 3.65567 11.523 3.58043 11.3402 3.58043L6.66414 3.58043C6.48127 3.58043 6.31412 3.65563 6.19269 3.77484L6.19269 3.77345C6.07268 3.89408 5.99839 4.05868 5.99839 4.24317L5.99839 10.9343L5.99839 10.9513C5.99839 11.2748 5.73408 11.5374 5.40692 11.5374L1.42953 11.5374C1.35952 11.5374 1.29952 11.5402 1.25094 11.5459C1.28095 11.5856 1.32095 11.6311 1.37095 11.6807L1.39238 11.7034L8.44711 19.5185L8.45711 19.5298C8.65713 19.7299 8.92286 19.8278 9.18859 19.8278C9.44575 19.8278 9.70005 19.737 9.8972 19.554L9.91292 19.5383L16.6019 11.7162L16.6333 11.6822C16.6805 11.6325 16.7205 11.5857 16.7519 11.5473ZM16.5719 10.3638C16.9162 10.3638 17.2048 10.4291 17.4291 10.5426L17.4677 10.5653C17.6848 10.6859 17.8406 10.8562 17.9263 11.0648C18.0177 11.2848 18.0249 11.526 17.9434 11.7786L17.9434 11.7815C17.8691 12.0085 17.7177 12.2498 17.4863 12.4853L10.7858 20.3202L10.753 20.3558L10.753 20.3571L10.7173 20.3898C10.2901 20.7957 9.73719 21 9.18715 21C8.6214 21 8.0528 20.7857 7.62135 20.3571C7.60135 20.3373 7.5842 20.3174 7.56705 20.2961L0.53089 12.501C0.290875 12.2611 0.133721 12.0142 0.0565747 11.7786L0.0565747 11.7801C-0.0248596 11.526 -0.0177146 11.2834 0.0737199 11.0634C0.166583 10.8406 0.335164 10.6646 0.572322 10.5426L0.618047 10.5213C0.835202 10.4205 1.10807 10.3638 1.42809 10.3638L4.81545 10.3638L4.81545 4.24317C4.81545 3.73938 5.02403 3.28099 5.35691 2.94891L5.35835 2.94753L5.35691 2.9461C5.69122 2.61545 6.1541 2.40826 6.66271 2.40826L11.3387 2.40826C11.8445 2.40826 12.3059 2.61545 12.6417 2.9461L12.6431 2.94892C12.9774 3.28099 13.186 3.73939 13.186 4.24317L13.186 10.3638L16.5719 10.3638ZM12.5945 -4.72563e-07C12.9202 -4.44086e-07 13.186 0.263956 13.186 0.587513C13.186 0.911069 12.9202 1.17364 12.5945 1.17364L5.40549 1.17364C5.07976 1.17364 4.81545 0.90965 4.81545 0.587512C4.81545 0.262536 5.07976 -1.12952e-06 5.40549 -1.10105e-06L12.5945 -4.72563e-07Z" fill="white"/>
</svg>
