<svg width="18" height="21" viewBox="0 0 18 21" fill="none" xmlns="http://www.w3.org/2000/svg">
<path d="M1.24808 9.45267C1.29808 9.45976 1.35809 9.46263 1.42666 9.46263H5.38834H5.40405C5.72979 9.46263 5.99409 9.72657 5.99409 10.0487V16.7568C5.99409 16.9399 6.06839 17.106 6.1884 17.2252L6.18982 17.2265C6.30983 17.3443 6.47698 17.4196 6.65985 17.4196H11.3359C11.5187 17.4196 11.6859 17.3444 11.8073 17.2252V17.2265C11.9273 17.1059 12.0016 16.9413 12.0016 16.7568V10.0657V10.0487C12.0016 9.72515 12.2659 9.46263 12.5931 9.46263H16.5705C16.6405 9.46263 16.7005 9.45977 16.7491 9.45409C16.7191 9.41436 16.6791 9.36895 16.629 9.31928L16.6076 9.29658L9.55289 1.48152L9.54289 1.47017C9.34287 1.27008 9.07714 1.17217 8.81141 1.17217C8.55425 1.17217 8.29995 1.26298 8.1028 1.44605L8.08708 1.46168L1.39809 9.28381L1.36666 9.31785C1.31951 9.36752 1.27951 9.41435 1.24808 9.45267ZM1.42809 10.6362C1.08378 10.6362 0.795192 10.5709 0.570892 10.4574L0.532317 10.4347C0.315161 10.3141 0.159438 10.1438 0.073718 9.93516C-0.0177163 9.7152 -0.0248611 9.47396 0.0565726 9.22136V9.21854C0.130863 8.99149 0.282306 8.75023 0.513749 8.51466L7.21417 0.679759L7.24703 0.644247V0.642861L7.28275 0.610207C7.70992 0.204341 8.26281 0 8.81285 0C9.3786 0 9.9472 0.21429 10.3787 0.642861C10.3987 0.662729 10.4158 0.682595 10.4329 0.703882L17.4691 8.49903C17.7091 8.73886 17.8663 8.98579 17.9434 9.22136V9.21993C18.0249 9.47395 18.0177 9.71663 17.9263 9.93659C17.8334 10.1594 17.6648 10.3354 17.4277 10.4574L17.382 10.4787C17.1648 10.5795 16.8919 10.6362 16.5719 10.6362H13.1846V16.7568C13.1846 17.2606 12.976 17.719 12.6431 18.0511L12.6417 18.0525L12.6431 18.0539C12.3088 18.3846 11.8459 18.5917 11.3373 18.5917H6.66128C6.15553 18.5917 5.69408 18.3846 5.35834 18.0539L5.35691 18.0511C5.02261 17.719 4.81402 17.2606 4.81402 16.7568V10.6362H1.42809ZM5.40549 21C5.07975 21 4.81402 20.736 4.81402 20.4125C4.81402 20.0889 5.07975 19.8264 5.40549 19.8264H12.5945C12.9202 19.8264 13.1846 20.0903 13.1846 20.4125C13.1846 20.7375 12.9202 21 12.5945 21H5.40549Z" fill="white"/>
</svg>
