<svg width="114" height="114" viewBox="0 0 114 114" fill="none" xmlns="http://www.w3.org/2000/svg">
<path d="M56.9995 1C87.9276 1 113 26.0715 113 56.9995C113 87.9276 87.9276 113 56.9995 113C26.0714 113 1 87.9276 1 56.9995C1 26.0714 26.0714 1 56.9995 1Z" stroke="#E6E2E1" stroke-width="2"/>
<mask id="mask0_1661_13" style="mask-type:alpha" maskUnits="userSpaceOnUse" x="0" y="0" width="115" height="114">
<path fill-rule="evenodd" clip-rule="evenodd" d="M57 0C88.4803 0 114 25.5192 114 56.9995C114 88.4799 88.4803 114 57 114C25.5196 114 0.000488281 88.4799 0.000488281 56.9995C0.000488281 25.5192 25.5196 0 57 0Z" fill="#EAF5FF"/>
</mask>
<g mask="url(#mask0_1661_13)">
<path d="M22.9999 27.598H15.7168V126.448H22.9999V124.448H17.7168V29.598H22.9999V27.598Z" fill="#E6E2E1"/>
<path d="M22.3179 20.698H94.4669V73H92.4669V22.698H24.3179V104L22.3179 102.5L22.3179 20.698Z" fill="#E6E2E1"/>
<path d="M52.3548 30.8979H32.7048V48.823H52.3548V30.8979Z" fill="#E6E2E1"/>
<path d="M84.0808 57.973H32.7048V61.648H84.0808V57.973Z" fill="#E6E2E1"/>
<path d="M67 69H33V73H67V69Z" fill="#E6E2E1"/>
<path d="M59 80H33V84H59V80Z" fill="#E6E2E1"/>
<path fill-rule="evenodd" clip-rule="evenodd" d="M104.552 89.7C104.552 75.782 93.2699 64.5 79.3519 64.5C65.4349 64.5 54.1519 75.783 54.1519 89.7C54.1519 103.617 65.4349 114.9 79.3519 114.9C93.2699 114.9 104.552 103.617 104.552 89.7ZM98.8521 89.7C98.8521 78.93 90.1221 70.2 79.3521 70.2C68.5821 70.2 59.8521 78.93 59.8521 89.7C59.8521 100.47 68.5821 109.2 79.3521 109.2C90.1221 109.2 98.8521 100.47 98.8521 89.7Z" fill="#E6E2E1"/>
<path d="M80.3518 78.525V89.188L87.7308 94.438L86.5738 96.063L78.7738 90.513L78.3518 90.213V89.7V78.525H80.3518Z" fill="#E6E2E1"/>
</g>
</svg>
