<svg width="15" height="22" viewBox="0 0 15 22" fill="none" xmlns="http://www.w3.org/2000/svg">
<path d="M11.948 0.836278H3.12279C2.64921 0.836278 2.2188 1.02504 1.90556 1.32729C1.59354 1.62954 1.39868 2.04888 1.39868 2.50644V19.4948C1.39868 19.9547 1.59231 20.3729 1.90432 20.6739L1.90556 20.6751C2.21757 20.9762 2.64921 21.1649 3.12279 21.1649H11.948C12.4216 21.1649 12.8532 20.9762 13.1652 20.6739C13.4773 20.3717 13.6721 19.9535 13.6721 19.4948V2.50644C13.6721 2.04768 13.4785 1.62954 13.1677 1.32729L13.1652 1.3261C12.8532 1.02504 12.4216 0.836278 11.948 0.836278ZM7.5354 17.5618C8.13353 17.5618 8.61944 18.0325 8.61944 18.6119C8.61944 19.1913 8.13353 19.662 7.5354 19.662C6.93727 19.662 6.45136 19.1913 6.45136 18.6119C6.45136 18.0325 6.93727 17.5618 7.5354 17.5618ZM6.34654 3.47054C6.10852 3.47054 5.91366 3.28298 5.91366 3.05241C5.91366 2.82183 6.10728 2.63427 6.34654 2.63427H8.7255C8.96352 2.63427 9.15714 2.82183 9.15714 3.05241C9.15714 3.28298 8.96475 3.47054 8.7255 3.47054H6.34654ZM6.22074 10.3316C6.15414 10.5526 5.91489 10.6792 5.68674 10.6135C5.45859 10.5478 5.32786 10.3172 5.39569 10.0962L5.97655 8.1955C6.03082 8.01391 6.20348 7.89683 6.3897 7.89683V7.89563H8.40362C9.04985 7.89563 9.64058 8.15248 10.0685 8.56704H10.0698C10.4977 8.9804 10.7628 9.55265 10.7628 10.1811C10.7628 10.8095 10.4977 11.3817 10.0698 11.7951C9.64181 12.2096 9.05231 12.4665 8.40362 12.4665H5.56711L5.15397 13.8105C5.08491 14.0315 4.84565 14.1569 4.61627 14.0912C4.38811 14.0255 4.25985 13.7926 4.32768 13.5715L4.82469 11.9551C4.86785 11.7688 5.04051 11.6302 5.24523 11.6302H8.40362C8.81429 11.6302 9.18797 11.4665 9.45806 11.2037C9.72937 10.9421 9.8971 10.5789 9.8971 10.1811C9.8971 9.78322 9.72814 9.42124 9.45806 9.15841H9.45929C9.18797 8.89677 8.81429 8.7343 8.40362 8.7343H6.71035L6.22074 10.3316ZM3.12279 0H11.948C12.6584 0 13.3058 0.281943 13.7745 0.735921L13.7757 0.737119C14.2444 1.1911 14.5354 1.81711 14.5354 2.50524V19.4936C14.5354 20.1829 14.2444 20.8113 13.7757 21.2641C13.3071 21.7169 12.6596 22 11.948 22H3.12279C2.41366 22 1.76496 21.7181 1.29756 21.2641L1.29632 21.2629C0.826449 20.8077 0.5354 20.1817 0.5354 19.4936V2.50524C0.5354 1.81591 0.826449 1.1887 1.29632 0.734727C1.7625 0.283138 2.41119 0 3.12279 0Z" />
</svg>
