<svg width="20" height="20" viewBox="0 0 20 20" fill="none" xmlns="http://www.w3.org/2000/svg">
<path fill-rule="evenodd" clip-rule="evenodd" d="M11.414 10.0003L19.7055 18.2929C20.096 18.6835 20.096 19.3167 19.7054 19.7072C19.3149 20.0977 18.6817 20.0976 18.2912 19.7071L9.99975 11.4145L1.70711 19.7071C1.31658 20.0976 0.683418 20.0976 0.292893 19.7071C-0.0976311 19.3166 -0.0976311 18.6834 0.292893 18.2929L8.58563 10.0002L0.293663 1.70706C-0.0968345 1.31651 -0.0967914 0.683343 0.29376 0.292845C0.68431 -0.0976526 1.31748 -0.0976095 1.70797 0.292941L9.99984 8.58594L18.2913 0.294529C18.6818 -0.0959949 19.3149 -0.0959949 19.7055 0.294529C20.096 0.685054 20.096 1.31822 19.7055 1.70874L11.414 10.0003Z" />
</svg>
