<svg width="17" height="20" viewBox="0 0 17 20" fill="none" xmlns="http://www.w3.org/2000/svg">
<path fill-rule="evenodd" clip-rule="evenodd" d="M15.4108 13.8748C15.4108 14.8751 14.5972 15.6878 13.5987 15.6878H5.75473C4.7553 15.6878 3.94258 14.8751 3.94258 13.8748V2.89453C3.94258 1.8951 4.7553 1.08239 5.75473 1.08239H11.1686C11.4419 1.08239 11.7008 1.18882 11.8948 1.38366L15.1104 4.59844C15.3035 4.79147 15.4108 5.05035 15.4108 5.32457V13.8748ZM11.2462 18.0401H3.40137C2.40284 18.0401 1.59012 17.2274 1.59012 16.2289V5.24682C1.59012 4.43771 2.12682 3.75849 2.86106 3.52758V13.8746C2.86106 15.4712 4.15816 16.7692 5.75473 16.7692H12.9663C12.7345 17.5034 12.0553 18.0401 11.2462 18.0401ZM15.8753 3.83267L12.6596 0.617881C12.2619 0.21919 11.7324 0 11.1686 0H5.75472C4.32683 0 3.14518 1.04093 2.90976 2.40297C1.54862 2.63749 0.50769 3.82004 0.50769 5.24703V16.2291C0.50769 17.8247 1.80569 19.1227 3.40136 19.1227H11.2462C12.6741 19.1227 13.8548 18.0818 14.0902 16.7198C15.4523 16.4852 16.4923 15.3027 16.4923 13.8748V5.3246C16.4923 4.76084 16.2731 4.23045 15.8753 3.83267Z"/>
</svg>
