<svg class="svg-icon" style="width: 1em;height: 1em;vertical-align: middle;fill: currentColor;overflow: hidden;" viewBox="0 0 1024 1024" version="1.1" xmlns="http://www.w3.org/2000/svg"><path d="M512 0C229.2736 0 0 229.2736 0 512s229.2736 512 512 512 512-229.2736 512-512S794.7264 0 512 0z m0 937.1648A425.216 425.216 0 0 1 86.8352 512 425.216 425.216 0 0 1 512 86.8352 425.216 425.216 0 0 1 937.1648 512 425.216 425.216 0 0 1 512 937.1648z"  /><path d="M457.1136 713.1648a54.8352 54.8352 0 1 0 109.7216 0 54.8352 54.8352 0 0 0-109.7216 0z m27.4432-128h54.8352a9.216 9.216 0 0 0 9.1648-9.1648V265.1648A9.216 9.216 0 0 0 539.392 256H484.5568a9.216 9.216 0 0 0-9.1648 9.1648v310.8352c0 5.0176 4.096 9.1648 9.1648 9.1648z"  /></svg>