<svg width="210" height="85" viewBox="0 0 210 85" fill="none" xmlns="http://www.w3.org/2000/svg">
<path d="M41.9917 34.2524C41.9917 29.0296 39.1847 24.154 34.6564 21.5501L34.1062 21.2317L32.6743 20.4068L23.9938 15.388L22.5481 14.5621L5.99701 5V15.0258L13.8666 19.568L15.3133 20.4068L23.9938 25.4127L25.4406 26.2515L30.3172 29.0585C32.1679 30.1291 33.3102 32.1112 33.3102 34.2524V35.7281C33.3102 37.8693 32.1679 39.8504 30.3172 40.922L25.4406 43.728L23.9938 44.5678L15.3133 49.5727L13.8666 50.4115L5.99701 54.9547V64.9805L22.5481 55.4174L23.9938 54.5925L32.6743 49.5727L34.1062 48.7478L34.6564 48.4304C39.1847 45.8255 41.9917 40.9499 41.9917 35.7281" fill="black"/>
<path d="M40.9807 53.8493C40.9807 58.5995 38.4285 63.0343 34.3092 65.4024L32.5062 66.4422L24.6118 71.0083L8.24176 80.457V71.3377L16.7153 66.4422L24.6118 61.889L30.3619 58.5736C32.0465 57.5995 33.0853 55.7965 33.0853 53.8493V52.507C33.0853 50.5598 32.0465 48.7568 30.3619 47.7827L24.6118 44.4663L16.7153 39.9141L8.24176 35.0186V25.8993L24.6118 35.348L32.5062 39.9141L34.3092 40.9539C38.4285 43.322 40.9807 47.7568 40.9807 52.507" fill="#F44D03"/>
<path d="M11.8666 48.8692L5.91641 52.5319L5 17.2815L11.8666 20.9441V48.8692Z" fill="black"/>
<path d="M59.3209 58.6124C58.8721 58.6124 58.5219 58.493 58.2661 58.2532C58.0094 58.0134 57.8821 57.7338 57.8821 57.4144V24.762C57.8821 24.4426 58.0094 24.162 58.2661 23.9232C58.5219 23.6834 58.8721 23.563 59.3209 23.563H67.8073C69.6929 23.563 71.3954 23.8993 72.9148 24.5699C74.4322 25.2416 75.6302 26.3281 76.5098 27.8306C77.3893 29.3331 77.8281 31.3311 77.8281 33.8236V48.3518C77.8281 50.8453 77.3893 52.8433 76.5098 54.3458C75.6302 55.8482 74.4322 56.9348 72.9148 57.6064C71.3954 58.2771 69.6929 58.6124 67.8073 58.6124H59.3209ZM61.0472 55.688H67.8073C69.9486 55.688 71.6272 55.0881 72.8421 53.8901C74.056 52.6911 74.665 50.8453 74.665 48.3518V33.8236C74.665 31.3311 74.056 29.4853 72.8421 28.2863C71.6272 27.0873 69.9655 26.4883 67.8561 26.4883H61.0472V55.688Z" fill="#333130"/>
<path d="M92.3096 58.9487C90.6788 58.9487 89.1683 58.5258 87.7783 57.6781C86.3883 56.8313 85.2768 55.7119 84.446 54.3219C83.6142 52.9309 83.1992 51.4373 83.1992 49.8383V44.6603C83.1992 43.0623 83.6072 41.5757 84.4211 40.2016C85.237 38.8275 86.3395 37.725 87.7295 36.8932C89.1206 36.0624 90.6469 35.6464 92.3096 35.6464C93.9394 35.6464 95.4499 36.0534 96.8409 36.8693C98.2309 37.6842 99.3404 38.7708 100.172 40.13C101.003 41.4882 101.419 42.9986 101.419 44.6603V49.8383C101.419 51.4055 101.003 52.8921 100.172 54.298C99.3404 55.705 98.2309 56.8313 96.8409 57.6781C95.4499 58.5258 93.9394 58.9487 92.3096 58.9487ZM92.3096 56.0721C93.428 56.0721 94.4349 55.7766 95.3295 55.1846C96.225 54.5935 96.9434 53.8184 97.4876 52.8592C98.0309 51.901 98.3026 50.8931 98.3026 49.8383V44.6603C98.3026 43.6056 98.0389 42.6155 97.5115 41.6872C96.9842 40.7608 96.2648 40.0026 95.3543 39.4096C94.4429 38.8196 93.428 38.523 92.3096 38.523C91.1902 38.523 90.1823 38.8196 89.2887 39.4096C88.3922 40.0026 87.6738 40.7608 87.1305 41.6872C86.5873 42.6155 86.3166 43.6056 86.3166 44.6603V49.8383C86.3166 50.8931 86.5793 51.901 87.1067 52.8592C87.634 53.8184 88.3604 54.5935 89.2887 55.1846C90.2161 55.7766 91.222 56.0721 92.3096 56.0721Z" fill="#333130"/>
<path d="M108.131 58.6134C107.715 58.6134 107.356 58.486 107.052 58.2293C106.747 57.9746 106.597 57.687 106.597 57.3666V23.2277C106.597 22.8446 106.747 22.5491 107.052 22.3411C107.356 22.1332 107.715 22.0297 108.131 22.0297C108.578 22.0297 108.953 22.1332 109.258 22.3411C109.561 22.5491 109.713 22.8446 109.713 23.2277V46.5309L121.413 36.126C121.669 35.934 121.908 35.8385 122.132 35.8385C122.388 35.8385 122.636 35.9101 122.875 36.0544C123.115 36.1977 123.314 36.3738 123.475 36.5818C123.635 36.7897 123.715 37.0365 123.715 37.324C123.715 37.4852 123.691 37.6365 123.644 37.7808C123.595 37.924 123.506 38.0604 123.379 38.1877L116.331 44.4205L124.626 56.504C124.753 56.695 124.817 56.9199 124.817 57.1746C124.817 57.3985 124.737 57.6393 124.578 57.894C124.418 58.1507 124.202 58.3577 123.931 58.5179C123.66 58.6771 123.395 58.7577 123.139 58.7577C122.756 58.7577 122.436 58.5656 122.181 58.1816L114.125 46.3866L109.713 50.2224V57.3666C109.713 57.687 109.561 57.9746 109.258 58.2293C108.953 58.486 108.579 58.6134 108.131 58.6134Z" fill="#333130"/>
<path d="M132.589 58.8661C132.372 58.8661 132.21 58.8174 132.101 58.7208C131.993 58.6243 131.889 58.4562 131.794 58.2154L126.151 42.8424C126.127 42.7708 126.096 42.6802 126.061 42.5718C126.024 42.4633 126.006 42.3857 126.006 42.3369C126.006 42.1678 126.054 42.0235 126.151 41.9031C126.248 41.7827 126.374 41.6852 126.531 41.6136C126.687 41.5409 126.85 41.5051 127.019 41.5051C127.164 41.5051 127.308 41.5409 127.454 41.6136C127.599 41.6852 127.694 41.7937 127.743 41.9389L132.626 55.503L136.568 43.0603C136.616 42.8673 136.713 42.729 136.857 42.6444C137.003 42.5598 137.17 42.517 137.364 42.517C137.556 42.517 137.719 42.5598 137.851 42.6444C137.985 42.729 138.086 42.8673 138.16 43.0603L141.957 55.6831L146.949 41.9389C147.021 41.6494 147.25 41.5051 147.635 41.5051C147.781 41.5051 147.931 41.535 148.088 41.5956C148.244 41.6553 148.371 41.7459 148.468 41.8663C148.564 41.9877 148.614 42.132 148.614 42.3001C148.614 42.3728 148.601 42.4693 148.577 42.5897C148.553 42.7111 148.516 42.7946 148.469 42.8424L142.827 58.3597C142.754 58.5537 142.65 58.685 142.519 58.7577C142.386 58.8303 142.247 58.8661 142.102 58.8661C141.909 58.8661 141.759 58.8303 141.65 58.7577C141.542 58.685 141.451 58.5646 141.38 58.3955L137.365 45.6643L133.386 58.2154C133.314 58.4323 133.211 58.5955 133.078 58.7029C132.945 58.8114 132.783 58.8661 132.589 58.8661Z" fill="#333130"/>
<path d="M155.448 58.8313C154.05 58.8313 152.868 58.4393 151.903 57.6552C150.938 56.8721 150.457 55.6721 150.457 54.0562C150.457 52.7786 150.812 51.7896 151.523 51.0901C152.234 50.3916 153.223 49.903 154.489 49.6254C155.755 49.3488 157.219 49.2095 158.883 49.2095H160.836V48.2682C160.836 47.4244 160.686 46.5926 160.385 45.7727C160.083 44.9528 159.601 44.2782 158.938 43.7469C158.274 43.2165 157.388 42.9519 156.279 42.9519C155.508 42.9519 154.874 43.0295 154.381 43.1857C153.886 43.3439 153.489 43.512 153.188 43.6931C152.885 43.8732 152.65 43.9638 152.482 43.9638C152.241 43.9638 152.047 43.8494 151.903 43.6205C151.759 43.3916 151.686 43.1807 151.686 42.9877C151.686 42.6981 151.921 42.4265 152.392 42.1738C152.862 41.92 153.458 41.716 154.182 41.5588C154.906 41.4016 155.628 41.323 156.353 41.323C157.92 41.323 159.156 41.6553 160.06 42.318C160.965 42.9817 161.615 43.8374 162.013 44.8862C162.411 45.9349 162.61 47.0623 162.61 48.2682V57.8532C162.61 58.0462 162.533 58.2214 162.376 58.3776C162.219 58.5348 162.008 58.6124 161.743 58.6124C161.502 58.6124 161.297 58.5348 161.128 58.3776C160.959 58.2214 160.875 58.0462 160.875 57.8532V56.0811C160.272 56.7806 159.519 57.4134 158.614 57.9796C157.709 58.5467 156.654 58.8313 155.448 58.8313ZM155.702 57.2393C156.546 57.2393 157.36 57.0283 158.143 56.6064C158.926 56.1846 159.573 55.6662 160.078 55.0512C160.585 54.4363 160.837 53.8632 160.837 53.3328V50.6563H159.066C157.884 50.6563 156.775 50.7229 155.738 50.8553C154.701 50.9886 153.857 51.2901 153.206 51.7597C152.555 52.2294 152.229 52.9707 152.229 53.9846C152.229 55.1179 152.568 55.9438 153.243 56.4612C153.917 56.9796 154.737 57.2393 155.702 57.2393Z" fill="#333130"/>
<path d="M168.362 58.6134C168.121 58.6134 167.915 58.5348 167.747 58.3786C167.577 58.2214 167.494 58.0472 167.494 57.8542V31.6664C167.494 31.4266 167.577 31.2395 167.747 31.1062C167.915 30.9739 168.121 30.9072 168.362 30.9072C168.627 30.9072 168.843 30.9739 169.012 31.1062C169.18 31.2395 169.265 31.4266 169.265 31.6664V57.8542C169.265 58.0472 169.18 58.2214 169.012 58.3786C168.843 58.5348 168.626 58.6134 168.362 58.6134Z" fill="#333130"/>
<path d="M175.523 58.6134C175.282 58.6134 175.076 58.5348 174.908 58.3786C174.739 58.2214 174.655 58.0472 174.655 57.8542V31.6664C174.655 31.4266 174.739 31.2395 174.908 31.1062C175.076 30.9739 175.282 30.9072 175.523 30.9072C175.788 30.9072 176.004 30.9739 176.173 31.1062C176.342 31.2395 176.426 31.4266 176.426 31.6664V57.8542C176.426 58.0472 176.342 58.2214 176.173 58.3786C176.004 58.5348 175.787 58.6134 175.523 58.6134Z" fill="#333130"/>
<path d="M188.398 58.8303C186.927 58.8303 185.632 58.5537 184.511 57.9985C183.389 57.4442 182.502 56.6661 181.852 55.6652C181.201 54.6652 180.876 53.4891 180.876 52.1388V47.8344C180.876 46.6533 181.183 45.5677 181.798 44.5797C182.413 43.5907 183.221 42.8016 184.222 42.2096C185.222 41.6195 186.326 41.324 187.532 41.324C188.713 41.324 189.797 41.6076 190.786 42.1738C191.774 42.7409 192.577 43.512 193.191 44.4882C193.806 45.4653 194.115 46.5926 194.115 47.8702C194.115 48.7627 193.963 49.4075 193.662 49.8055C193.36 50.2035 192.98 50.4453 192.523 50.5289C192.064 50.6145 191.569 50.6563 191.04 50.6563H182.648V52.1746C182.648 53.7179 183.202 54.9418 184.312 55.8463C185.42 56.7507 186.807 57.2025 188.472 57.2025C189.46 57.2025 190.22 57.0821 190.75 56.8413C191.28 56.6005 191.691 56.3587 191.979 56.1169C192.269 55.8771 192.534 55.7557 192.775 55.7557C192.944 55.7557 193.088 55.8045 193.21 55.9C193.33 55.9965 193.427 56.1119 193.5 56.2443C193.571 56.3766 193.607 56.504 193.607 56.6234C193.607 56.8651 193.396 57.1666 192.974 57.5278C192.551 57.89 191.955 58.1975 191.183 58.4502C190.412 58.7039 189.484 58.8303 188.398 58.8303ZM190.351 49.1727C191.171 49.1727 191.714 49.0891 191.979 48.92C192.245 48.7518 192.377 48.4016 192.377 47.8702C192.377 47.0513 192.178 46.2613 191.78 45.5021C191.382 44.7419 190.815 44.121 190.08 43.6384C189.343 43.1568 188.494 42.915 187.53 42.915C186.612 42.915 185.787 43.1329 185.052 43.5668C184.317 44.0006 183.732 44.5797 183.298 45.3031C182.863 46.0255 182.647 46.8215 182.647 47.6901V49.1727H190.351Z" fill="#333130"/>
<path d="M203.228 58.6134C201.443 58.6134 200.082 58.2034 199.141 57.3835C198.201 56.5637 197.73 55.2622 197.73 53.4771V34.0176C197.73 33.7778 197.827 33.5908 198.02 33.4574C198.212 33.3251 198.406 33.2584 198.598 33.2584C198.839 33.2584 199.051 33.3251 199.232 33.4574C199.413 33.5908 199.503 33.7778 199.503 34.0176V41.5409H204.313C204.505 41.5409 204.669 41.6136 204.801 41.7588C204.933 41.9031 205 42.0961 205 42.3369C205 42.53 204.933 42.7051 204.801 42.8613C204.669 43.0185 204.505 43.0961 204.313 43.0961H199.503V53.4771C199.503 54.7318 199.785 55.6244 200.352 56.1537C200.918 56.685 201.877 56.9497 203.228 56.9497H204.132C204.397 56.9497 204.603 57.0283 204.746 57.1845C204.892 57.3418 204.964 57.5408 204.964 57.7816C204.964 57.9985 204.892 58.1915 204.746 58.3607C204.602 58.5298 204.396 58.6134 204.132 58.6134H203.228Z" fill="#333130"/>
</svg>
