<svg width="87" height="20" viewBox="0 0 87 20" fill="none" xmlns="http://www.w3.org/2000/svg">
<g clip-path="url(#clip0_1482_2131)">
<path fill-rule="evenodd" clip-rule="evenodd" d="M24.6063 14.2563V8.66267L23.8081 8.60617C23.7017 8.59362 23.6484 8.5413 23.6484 8.44923V8.20439H24.6063V7.41338C24.6063 7.05763 24.6481 6.74478 24.7317 6.47483C24.8153 6.20488 24.9331 5.97993 25.0852 5.79996C25.2372 5.61999 25.4196 5.48502 25.6325 5.39504C25.8453 5.30505 26.081 5.26006 26.3395 5.26006C26.4573 5.26006 26.5761 5.27157 26.6958 5.29459C26.8155 5.31761 26.9229 5.35004 27.0179 5.3919L27.0008 5.68068C26.9932 5.71835 26.9771 5.74241 26.9524 5.75288C26.9276 5.76334 26.8925 5.76752 26.8469 5.76543C26.8013 5.76334 26.7424 5.75706 26.6701 5.7466C26.5979 5.73613 26.5143 5.7309 26.4193 5.7309C26.233 5.7309 26.061 5.76125 25.9033 5.82193C25.7456 5.88262 25.6097 5.97992 25.4957 6.11385C25.3816 6.24778 25.2933 6.42252 25.2306 6.63806C25.1678 6.8536 25.1365 7.11831 25.1365 7.43221V8.20439H26.978V8.65012H25.1536V14.2563H24.6063ZM30.1919 7.90933C30.5986 7.90933 30.9625 7.98571 31.2837 8.13847C31.6048 8.29123 31.8757 8.50782 32.0961 8.78823C32.3166 9.06865 32.4847 9.4066 32.6007 9.80211C32.7166 10.1976 32.7746 10.6402 32.7746 11.1299C32.7746 11.6196 32.7166 12.0611 32.6007 12.4545C32.4847 12.8479 32.3166 13.1848 32.0961 13.4653C31.8757 13.7457 31.6048 13.9612 31.2837 14.1119C30.9625 14.2625 30.5986 14.3379 30.1919 14.3379C29.7852 14.3379 29.4212 14.2625 29.1001 14.1119C28.7789 13.9612 28.5071 13.7457 28.2848 13.4653C28.0624 13.1848 27.8933 12.8479 27.7774 12.4545C27.6614 12.0611 27.6035 11.6196 27.6035 11.1299C27.6035 10.6402 27.6614 10.1976 27.7774 9.80211C27.8933 9.4066 28.0624 9.06865 28.2848 8.78823C28.5071 8.50782 28.7789 8.29123 29.1001 8.13847C29.4212 7.98571 29.7852 7.90933 30.1919 7.90933ZM30.1919 13.867C30.5301 13.867 30.8257 13.8032 31.0784 13.6756C31.3312 13.5479 31.5421 13.3648 31.7113 13.1262C31.8804 12.8877 32.0068 12.6 32.0904 12.263C32.174 11.9261 32.2158 11.5484 32.2158 11.1299C32.2158 10.7155 32.174 10.3389 32.0904 9.99986C32.0068 9.66086 31.8804 9.37103 31.7113 9.13038C31.5421 8.88972 31.3312 8.70453 31.0784 8.57478C30.8257 8.44504 30.5301 8.38017 30.1919 8.38017C29.8536 8.38017 29.5581 8.44504 29.3053 8.57478C29.0526 8.70453 28.8416 8.88972 28.6725 9.13038C28.5033 9.37103 28.376 9.66086 28.2905 9.99986C28.205 10.3389 28.1622 10.7155 28.1622 11.1299C28.1622 11.5484 28.205 11.9261 28.2905 12.263C28.376 12.6 28.5033 12.8877 28.6725 13.1262C28.8416 13.3648 29.0526 13.5479 29.3053 13.6756C29.5581 13.8032 29.8536 13.867 30.1919 13.867ZM38.2461 14.2563H37.7273C37.6741 14.2563 37.6323 14.2385 37.6019 14.2029C37.5715 14.1673 37.5468 14.1328 37.5278 14.0993L35.806 11.3308C35.7908 11.4061 35.7623 11.4794 35.7205 11.5505L34.0785 14.0993C34.0519 14.137 34.0243 14.1726 33.9958 14.206C33.9673 14.2395 33.9302 14.2563 33.8846 14.2563H33.3943L35.4582 11.0608L33.4741 8.00977H33.993C34.0462 8.00977 34.0861 8.02233 34.1127 8.04744C34.1393 8.07255 34.1621 8.10185 34.1811 8.13533L35.8459 10.7783C35.8535 10.7448 35.8658 10.7093 35.8829 10.6716C35.9001 10.6339 35.9181 10.5963 35.9371 10.5586L37.4936 8.14161C37.5164 8.10394 37.5411 8.07255 37.5677 8.04744C37.5943 8.02233 37.6285 8.00977 37.6703 8.00977H38.1663L36.188 11.0232L38.2461 14.2563ZM39.322 13.7729C39.322 13.6934 39.3353 13.618 39.3619 13.5469C39.3885 13.4757 39.4256 13.414 39.4731 13.3617C39.5206 13.3094 39.5757 13.2675 39.6384 13.2361C39.7011 13.2047 39.7705 13.189 39.8465 13.189C39.9187 13.189 39.9872 13.2047 40.0518 13.2361C40.1164 13.2675 40.1725 13.3094 40.22 13.3617C40.2675 13.414 40.3055 13.4757 40.334 13.5469C40.3625 13.618 40.3768 13.6934 40.3768 13.7729C40.3768 13.8566 40.3625 13.933 40.334 14.002C40.3055 14.0711 40.2675 14.1318 40.22 14.1841C40.1725 14.2364 40.1164 14.2772 40.0518 14.3065C39.9872 14.3358 39.9187 14.3504 39.8465 14.3504C39.6983 14.3504 39.5738 14.295 39.4731 14.1841C39.3724 14.0732 39.322 13.9361 39.322 13.7729ZM46.1163 10.5021C46.1163 10.1673 46.0735 9.86698 45.988 9.60122C45.9025 9.33545 45.7818 9.1105 45.626 8.92635C45.4701 8.74219 45.2849 8.60094 45.0701 8.50259C44.8553 8.40423 44.6187 8.35506 44.3603 8.35506C44.0676 8.35506 43.8054 8.40528 43.5735 8.50573C43.3417 8.60617 43.1412 8.75056 42.972 8.9389C42.8029 9.12724 42.667 9.35324 42.5644 9.61691C42.4617 9.88059 42.3933 10.1756 42.3591 10.5021H46.1163ZM42.3306 10.885V11.0043C42.3306 11.4731 42.38 11.8853 42.4789 12.2411C42.5777 12.5968 42.7183 12.895 42.9007 13.1357C43.0832 13.3763 43.3036 13.5573 43.5621 13.6787C43.8206 13.8001 44.1094 13.8608 44.4287 13.8608C44.7138 13.8608 44.9608 13.8262 45.1699 13.7572C45.3789 13.6881 45.5547 13.6107 45.6972 13.5249C45.8398 13.4391 45.9529 13.3617 46.0365 13.2926C46.1201 13.2236 46.1809 13.189 46.2189 13.189C46.2683 13.189 46.3063 13.21 46.3329 13.2518L46.4812 13.4527C46.39 13.5783 46.2693 13.6954 46.1191 13.8043C45.969 13.9131 45.8018 14.0062 45.6174 14.0836C45.4331 14.1611 45.2354 14.2228 45.0245 14.2688C44.8135 14.3149 44.6016 14.3379 44.3888 14.3379C44.0011 14.3379 43.6476 14.2636 43.3283 14.115C43.0091 13.9664 42.7354 13.7499 42.5074 13.4653C42.2793 13.1807 42.1035 12.8322 41.98 12.42C41.8565 12.0077 41.7947 11.5359 41.7947 11.0043C41.7947 10.5565 41.8527 10.1432 41.9686 9.76444C42.0845 9.38568 42.2517 9.05923 42.4703 8.78509C42.6888 8.51096 42.9568 8.29647 43.2742 8.14161C43.5916 7.98676 43.9517 7.90933 44.3546 7.90933C44.6739 7.90933 44.9703 7.97001 45.244 8.09139C45.5177 8.21276 45.7552 8.38959 45.9567 8.62187C46.1581 8.85415 46.3168 9.13979 46.4327 9.4788C46.5486 9.81781 46.6066 10.207 46.6066 10.6465C46.6066 10.7386 46.5952 10.8013 46.5724 10.8348C46.5496 10.8683 46.5116 10.885 46.4584 10.885H42.3306ZM52.2036 14.2563H51.6848C51.6316 14.2563 51.5898 14.2385 51.5594 14.2029C51.529 14.1673 51.5043 14.1328 51.4853 14.0993L49.7635 11.3308C49.7482 11.4061 49.7197 11.4794 49.6779 11.5505L48.0359 14.0993C48.0093 14.137 47.9818 14.1726 47.9533 14.206C47.9248 14.2395 47.8877 14.2563 47.8421 14.2563H47.3518L49.4157 11.0608L47.4316 8.00977H47.9504C48.0036 8.00977 48.0436 8.02233 48.0702 8.04744C48.0968 8.07255 48.1196 8.10185 48.1386 8.13533L49.8034 10.7783C49.811 10.7448 49.8233 10.7093 49.8404 10.6716C49.8575 10.6339 49.8756 10.5963 49.8946 10.5586L51.451 8.14161C51.4738 8.10394 51.4986 8.07255 51.5252 8.04744C51.5518 8.02233 51.586 8.00977 51.6278 8.00977H52.1238L50.1454 11.0232L52.2036 14.2563ZM56.9796 8.84473C56.9606 8.86566 56.9426 8.88345 56.9255 8.89809C56.9084 8.91274 56.8846 8.92007 56.8542 8.92007C56.8162 8.92007 56.7649 8.89182 56.7003 8.83532C56.6357 8.77881 56.5482 8.71708 56.438 8.65012C56.3278 8.58315 56.19 8.52142 56.0247 8.46492C55.8593 8.40842 55.6588 8.38017 55.4232 8.38017C55.0963 8.38017 54.8065 8.44399 54.5537 8.57165C54.301 8.6993 54.0872 8.8824 53.9123 9.12096C53.7375 9.35952 53.6054 9.6483 53.5161 9.98731C53.4268 10.3263 53.3821 10.7072 53.3821 11.1299C53.3821 11.5693 53.4287 11.9586 53.5218 12.2976C53.6149 12.6366 53.747 12.9222 53.918 13.1545C54.0891 13.3868 54.2962 13.5636 54.5395 13.685C54.7827 13.8064 55.0526 13.867 55.3491 13.867C55.6227 13.867 55.8517 13.8315 56.0361 13.7603C56.2204 13.6892 56.3724 13.6117 56.4922 13.528C56.6119 13.4443 56.706 13.3669 56.7744 13.2958C56.8428 13.2246 56.8998 13.189 56.9454 13.189C56.991 13.189 57.029 13.21 57.0595 13.2518L57.202 13.4527C57.1146 13.5783 57.0043 13.6954 56.8713 13.8043C56.7383 13.9131 56.5881 14.0072 56.4209 14.0868C56.2537 14.1663 56.0722 14.228 55.8764 14.272C55.6807 14.3159 55.4764 14.3379 55.2635 14.3379C54.9025 14.3379 54.5727 14.2657 54.2744 14.1213C53.976 13.9769 53.7194 13.7676 53.5047 13.4935C53.2899 13.2194 53.1227 12.8835 53.003 12.4859C52.8832 12.0883 52.8234 11.6363 52.8234 11.1299C52.8234 10.6528 52.8804 10.2175 52.9944 9.82408C53.1084 9.43067 53.2757 9.09166 53.4961 8.80707C53.7166 8.52247 53.9855 8.3017 54.3029 8.14475C54.6202 7.9878 54.9842 7.90933 55.3947 7.90933C55.7634 7.90933 56.0902 7.9742 56.3753 8.10394C56.6604 8.23369 56.9093 8.40946 57.1222 8.63128L56.9796 8.84473ZM59.1102 9.06446C59.3725 8.7129 59.6718 8.43249 60.0082 8.22322C60.3446 8.01396 60.7218 7.90933 61.1399 7.90933C61.4516 7.90933 61.7262 7.96374 61.9638 8.07255C62.2013 8.18137 62.398 8.33832 62.5538 8.54339C62.7097 8.74847 62.8275 8.9954 62.9073 9.28418C62.9871 9.57297 63.0271 9.89942 63.0271 10.2635V14.2563H62.4797V10.2635C62.4797 9.6776 62.3581 9.21827 62.1148 8.88554C61.8716 8.55281 61.501 8.38645 61.0031 8.38645C60.6344 8.38645 60.2895 8.49003 59.9683 8.6972C59.6471 8.90437 59.3611 9.19211 59.1102 9.56041V14.2563H58.5629V5.12195H59.1102V9.06446ZM68.0311 11.2366C67.4914 11.2575 67.0267 11.3046 66.6371 11.3779C66.2476 11.4511 65.9264 11.5505 65.6736 11.6761C65.4209 11.8016 65.2337 11.9512 65.112 12.1249C64.9904 12.2986 64.9296 12.4964 64.9296 12.7182C64.9296 12.9275 64.961 13.1085 65.0237 13.2612C65.0864 13.414 65.17 13.5395 65.2745 13.6379C65.3791 13.7363 65.4997 13.8084 65.6366 13.8545C65.7734 13.9005 65.9159 13.9235 66.0642 13.9235C66.2846 13.9235 66.487 13.8974 66.6714 13.8451C66.8557 13.7928 67.0267 13.7195 67.1845 13.6253C67.3422 13.5312 67.4895 13.4192 67.6263 13.2895C67.7632 13.1597 67.8981 13.0195 68.0311 12.8689V11.2366ZM64.6959 8.89496C64.9923 8.5685 65.304 8.32158 65.6309 8.15417C65.9577 7.98675 66.3283 7.90305 66.7426 7.90305C67.0467 7.90305 67.3128 7.95641 67.5408 8.06314C67.7689 8.16986 67.958 8.32262 68.1081 8.52142C68.2582 8.72022 68.3713 8.96087 68.4473 9.24338C68.5233 9.52588 68.5613 9.84082 68.5613 10.1882V14.2563H68.3447C68.2307 14.2563 68.1604 14.1977 68.1337 14.0805L68.0539 13.2769C67.8981 13.4443 67.7432 13.595 67.5893 13.7289C67.4353 13.8629 67.2747 13.9759 67.1075 14.0679C66.9403 14.16 66.7597 14.2312 66.5659 14.2814C66.372 14.3316 66.1592 14.3567 65.9273 14.3567C65.7335 14.3567 65.5453 14.3253 65.3629 14.2625C65.1805 14.1998 65.018 14.1035 64.8754 13.9738C64.7329 13.844 64.6189 13.6777 64.5334 13.4747C64.4478 13.2717 64.4051 13.0279 64.4051 12.7433C64.4051 12.4796 64.4735 12.2348 64.6103 12.0088C64.7472 11.7828 64.9619 11.5861 65.2546 11.4187C65.5472 11.2513 65.9226 11.1173 66.3806 11.0169C66.8386 10.9164 67.3888 10.8578 68.0311 10.8411V10.1882C68.0311 9.61063 67.918 9.16595 67.6919 8.85415C67.4657 8.54235 67.1303 8.38645 66.6856 8.38645C66.4119 8.38645 66.1791 8.4283 65.9872 8.51201C65.7952 8.59571 65.6328 8.68779 65.4997 8.78823C65.3667 8.88868 65.2584 8.98075 65.1748 9.06446C65.0911 9.14816 65.0208 9.19002 64.9638 9.19002C64.922 9.19002 64.8878 9.17955 64.8612 9.15863C64.8346 9.1377 64.8118 9.1105 64.7928 9.07701L64.6959 8.89496ZM70.9143 9.10213C71.1766 8.74219 71.4797 8.45341 71.8237 8.23578C72.1676 8.01814 72.5506 7.90933 72.9725 7.90933C73.2842 7.90933 73.5588 7.96374 73.7963 8.07255C74.0339 8.18137 74.2306 8.33832 74.3864 8.54339C74.5422 8.74847 74.6601 8.9954 74.7399 9.28418C74.8197 9.57297 74.8596 9.89942 74.8596 10.2635V14.2563H74.3123V10.2635C74.3123 9.6776 74.1907 9.21827 73.9474 8.88554C73.7041 8.55281 73.3336 8.38645 72.8356 8.38645C72.467 8.38645 72.122 8.49003 71.8009 8.6972C71.4797 8.90437 71.1937 9.19211 70.9428 9.56041V14.2563H70.3955V8.00977H70.6977C70.7927 8.00977 70.8478 8.06209 70.863 8.16672L70.9143 9.10213ZM78.541 11.494C78.7842 11.494 79.0009 11.4553 79.1909 11.3779C79.381 11.3004 79.5406 11.1927 79.6698 11.0545C79.7991 10.9164 79.8979 10.7511 79.9663 10.5586C80.0347 10.3661 80.0689 10.1526 80.0689 9.91825C80.0689 9.68388 80.0338 9.46938 79.9635 9.27477C79.8931 9.08015 79.7924 8.91379 79.6613 8.77568C79.5302 8.63756 79.3705 8.53084 79.1824 8.4555C78.9942 8.38017 78.7804 8.3425 78.541 8.3425C78.3015 8.3425 78.0877 8.38017 77.8996 8.4555C77.7114 8.53084 77.5518 8.63756 77.4207 8.77568C77.2895 8.91379 77.1898 9.08015 77.1214 9.27477C77.0529 9.46938 77.0187 9.68388 77.0187 9.91825C77.0187 10.1526 77.0529 10.3661 77.1214 10.5586C77.1898 10.7511 77.2895 10.9164 77.4207 11.0545C77.5518 11.1927 77.7114 11.3004 77.8996 11.3779C78.0877 11.4553 78.3015 11.494 78.541 11.494ZM80.6619 14.6769C80.6619 14.4802 80.6153 14.3222 80.5222 14.2029C80.4291 14.0836 80.3046 13.9905 80.1488 13.9235C79.9929 13.8566 79.8133 13.8095 79.61 13.7823C79.4066 13.7551 79.1938 13.7352 78.9714 13.7226C78.7491 13.7101 78.5258 13.6975 78.3015 13.685C78.0773 13.6724 77.8663 13.6473 77.6687 13.6096C77.5242 13.6724 77.3912 13.7446 77.2696 13.8262C77.148 13.9078 77.0434 14.001 76.956 14.1056C76.8686 14.2102 76.8002 14.3243 76.7508 14.4477C76.7014 14.5712 76.6766 14.7041 76.6766 14.8464C76.6766 15.0305 76.7194 15.2011 76.8049 15.358C76.8904 15.515 77.0159 15.651 77.1812 15.7661C77.3466 15.8812 77.549 15.9722 77.7884 16.0392C78.0279 16.1062 78.3034 16.1396 78.6151 16.1396C78.904 16.1396 79.1729 16.1041 79.4218 16.0329C79.6708 15.9618 79.8874 15.8613 80.0718 15.7316C80.2561 15.6018 80.4006 15.447 80.5051 15.267C80.6096 15.087 80.6619 14.8903 80.6619 14.6769ZM81.2548 8.286V8.49317C81.2548 8.58525 81.2016 8.64175 81.0952 8.66267L80.2286 8.73173C80.335 8.89077 80.4167 9.06864 80.4737 9.26535C80.5307 9.46206 80.5593 9.6755 80.5593 9.90569C80.5593 10.207 80.5108 10.4801 80.4139 10.725C80.3169 10.9698 80.1801 11.1791 80.0034 11.3527C79.8266 11.5264 79.6138 11.6614 79.3648 11.7577C79.1159 11.8539 78.8413 11.9021 78.541 11.9021C78.2179 11.9021 77.9233 11.8477 77.6573 11.7388C77.4976 11.8393 77.3713 11.9575 77.2781 12.0935C77.185 12.2296 77.1385 12.3645 77.1385 12.4985C77.1385 12.6784 77.1964 12.8165 77.3123 12.9128C77.4283 13.0091 77.5803 13.0792 77.7685 13.1231C77.9566 13.1671 78.1713 13.1953 78.4127 13.2079C78.6541 13.2204 78.9002 13.234 79.151 13.2487C79.4019 13.2633 79.648 13.2895 79.8893 13.3271C80.1307 13.3648 80.3455 13.4307 80.5336 13.5249C80.7217 13.6191 80.8738 13.7509 80.9897 13.9204C81.1056 14.0899 81.1636 14.3149 81.1636 14.5953C81.1636 14.8548 81.1047 15.1038 80.9869 15.3423C80.869 15.5809 80.6989 15.7923 80.4766 15.9764C80.2542 16.1606 79.9853 16.3081 79.6698 16.419C79.3544 16.5299 79.0009 16.5854 78.6094 16.5854C78.2103 16.5854 77.8606 16.5404 77.5604 16.4504C77.2601 16.3604 77.0083 16.239 76.8049 16.0863C76.6016 15.9335 76.4486 15.7567 76.346 15.5558C76.2434 15.3549 76.192 15.1414 76.192 14.9154C76.192 14.5848 76.2909 14.3013 76.4885 14.0648C76.6861 13.8283 76.956 13.6431 77.2981 13.5092C77.1081 13.4381 76.9551 13.3345 76.8391 13.1984C76.7232 13.0624 76.6652 12.8772 76.6652 12.6429C76.6652 12.555 76.6805 12.4629 76.7109 12.3666C76.7413 12.2704 76.7869 12.1751 76.8477 12.081C76.9085 11.9868 76.9826 11.8979 77.07 11.8142C77.1575 11.7305 77.2563 11.6551 77.3665 11.5882C77.0966 11.4166 76.8867 11.1885 76.7365 10.9039C76.5864 10.6193 76.5113 10.2866 76.5113 9.90569C76.5113 9.60435 76.5598 9.33127 76.6567 9.08643C76.7536 8.84159 76.8914 8.63129 77.07 8.4555C77.2487 8.27972 77.4625 8.1437 77.7114 8.04744C77.9604 7.95118 78.2369 7.90305 78.541 7.90305C78.7918 7.90305 79.0227 7.93653 79.2337 8.0035C79.4446 8.07046 79.6337 8.16463 79.801 8.286H81.2548ZM86.5097 10.5021C86.5097 10.1673 86.467 9.86698 86.3815 9.60122C86.2959 9.33545 86.1753 9.1105 86.0194 8.92635C85.8636 8.74219 85.6783 8.60094 85.4636 8.50259C85.2488 8.40423 85.0122 8.35506 84.7537 8.35506C84.4611 8.35506 84.1988 8.40528 83.967 8.50573C83.7351 8.60617 83.5346 8.75056 83.3655 8.9389C83.1963 9.12724 83.0604 9.35324 82.9578 9.61691C82.8552 9.88059 82.7868 10.1756 82.7526 10.5021H86.5097ZM82.7241 10.885V11.0043C82.7241 11.4731 82.7735 11.8853 82.8723 12.2411C82.9711 12.5968 83.1118 12.895 83.2942 13.1357C83.4766 13.3763 83.6971 13.5573 83.9556 13.6787C84.214 13.8001 84.5029 13.8608 84.8222 13.8608C85.1072 13.8608 85.3543 13.8262 85.5633 13.7572C85.7724 13.6881 85.9482 13.6107 86.0907 13.5249C86.2332 13.4391 86.3463 13.3617 86.4299 13.2926C86.5135 13.2236 86.5744 13.189 86.6124 13.189C86.6618 13.189 86.6998 13.21 86.7264 13.2518L86.8746 13.4527C86.7834 13.5783 86.6627 13.6954 86.5126 13.8043C86.3625 13.9131 86.1952 14.0062 86.0109 14.0836C85.8265 14.1611 85.6289 14.2228 85.4179 14.2688C85.207 14.3149 84.9951 14.3379 84.7822 14.3379C84.3945 14.3379 84.0411 14.2636 83.7218 14.115C83.4025 13.9664 83.1289 13.7499 82.9008 13.4653C82.6727 13.1807 82.497 12.8322 82.3734 12.42C82.2499 12.0077 82.1881 11.5359 82.1881 11.0043C82.1881 10.5565 82.2461 10.1432 82.362 9.76444C82.478 9.38568 82.6452 9.05923 82.8637 8.78509C83.0823 8.51096 83.3503 8.29647 83.6676 8.14161C83.985 7.98676 84.3451 7.90933 84.748 7.90933C85.0673 7.90933 85.3638 7.97001 85.6374 8.09139C85.9111 8.21276 86.1487 8.38959 86.3501 8.62187C86.5516 8.85415 86.7102 9.13979 86.8262 9.4788C86.9421 9.81781 87.0001 10.207 87.0001 10.6465C87.0001 10.7386 86.9887 10.8013 86.9658 10.8348C86.943 10.8683 86.905 10.885 86.8518 10.885H82.7241Z" />
<path d="M8.02743 18.4291V18.7805H7.48939C7.44647 18.7805 7.40546 18.7605 7.37601 18.7254L6.59697 17.7943L0.0925492 14.5343C0.029646 14.5027 -0.00746024 14.4284 0.00126317 14.3514L0.2804 11.8883C0.284085 11.8558 0.29577 11.825 0.314132 11.7996L3.40393 7.52102C3.40905 7.51394 3.41464 7.50731 3.42067 7.50121L5.17202 5.72852C5.18732 5.71304 5.20518 5.70113 5.22457 5.69346L7.90391 4.63416L8.00708 4.96576L5.35712 6.01345L3.638 7.75352L0.583982 11.9826L0.325182 14.2663L6.75221 17.4876C6.77108 17.497 6.7881 17.5106 6.80227 17.5276L7.55663 18.4291H8.02743Z" />
<path d="M2.11625 0.507711L1.18133 11.2195L0.86792 11.1843L1.82999 0.161323C1.842 0.0237291 1.98123 -0.0469329 2.0796 0.0346434L7.81056 4.78718L7.62475 5.07577L2.11625 0.507711Z" />
<path d="M5.42387 5.6557L5.16104 5.85366L1.7356 0.197954L1.99843 0L5.42387 5.6557Z" />
<path d="M5.20703 5.93279L5.51851 5.85364C6.1838 9.0361 6.61629 11.3398 6.81622 12.7669L6.81713 12.7735L6.8176 12.7801C6.91884 14.2076 6.9586 15.8012 6.93698 17.561L6.61736 17.5562C6.63883 15.8094 6.59948 14.2286 6.4994 12.8142C6.30054 11.3971 5.86967 9.10257 5.20703 5.93279Z" />
<path d="M2.52434 12.9811L0.433838 12.0344L0.547142 11.7073L2.69729 12.681L6.72561 17.3128L6.50742 17.5609L2.52434 12.9811Z" />
<path d="M0.40918 12.116L0.350983 11.7649L4.14967 10.9788C4.30311 10.9471 4.40211 11.1547 4.29293 11.2793L2.71075 13.0845C2.69949 13.0974 2.68655 13.1083 2.67237 13.1168L0.151567 14.6341L0 14.3198L2.49942 12.8154L3.71122 11.4327L0.40918 12.116Z" />
<path d="M6.50884 11.7382L6.26721 11.9513L3.47144 7.77416L3.71307 7.56104L6.50884 11.7382Z" />
<path d="M4.80005 15.6098L4.55615 15.4153L6.04791 12.9269L6.29181 13.1214L4.80005 15.6098Z" />
<path d="M1.95264 15.4089L2.14497 15.1219L5.97056 18.4842L6.85627 19.4296C7.02706 19.4927 7.18258 19.5357 7.32257 19.5587C7.47716 19.5842 7.71254 19.6111 8.02745 19.6394L8.00279 20C7.68166 19.9712 7.44034 19.9435 7.27761 19.9168C7.10907 19.889 6.92474 19.8369 6.72427 19.7607L6.69156 19.7483L5.76624 18.7606L1.95264 15.4089Z" />
<path d="M7.71041 18.6254H8.0274V19.319C8.0274 19.4496 7.9232 19.5425 7.82102 19.5031L5.64087 18.661L5.73665 18.2927L7.71041 19.0551V18.6254Z" />
<path d="M4.98999 6.02149L5.27437 5.85364L8.0274 11.4564L8.00164 17.2878L7.85537 17.3022C7.59082 17.3284 7.39422 17.3719 7.26886 17.4296C7.13558 17.4909 6.93071 17.6164 6.65802 17.8049L6.48574 17.5054C6.77229 17.3074 6.99041 17.1737 7.14387 17.1031C7.27745 17.0417 7.45556 16.9968 7.68006 16.9666L7.70401 11.5448L4.98999 6.02149Z" />
<path d="M7.82012 11.2195L8.02749 11.4622L6.71617 12.9268L6.50879 12.6841L7.82012 11.2195Z" />
<path d="M3.91403 11.2641C3.88126 11.1586 3.94389 11.0463 4.04445 11.0303C4.55942 10.9485 5.00446 10.9581 5.37992 11.0612C5.77229 11.169 6.15819 11.4878 6.54227 12.0107C6.55915 12.0337 6.57057 12.0609 6.57549 12.0899L6.72292 12.9599C6.74284 13.0775 6.65372 13.1827 6.54545 13.1696C5.76317 13.0747 5.21694 12.9359 4.89813 12.7455C4.47586 12.5244 4.15089 12.027 3.91403 11.2641ZM5.30105 11.4069C5.01757 11.329 4.68059 11.3115 4.29034 11.3557C4.49209 11.9179 4.74462 12.2719 5.04128 12.4256C5.04427 12.4272 5.04721 12.4288 5.0501 12.4306C5.29408 12.5776 5.73394 12.6983 6.36331 12.7869L6.2638 12.1997C5.92937 11.7531 5.60701 11.4909 5.30105 11.4069Z" />
<path d="M7.5935 18.427L7.78279 18.7805H8.32268C8.36575 18.7805 8.40691 18.7604 8.43646 18.725L9.21818 17.7884L15.745 14.5087C15.8081 14.477 15.8454 14.4023 15.8366 14.3248L15.5565 11.8469C15.5528 11.8142 15.5411 11.7833 15.5227 11.7577L12.4222 7.45338C12.4171 7.44626 12.4115 7.43959 12.4054 7.43345L10.648 5.65012C10.6327 5.63455 10.6148 5.62256 10.5953 5.61484L7.97205 4.63416L7.80321 4.88278L10.4623 5.93676L12.1874 7.68728L15.2519 11.9417L15.5116 14.2392L9.0624 17.4798C9.04347 17.4893 9.02639 17.503 9.01217 17.52L8.25521 18.427H7.5935Z" />
<path d="M13.7216 0.507711L14.6566 11.2195L14.97 11.1843L14.0079 0.161323C13.9959 0.0237291 13.8567 -0.0469329 13.7583 0.0346434L8.02733 4.78718L8.21314 5.07577L13.7216 0.507711Z" />
<path d="M10.414 5.6557L10.6769 5.85366L14.1023 0.197954L13.8395 0L10.414 5.6557Z" />
<path d="M10.8479 5.93279L10.5364 5.85364C9.87113 9.0361 9.43864 11.3398 9.23871 12.7669L9.2378 12.7735L9.23733 12.7801C9.13609 14.2076 9.09633 15.8012 9.11795 17.561L9.43757 17.5562C9.4161 15.8094 9.45545 14.2286 9.55553 12.8142C9.75439 11.3971 10.1853 9.10257 10.8479 5.93279Z" />
<path d="M13.3136 12.9811L15.4041 12.0344L15.2907 11.7073L13.1406 12.681L9.11228 17.3128L9.33047 17.5609L13.3136 12.9811Z" />
<path d="M15.4704 12.1246L15.526 11.7709L11.8967 10.9789C11.7501 10.9469 11.6555 11.1561 11.7599 11.2816L13.2715 13.1005C13.2823 13.1134 13.2946 13.1244 13.3082 13.133L15.6931 14.6341L15.8379 14.3451L13.4734 12.8293L12.3156 11.4361L15.4704 12.1246Z" />
<path d="M9.32929 11.7382L9.57093 11.9513L12.3667 7.77416L12.1251 7.56104L9.32929 11.7382Z" />
<path d="M11.0378 15.6098L11.2817 15.4153L9.78997 12.9269L9.54607 13.1214L11.0378 15.6098Z" />
<path d="M13.8853 15.4089L13.6929 15.1219L9.86733 18.4842L8.98162 19.4296C8.81083 19.4927 8.65531 19.5357 8.51533 19.5587C8.36073 19.5842 8.12535 19.6111 7.81044 19.6394L7.97552 20C8.29665 19.9712 8.39755 19.9435 8.56028 19.9168C8.72882 19.889 8.91315 19.8369 9.11362 19.7607L9.14633 19.7483L10.0717 18.7606L13.8853 15.4089Z" />
<path d="M8.05435 18.6239H7.81052V19.3143C7.81052 19.3902 7.80771 19.466 7.85763 19.4976C7.89319 19.5201 7.97439 19.5139 8.0169 19.4976L10.197 18.6593L10.1012 18.2927L8.05435 19.0517V18.6239Z" />
<path d="M10.8479 6.02149L10.5635 5.85364L7.81049 11.4564L7.83625 17.2878L7.98252 17.3022C8.24707 17.3284 8.44367 17.3719 8.56903 17.4296C8.70231 17.4909 8.90719 17.6164 9.17987 17.8049L9.35215 17.5054C9.0656 17.3074 8.84748 17.1737 8.69402 17.1031C8.56044 17.0417 8.38233 16.9968 8.15783 16.9666L8.13388 11.5448L10.8479 6.02149Z" />
<path d="M8.01778 11.2195L7.8104 11.4622L9.12172 12.9268L9.3291 12.6841L8.01778 11.2195Z" />
<path d="M11.9239 11.2641C11.9566 11.1586 11.894 11.0463 11.7934 11.0303C11.2785 10.9485 10.8334 10.9581 10.458 11.0612C10.0656 11.169 9.67971 11.4878 9.29562 12.0107C9.27874 12.0337 9.26733 12.0609 9.26241 12.0899L9.11497 12.9599C9.09506 13.0775 9.18417 13.1827 9.29244 13.1696C10.0747 13.0747 10.6209 12.9359 10.9398 12.7455C11.362 12.5244 11.687 12.027 11.9239 11.2641ZM10.5368 11.4069C10.8203 11.329 11.1573 11.3115 11.5476 11.3557C11.3458 11.9179 11.0933 12.2719 10.7966 12.4256C10.7936 12.4272 10.7907 12.4288 10.7878 12.4306C10.5438 12.5776 10.104 12.6983 9.47458 12.7869L9.5741 12.1997C9.90853 11.7531 10.2309 11.4909 10.5368 11.4069Z" />
</g>
<defs>
<clipPath id="clip0_1482_2131">
<rect width="87" height="20" fill="white"/>
</clipPath>
</defs>
</svg>
