<svg class="svg-icon" style="width: 1em;height: 1em;vertical-align: middle;fill: currentColor;overflow: hidden;"
    viewBox="0 0 1024 1024" version="1.1" xmlns="http://www.w3.org/2000/svg">
    <path
        d="M538.947368 538.947368v188.631579a26.947368 26.947368 0 1 1-53.894736 0V538.947368H296.421053a26.947368 26.947368 0 0 1 0-53.894736H485.052632V296.421053a26.947368 26.947368 0 0 1 53.894736 0V485.052632h188.631579a26.947368 26.947368 0 1 1 0 53.894736H538.947368z m-26.947368 485.052632a512 512 0 1 1 0-1024 512 512 0 0 1 0 1024z m0-53.894737a458.105263 458.105263 0 1 0 0-916.210526 458.105263 458.105263 0 0 0 0 916.210526z" />
</svg>