<svg width="21" height="22" viewBox="0 0 21 22" fill="none" xmlns="http://www.w3.org/2000/svg">
<path d="M5.40133 1.45971L2.13175 4.6512H4.74077C4.92159 4.6512 5.08765 4.57541 5.20697 4.45491C5.32752 4.33316 5.40133 4.16794 5.40133 3.98408V1.45971ZM4.37544 11.377C4.13803 11.377 3.9449 11.1832 3.9449 10.9422C3.9449 10.7012 4.13803 10.5062 4.37544 10.5062H12.681C12.9184 10.5062 13.1115 10.7012 13.1115 10.9422C13.1115 11.1832 12.9184 11.377 12.681 11.377H4.37544ZM4.37544 8.64024C4.13803 8.64024 3.9449 8.4452 3.9449 8.2042C3.9449 7.96319 4.13803 7.76938 4.37544 7.76938H12.681C12.9184 7.76938 13.1115 7.96319 13.1115 8.2042C13.1115 8.4452 12.9184 8.64024 12.681 8.64024H4.37544ZM4.37544 14.1163C4.13803 14.1163 3.9449 13.9213 3.9449 13.6803C3.9449 13.4393 4.13803 13.2455 4.37544 13.2455H8.96612C9.20352 13.2455 9.39666 13.4393 9.39666 13.6803C9.39666 13.9213 9.20352 14.1163 8.96612 14.1163H4.37544ZM16.9838 16.2543H16.7932H15.0858H14.8951H14.8915C14.8681 16.2556 14.8472 16.2655 14.8324 16.2804C14.8152 16.2978 14.8053 16.3202 14.8053 16.345V17.9265C14.8053 17.9526 14.8152 17.9749 14.8324 17.9911L14.8312 17.9923C14.8484 18.0085 14.8705 18.0184 14.8964 18.0184H16.9838C17.0084 18.0184 17.0318 18.0072 17.0478 17.9911C17.0638 17.9749 17.0749 17.9526 17.0749 17.9265V16.345C17.0749 16.3202 17.0638 16.2978 17.0478 16.2804C17.0318 16.2643 17.0109 16.2543 16.9888 16.2543H16.9838ZM16.2384 14.7785C16.1634 14.7015 16.0576 14.6542 15.9407 14.6542C15.8239 14.6542 15.7181 14.7015 15.643 14.7785L15.6418 14.781C15.5655 14.8567 15.5188 14.9636 15.5188 15.0816V15.3847H16.3651V15.0816C16.3651 14.9636 16.3171 14.8555 16.2421 14.781L16.2384 14.7785ZM15.9407 13.7846C16.2925 13.7846 16.6124 13.93 16.8461 14.166L16.8473 14.1673C17.0798 14.4021 17.2249 14.7275 17.2249 15.0816V15.4158C17.391 15.4605 17.5398 15.5475 17.6579 15.6667C17.8301 15.8419 17.9371 16.0817 17.9371 16.3463V17.9277C17.9371 18.1923 17.8301 18.4333 17.6579 18.6073C17.4857 18.7812 17.2471 18.8905 16.9851 18.8905H14.8976C14.6381 18.8905 14.3994 18.7812 14.2272 18.6073H14.226C14.0538 18.4333 13.9467 18.1923 13.9467 17.9277V16.3463C13.9467 16.0817 14.0538 15.8419 14.226 15.6667C14.3441 15.5475 14.4917 15.4605 14.659 15.4158V15.0816C14.659 14.7275 14.8041 14.4021 15.0366 14.1673L15.0378 14.166C15.2679 13.93 15.5889 13.7846 15.9407 13.7846ZM19.1451 18.2694C19.5609 17.5053 19.7884 16.6332 19.7884 15.7214V14.3499L15.9407 12.1386L12.0942 14.3486V15.7201C12.0942 16.6308 12.3218 17.5041 12.7363 18.2681C13.1533 19.0321 13.761 19.693 14.5224 20.18L15.9407 21.0881L17.359 20.18C18.1204 19.6943 18.7281 19.0346 19.1451 18.2694ZM15.5582 11.3621V1.54046C15.5582 1.35784 15.4831 1.19013 15.3638 1.06838C15.2433 0.946638 15.0784 0.872103 14.8976 0.872103H6.26362V3.98532C6.26362 4.4077 6.09264 4.79282 5.8171 5.07109C5.54156 5.35061 5.16023 5.52205 4.74077 5.52205H1.49949V18.9576C1.49949 19.139 1.57453 19.3067 1.69385 19.4284C1.81316 19.5502 1.97922 19.6247 2.16005 19.6247H12.6121C12.3735 19.3328 12.1631 19.0185 11.9823 18.6868C11.4964 17.7936 11.2319 16.7786 11.2319 15.7214V14.2232C11.2319 14.1076 11.2627 13.9933 11.3217 13.894C11.3759 13.7995 11.457 13.7163 11.5579 13.6604V13.6592L15.5582 11.3621ZM13.4805 20.4943H2.16128C1.74305 20.4943 1.36172 20.3204 1.08495 20.0434C0.809409 19.7639 0.638428 19.38 0.638428 18.9576V5.09843V5.08725C0.638428 4.95183 0.69993 4.83134 0.795877 4.75059L5.53541 0.122987L5.5391 0.119262L5.54279 0.115537V0.114296L5.54648 0.110571L5.55016 0.108078V0.106837L5.55386 0.104353L5.55755 0.100628L5.56124 0.0969035L5.56493 0.0931787H5.56616L5.56861 0.0906859L5.57231 0.0869611L5.57354 0.0857194L5.57723 0.0832362L5.58092 0.0807529L5.58215 0.0795113L5.58461 0.0770281L5.5883 0.0745448L5.58953 0.0732937L5.59199 0.0708105L5.59568 0.0683272L5.59691 0.0670856L5.59937 0.065844L5.6043 0.0621191L5.60552 0.0608775L5.60798 0.0596359L5.61167 0.0571431L5.61413 0.0559015L5.61536 0.0546599H5.62889L5.63135 0.0534183L5.63258 0.0521766L5.63751 0.0496934L5.63997 0.0484518L5.6412 0.0472101L5.64488 0.0447269L5.64857 0.0434853L5.6498 0.0422436L5.65473 0.041002L5.65842 0.0385093H5.65965L5.66456 0.036026L5.66702 0.0347844L5.66825 0.0335428L5.67318 0.0323012L5.67687 0.0310596L5.68179 0.0285763L5.68547 0.0260931L5.6904 0.0248514L5.69409 0.0236098L5.69901 0.0223587L5.70392 0.0198755L5.70885 0.0186338L5.71377 0.0173922L5.71869 0.0161506L5.72361 0.014909L5.72853 0.0136673L5.73345 0.0124257L5.73837 0.0111841L5.74329 0.00994247L5.74698 0.00870084L5.7519 0.00745922H5.75313L5.76174 0.0062176H5.76297L5.76666 0.0049665H5.77158H5.77281L5.77651 0.00372487H5.78142H5.78265L5.78634 0.00248325H5.79127H5.7925H5.79496H5.79987H5.80233L5.80479 0.00124162H5.80972H5.81218H5.81341H5.81833H5.82078H5.82201V0H14.8865C15.306 0 15.6861 0.173922 15.9616 0.450956C16.2372 0.730475 16.4094 1.11435 16.4094 1.53797V11.4143L20.3137 13.6579C20.4133 13.7163 20.4945 13.7983 20.5499 13.8927L20.5511 13.8964C20.6064 13.9933 20.6384 14.1064 20.6384 14.2219V15.7201C20.6384 16.7773 20.374 17.7923 19.8868 18.6855C19.3997 19.5787 18.6924 20.349 17.8092 20.9142L16.2851 21.8994L16.2802 21.9006C16.1744 21.9665 16.0564 22 15.9407 22C15.8239 22 15.707 21.9665 15.6012 21.9006L15.5963 21.8994L14.0611 20.9155C13.857 20.7863 13.6638 20.6446 13.4805 20.4943Z" />
</svg>
