<svg width="24" height="24" viewBox="0 0 24 24" fill="none" xmlns="http://www.w3.org/2000/svg">
<rect width="24" height="24" rx="10" fill="black"/>
<path d="M15.9302 10.1887C15.9302 9.11125 15.3511 8.1054 14.4169 7.5682L14.3034 7.50251L14.008 7.33234L12.2172 6.29694L11.9189 6.12656L8.50439 4.15387V6.22222L10.1279 7.15929L10.4264 7.33234L12.2172 8.36508L12.5157 8.53812L13.5217 9.1172C13.9035 9.33808 14.1392 9.74699 14.1392 10.1887V10.4932C14.1392 10.9349 13.9035 11.3436 13.5217 11.5647L12.5157 12.1436L12.2172 12.3168L10.4264 13.3493L10.1279 13.5224L8.50439 14.4597V16.528L11.9189 14.5551L12.2172 14.385L14.008 13.3493L14.3034 13.1792L14.4169 13.1137C15.3511 12.5763 15.9302 11.5704 15.9302 10.4932" fill="white"/>
<path d="M15.7214 14.2316C15.7214 15.2116 15.1949 16.1265 14.3451 16.6151L13.9731 16.8296L12.3445 17.7716L8.96729 19.7209V17.8395L10.7154 16.8296L12.3445 15.8902L13.5307 15.2063C13.8783 15.0053 14.0926 14.6333 14.0926 14.2316V13.9547C14.0926 13.553 13.8783 13.181 13.5307 12.9801L12.3445 12.2959L10.7154 11.3567L8.96729 10.3468V8.46545L12.3445 10.4147L13.9731 11.3567L14.3451 11.5713C15.1949 12.0598 15.7214 12.9747 15.7214 13.9547" fill="#F44D03"/>
<path d="M9.71518 13.2042L8.48764 13.9598L8.29858 6.68756L9.71518 7.44318V13.2042Z" fill="white"/>
</svg>
