<svg class="svg-icon" style="width: 1em; height: 1em;vertical-align: middle;fill: currentColor;overflow: hidden;" viewBox="0 0 1024 1024" version="1.1" xmlns="http://www.w3.org/2000/svg"><path d="M512 304c-114.4 0-208 93.6-208 208s93.6 208 208 208 208-93.6 208-208-93.6-208-208-208z m0-208C283.202 96 96 283.202 96 512s187.202 416 416 416 416-187.202 416-416S740.798 96 512 96z m0 748.8c-183.036 0-332.8-149.766-332.8-332.8S328.964 179.2 512 179.2 844.8 328.964 844.8 512 695.036 844.8 512 844.8z"  /></svg>