<svg width="109" height="101" viewBox="0 0 109 101" fill="none" xmlns="http://www.w3.org/2000/svg">
<path d="M92.2999 82.5001L27.0998 72.4001C25.0998 72.1001 23.7998 70.2001 24.0998 68.3001L30.7998 25.1001C31.0998 23.1001 32.9998 21.8001 34.8998 22.1001L100.1 32.1001C102.1 32.4001 103.4 34.3001 103.1 36.2001L96.3998 79.5001C96.0998 81.5001 94.2999 82.9001 92.2999 82.5001Z" fill="#FF4C00"/>
<path d="M50.2998 41.7001C55.436 41.7001 59.5998 37.5363 59.5998 32.4001C59.5998 27.2639 55.436 23.1001 50.2998 23.1001C45.1635 23.1001 40.9998 27.2639 40.9998 32.4001C40.9998 37.5363 45.1635 41.7001 50.2998 41.7001Z" fill="white"/>
<path d="M48.7998 42.1002C43.4998 41.3002 39.7998 36.3002 40.5998 31.0002C41.3998 25.7002 46.3998 22.0002 51.6998 22.8002C56.9998 23.6002 60.6998 28.6002 59.8998 33.9002C59.1998 39.3002 54.1998 42.9002 48.7998 42.1002ZM51.6998 23.7002C46.8998 23.0002 42.3998 26.3002 41.5998 31.1002C40.8998 35.9002 44.1998 40.4002 48.9998 41.2002C53.7998 41.9002 58.2998 38.6002 59.0998 33.8002C59.7998 29.0002 56.4998 24.5002 51.6998 23.7002Z" fill="black"/>
<path d="M50.2999 40.1002C54.5525 40.1002 57.9999 36.6528 57.9999 32.4002C57.9999 28.1476 54.5525 24.7002 50.2999 24.7002C46.0473 24.7002 42.5999 28.1476 42.5999 32.4002C42.5999 36.6528 46.0473 40.1002 50.2999 40.1002Z" fill="#FF4C00"/>
<path d="M51.4999 32.8002L48.7999 32.4002C48.4999 32.4002 48.3999 32.1002 48.3999 31.9002C48.3999 31.7002 48.6999 31.5002 48.8999 31.5002L51.5999 31.9002C52.3999 32.0002 53.1999 31.5002 53.2999 30.7002C53.3999 29.9002 52.8999 29.1002 52.0999 29.0002L46.9999 28.1002C46.6999 28.1002 46.5999 27.8002 46.5999 27.6002C46.5999 27.4002 46.8999 27.2002 47.0999 27.2002L52.1999 28.0002C53.4999 28.2002 54.3999 29.4002 54.1999 30.8002C54.0999 32.1002 52.7999 33.0002 51.4999 32.8002Z" fill="black"/>
<path d="M51.3998 37.1004L45.6998 36.2004C45.3998 36.2004 45.2998 35.9004 45.2998 35.7004C45.2998 35.4004 45.5998 35.3004 45.7998 35.3004L51.4998 36.2004C52.3998 36.3004 53.1998 35.7004 53.3998 34.8004C53.4998 33.9004 52.8998 33.1004 51.9998 32.9004L48.1998 32.3004C47.8998 32.3004 47.7998 32.0004 47.7998 31.8004C47.7998 31.5004 48.0998 31.4004 48.2998 31.4004L52.0998 32.0004C53.4998 32.2004 54.4998 33.5004 54.2998 35.0004C54.1998 36.3004 52.7998 37.3004 51.3998 37.1004Z" fill="black"/>
<path d="M51.8998 28.6001C51.5998 28.6001 51.4998 28.3001 51.4998 28.1001L51.6998 26.5001C51.6998 26.2001 51.9998 26.1001 52.1998 26.1001C52.4998 26.1001 52.5998 26.4001 52.5998 26.6001L52.3998 28.2001C52.3998 28.5001 52.0998 28.6001 51.8998 28.6001Z" fill="black"/>
<path d="M49.4999 28.2002C49.1999 28.2002 49.0999 27.9002 49.0999 27.7002L49.2999 26.1002C49.2999 25.8002 49.5999 25.7002 49.7999 25.7002C50.0999 25.7002 50.1999 26.0002 50.1999 26.2002L49.9999 27.8002C49.9999 28.1002 49.7999 28.3002 49.4999 28.2002Z" fill="black"/>
<path d="M50.2999 38.7002C49.9999 38.7002 49.8999 38.4002 49.8999 38.2002L50.0999 36.6002C50.0999 36.3002 50.3999 36.2002 50.5999 36.2002C50.7999 36.2002 50.9999 36.5002 50.9999 36.7002L50.7999 38.3002C50.7999 38.6002 50.5999 38.7002 50.2999 38.7002Z" fill="black"/>
<path d="M47.9999 38.3003C47.6999 38.3003 47.5999 38.0003 47.5999 37.8003L47.7999 36.2003C47.7999 35.9003 48.0999 35.8003 48.2999 35.8003C48.4999 35.8003 48.6999 36.1003 48.6999 36.3003L48.4999 37.9003C48.4999 38.2003 48.1999 38.4003 47.9999 38.3003Z" fill="black"/>
<path d="M47.2999 36.4002C46.9999 36.4002 46.8999 36.1002 46.8999 35.9002L48.0999 28.1002C48.0999 27.8002 48.3999 27.7002 48.5999 27.7002C48.8999 27.7002 48.9999 28.0002 48.9999 28.2002L47.7999 36.0002C47.7999 36.3002 47.5999 36.5002 47.2999 36.4002Z" fill="black"/>
<path d="M61.1998 29.9C67.3853 29.9 72.3998 24.8856 72.3998 18.7C72.3998 12.5144 67.3853 7.5 61.1998 7.5C55.0142 7.5 49.9998 12.5144 49.9998 18.7C49.9998 24.8856 55.0142 29.9 61.1998 29.9Z" fill="white"/>
<path d="M63.1998 30.3002C56.7998 31.4002 50.6998 27.0002 49.5998 20.6002C48.4998 14.2002 52.8998 8.10022 59.2998 7.00022C65.6998 5.90022 71.7998 10.3002 72.8998 16.7002C73.9998 23.1002 69.5998 29.2002 63.1998 30.3002ZM59.4998 8.10022C53.6998 9.10022 49.6998 14.6002 50.6998 20.4002C51.6998 26.2002 57.1998 30.1002 62.9998 29.2002C68.7998 28.2002 72.6998 22.7002 71.7998 16.9002C70.7998 11.1002 65.2998 7.20022 59.4998 8.10022Z" fill="black"/>
<path d="M61.1999 28.0004C66.3361 28.0004 70.4999 23.8366 70.4999 18.7004C70.4999 13.5641 66.3361 9.40039 61.1999 9.40039C56.0636 9.40039 51.8999 13.5641 51.8999 18.7004C51.8999 23.8366 56.0636 28.0004 61.1999 28.0004Z" fill="#FF4C00"/>
<path d="M62.7999 18.6002L59.5999 19.1002C59.2999 19.2002 58.9999 18.9002 58.8999 18.6002C58.7999 18.3002 59.0999 18.0002 59.3999 17.9002L62.5999 17.4002C63.5999 17.2002 64.1999 16.3002 64.0999 15.3002C63.8999 14.3002 62.9999 13.7002 61.9999 13.8002L55.7999 14.8002C55.4999 14.9002 55.1999 14.6002 55.0999 14.3002C54.9999 14.0002 55.2999 13.7002 55.5999 13.6002L61.7999 12.6002C63.3999 12.3002 64.8999 13.4002 65.1999 15.0002C65.3999 16.8002 64.2999 18.3002 62.7999 18.6002Z" fill="black"/>
<path d="M64.3 23.5003L57.4 24.7004C57.1 24.8004 56.8 24.5004 56.7 24.2004C56.6 23.9004 56.9 23.6003 57.2 23.5003L64.1 22.3003C65.2 22.1003 65.9 21.1003 65.7 20.0003C65.5 18.9003 64.5 18.2004 63.4 18.4004L58.8 19.2004C58.5 19.3004 58.2 19.0004 58.1 18.7004C58 18.4004 58.3 18.1003 58.6 18.0003L63.2 17.2004C64.9 16.9004 66.5 18.1003 66.8 19.8003C67.1 21.6003 66 23.3004 64.3 23.5003Z" fill="black"/>
<path d="M61.5999 13.7002C61.2999 13.8002 60.9999 13.5002 60.8999 13.2002L60.5999 11.3002C60.4999 11.0002 60.7999 10.7002 61.0999 10.6002C61.3999 10.5002 61.6999 10.8002 61.6999 11.1002L61.9999 13.0002C62.0999 13.3002 61.8999 13.6002 61.5999 13.7002Z" fill="black"/>
<path d="M58.7999 14.2002C58.4999 14.3002 58.1999 14.0002 58.0999 13.7002L57.7999 11.8002C57.6999 11.5002 57.9999 11.2002 58.2999 11.1002C58.5999 11.0002 58.8999 11.3002 58.9999 11.6002L59.2999 13.5002C59.2999 13.8002 59.0999 14.1002 58.7999 14.2002Z" fill="black"/>
<path d="M63.5999 25.8003C63.2999 25.9003 62.9999 25.6003 62.8999 25.3003L62.5999 23.4003C62.4999 23.1003 62.7999 22.8003 63.0999 22.7003C63.3999 22.6003 63.6999 22.9003 63.7999 23.2003L64.0999 25.1003C64.0999 25.5003 63.8999 25.8003 63.5999 25.8003Z" fill="black"/>
<path d="M60.7999 26.3003C60.4999 26.4003 60.1999 26.1003 60.0999 25.8003L59.7999 23.9003C59.6999 23.6003 59.9999 23.3003 60.2999 23.2003C60.5999 23.1003 60.8999 23.4003 60.9999 23.7003L61.2999 25.6003C61.2999 26.0003 61.0999 26.3003 60.7999 26.3003Z" fill="black"/>
<path d="M59.2998 24.4004C58.9998 24.5004 58.6998 24.2004 58.5998 23.9004L56.9998 14.5004C56.8998 14.2004 57.1998 13.9004 57.4998 13.8004C57.7998 13.7004 58.0998 14.0004 58.1998 14.3004L59.7998 23.7004C59.8998 24.0004 59.6998 24.3004 59.2998 24.4004Z" fill="black"/>
<path d="M84.4997 50.3002C89.636 50.3002 93.7997 46.1364 93.7997 41.0002C93.7997 35.8639 89.636 31.7002 84.4997 31.7002C79.3635 31.7002 75.1997 35.8639 75.1997 41.0002C75.1997 46.1364 79.3635 50.3002 84.4997 50.3002Z" fill="white"/>
<path d="M83.0998 50.7003C77.7998 49.9003 74.0998 44.9003 74.8998 39.6003C75.6998 34.3003 80.6998 30.6003 85.9998 31.4003C91.2998 32.2003 94.9998 37.2003 94.1998 42.5003C93.3998 47.8003 88.3998 51.5003 83.0998 50.7003ZM85.8998 32.3003C81.0998 31.6003 76.5998 34.9003 75.7998 39.7003C75.0998 44.5003 78.3998 49.0003 83.1998 49.8003C87.9998 50.5003 92.4998 47.2003 93.2998 42.4003C93.9998 37.6003 90.6998 33.0003 85.8998 32.3003Z" fill="black"/>
<path d="M84.5999 48.7003C88.8525 48.7003 92.2999 45.2529 92.2999 41.0003C92.2999 36.7477 88.8525 33.3003 84.5999 33.3003C80.3473 33.3003 76.8999 36.7477 76.8999 41.0003C76.8999 45.2529 80.3473 48.7003 84.5999 48.7003Z" fill="#FF4C00"/>
<path d="M85.7999 41.4004L83.0999 41.0004C82.7999 41.0004 82.6999 40.7004 82.6999 40.5004C82.6999 40.3004 82.9999 40.1004 83.1999 40.1004L85.8999 40.5004C86.6999 40.6004 87.4999 40.1004 87.5999 39.3004C87.6999 38.5004 87.1999 37.7004 86.3999 37.6004L81.2999 36.8004C80.9999 36.8004 80.8999 36.5004 80.8999 36.3004C80.8999 36.1004 81.1999 35.9004 81.3999 35.9004L86.4999 36.7004C87.7999 36.9004 88.6999 38.1004 88.4999 39.5004C88.2999 40.7004 87.0999 41.6004 85.7999 41.4004Z" fill="black"/>
<path d="M85.6999 45.6004L79.9999 44.7004C79.6999 44.7004 79.5999 44.4004 79.5999 44.2004C79.5999 43.9004 79.8999 43.8004 80.0999 43.8004L85.7999 44.7004C86.6999 44.8004 87.4999 44.2004 87.6999 43.3004C87.7999 42.4004 87.1999 41.6004 86.2999 41.4004L82.4999 40.8004C82.1999 40.8004 82.0999 40.5004 82.0999 40.3004C82.0999 40.0004 82.3999 39.9004 82.5999 39.9004L86.3999 40.5004C87.7999 40.7004 88.7999 42.0004 88.5999 43.5004C88.3999 44.9004 87.0999 45.9004 85.6999 45.6004Z" fill="black"/>
<path d="M86.1 37.2002C85.8 37.2002 85.7 36.9002 85.7 36.7002L85.9 35.1002C85.9 34.8002 86.2 34.7002 86.4 34.7002C86.7 34.7002 86.8 35.0002 86.8 35.2002L86.6 36.8002C86.6 37.1002 86.4 37.2002 86.1 37.2002Z" fill="black"/>
<path d="M83.7999 36.8003C83.4999 36.8003 83.3999 36.5003 83.3999 36.3003L83.5999 34.7003C83.5999 34.4003 83.8999 34.3003 84.0999 34.3003C84.3999 34.3003 84.4999 34.6003 84.4999 34.8003L84.2999 36.4003C84.2999 36.7003 84.0999 36.9003 83.7999 36.8003Z" fill="black"/>
<path d="M84.6 47.3003C84.3 47.3003 84.2 47.0003 84.2 46.8003L84.4 45.2003C84.4 44.9003 84.7 44.8003 84.9 44.8003C85.1 44.8003 85.3 45.1003 85.3 45.3003L85.1 46.9003C85.1 47.2003 84.8 47.3003 84.6 47.3003Z" fill="black"/>
<path d="M82.1998 46.9004C81.8998 46.9004 81.7998 46.6004 81.7998 46.4004L81.9998 44.8004C81.9998 44.5004 82.2998 44.4004 82.4998 44.4004C82.7998 44.4004 82.8998 44.7004 82.8998 44.9004L82.6998 46.5004C82.6998 46.8004 82.4998 47.0004 82.1998 46.9004Z" fill="black"/>
<path d="M81.6 45.0003C81.3 45.0003 81.2 44.7003 81.2 44.5003L82.4 36.7003C82.4 36.4003 82.7 36.3003 82.9 36.3003C83.2 36.3003 83.3 36.6003 83.3 36.8003L82.1 44.6003C82.1 44.9003 81.8 45.1003 81.6 45.0003Z" fill="black"/>
<path d="M91.4 79.5002L31 70.1002C30.1 70.0002 29.5 69.1002 29.6 68.2002L34.6 36.0002C34.7 35.1002 35.6 34.5002 36.5 34.6002L96.9 43.9002C97.8 44.0002 98.4 44.9002 98.3 45.8002L93.3 78.0002C93.2 79.0002 92.3 79.6002 91.4 79.5002Z" fill="url(#paint0_linear_2116_20663)"/>
<path d="M56.0999 71.5002L23.6999 66.5002C22.1999 66.3002 21.0999 64.8002 21.3999 63.3002L22.7999 54.3002C22.9999 52.8002 24.4999 51.7002 25.9999 52.0002L58.3999 57.0002C59.8999 57.2002 60.9999 58.7002 60.6999 60.2002L59.2999 69.2002C58.9999 70.7002 57.5999 71.8002 56.0999 71.5002Z" fill="#FF4C00"/>
<path d="M55.8999 68.6003L52.8999 68.1003C52.5999 68.1003 52.3999 67.8003 52.4999 67.5003L53.6999 60.1003C53.6999 59.8003 53.9999 59.6003 54.2999 59.7003L57.2999 60.2003C57.5999 60.2003 57.7999 60.5003 57.6999 60.8003L56.4999 68.3003C56.3999 68.5003 56.1999 68.6003 55.8999 68.6003Z" fill="url(#paint1_linear_2116_20663)"/>
<path d="M87.3999 59.5001C87.6999 57.6001 86.9999 55.7001 85.5999 54.4001L85.3999 54.3001L84.8999 53.9001L82.0999 51.5001L81.5999 51.1001L76.1999 46.6001L75.5999 50.2001L78.1999 52.3001L78.6999 52.7001L81.4999 55.1001L81.9999 55.5001L83.5999 56.8001C84.1999 57.3001 84.4999 58.1001 84.3999 58.9001L84.2999 59.4001C84.1999 60.2001 83.5999 60.8001 82.8999 61.1001L80.9999 61.8001L80.3999 62.0001L76.8999 63.3001L76.2999 63.5001L73.1999 64.6001L72.5999 68.2001L79.1999 65.8001L79.7999 65.6001L83.2999 64.3001L83.8999 64.1001L84.0999 64.0001C85.8999 63.3001 87.1999 61.8001 87.5999 59.9001" fill="white"/>
<path d="M85.7999 66.4999C85.4999 68.1999 84.2999 69.6999 82.6999 70.1999L81.9999 70.4999L78.8999 71.5999L72.3999 73.9999L72.9999 70.6999L76.3999 69.4999L79.4999 68.3999L81.7999 67.5999C82.4999 67.3999 82.9999 66.7999 83.0999 66.0999L83.1999 65.5999C83.2999 64.8999 83.0999 64.1999 82.4999 63.6999L80.5999 62.0999L77.9999 59.9999L75.2999 57.6999L75.8999 54.3999L81.1999 58.8999L83.7999 61.0999L84.3999 61.5999C85.6999 62.6999 86.3999 64.4999 86.0999 66.1999" fill="#FF4C00"/>
<path d="M75.6 62.9L73.2 63.8L75.1 51L77.4 52.8L75.6 62.9Z" fill="white"/>
<path d="M95.6 25.4001C102.448 25.4001 108 19.8484 108 13.0001C108 6.15177 102.448 0.600098 95.6 0.600098C88.7516 0.600098 83.2 6.15177 83.2 13.0001C83.2 19.8484 88.7516 25.4001 95.6 25.4001Z" fill="white"/>
<path d="M90.9999 25.2001C84.2999 22.7001 80.8999 15.1001 83.4999 8.40008C85.9999 1.70008 93.5999 -1.69992 100.3 0.900082C107 3.40008 110.4 11.0001 107.8 17.7001C105.2 24.3001 97.6999 27.7001 90.9999 25.2001ZM99.7999 2.00008C93.6999 -0.299917 86.8999 2.80008 84.5999 8.80008C82.2999 14.9001 85.3999 21.7001 91.3999 24.0001C97.4999 26.3001 104.3 23.2001 106.6 17.2001C108.9 11.1001 105.8 4.30008 99.7999 2.00008Z" fill="black"/>
<path d="M95.5999 23.2003C101.233 23.2003 105.8 18.6336 105.8 13.0003C105.8 7.36699 101.233 2.80029 95.5999 2.80029C89.9666 2.80029 85.3999 7.36699 85.3999 13.0003C85.3999 18.6336 89.9666 23.2003 95.5999 23.2003Z" fill="#FF4C00"/>
<path d="M93.0999 19.8005C92.9999 19.7004 92.7999 19.6005 92.7999 19.5005L90.6999 11.7005C90.5999 11.5005 90.6999 11.3005 90.8999 11.2005C91.0999 11.1005 91.2999 11.1005 91.4999 11.3005L95.1999 14.6004L99.9999 14.4005C100.2 14.4005 100.4 14.5005 100.5 14.7005C100.6 14.9005 100.5 15.1005 100.3 15.2005L93.4999 19.7005C93.3999 19.9005 93.2999 19.9005 93.0999 19.8005ZM92.0999 13.0005L93.5999 18.6004L98.3999 15.4005L95.0999 15.5005C94.9999 15.5005 94.8999 15.5005 94.7999 15.4005L92.0999 13.0005Z" fill="black"/>
<path d="M91.1 11.9003C91 11.8003 90.9 11.7003 90.8 11.6003C90.7 11.4003 90.8 11.2003 90.9 11.1003L98.3 4.90029C98.4 4.80029 98.6 4.80029 98.8 4.80029C99 4.90029 99.1 5.00029 99.1 5.20029L100.6 14.7003C100.6 14.9003 100.5 15.1003 100.4 15.2003C100.2 15.3003 100 15.3003 99.9 15.2003L96.4 12.3003L91.4 12.0003C91.2 11.9003 91.1 11.9003 91.1 11.9003ZM98.3 6.20029L92.5 11.1003L96.5 11.3003C96.6 11.3003 96.7 11.3003 96.8 11.4003L99.5 13.6003L98.3 6.20029Z" fill="black"/>
<path d="M13 39.4999C19.5169 39.4999 24.7999 34.2169 24.7999 27.6999C24.7999 21.1829 19.5169 15.8999 13 15.8999C6.48299 15.8999 1.19995 21.1829 1.19995 27.6999C1.19995 34.2169 6.48299 39.4999 13 39.4999Z" fill="white"/>
<path d="M16.6999 39.6C10.1999 41.7 3.19994 38 1.09994 31.5C-1.00006 25 2.69994 18 9.19994 15.9C15.6999 13.8 22.6999 17.5 24.7999 24C26.8999 30.5 23.2999 37.5 16.6999 39.6ZM9.59994 17C3.69994 18.9 0.399937 25.2 2.29994 31.1C4.19994 37 10.4999 40.3 16.3999 38.4C22.2999 36.5 25.5999 30.2 23.6999 24.3C21.7999 18.4 15.4999 15.1 9.59994 17Z" fill="black"/>
<path d="M13 37.4999C18.4123 37.4999 22.7999 33.1123 22.7999 27.6999C22.7999 22.2875 18.4123 17.8999 13 17.8999C7.58756 17.8999 3.19995 22.2875 3.19995 27.6999C3.19995 33.1123 7.58756 37.4999 13 37.4999Z" fill="#FF4C00"/>
<path d="M13.8999 26.2002C13.6999 26.3002 13.3999 26.2002 13.1999 26.0002C12.9999 25.7002 12.9999 25.3002 13.2999 25.1002L15.2999 23.5002C15.5999 23.3002 15.9999 23.3002 16.1999 23.6002C16.3999 23.9002 16.3999 24.3002 16.0999 24.5002L14.0999 26.1002C14.0999 26.1002 13.9999 26.2002 13.8999 26.2002Z" fill="black"/>
<path d="M8.19998 30.9004C7.99998 31.0004 7.69998 30.9004 7.49998 30.7004C7.29998 30.4004 7.29998 30.0004 7.59998 29.8004L9.59998 28.2004C9.89998 28.0004 10.3 28.0004 10.5 28.3004C10.7 28.6004 10.7 29.0004 10.4 29.2004L8.39999 30.8004C8.39999 30.8004 8.29998 30.9004 8.19998 30.9004Z" fill="black"/>
<path d="M13.7999 33.4002L10.7 34.4002C10.5 34.5002 10.2999 34.4002 10.0999 34.3002C9.89995 34.2002 9.79995 34.0002 9.79995 33.8002L9.19995 21.4002C9.19995 21.1002 9.39995 20.8002 9.59995 20.8002L12.7 19.8002C12.9 19.7002 13.0999 19.8002 13.2999 19.9002C13.4999 20.0002 13.5999 20.2002 13.5999 20.4002L14.2 32.8002C14.2 33.1002 14.0999 33.3002 13.7999 33.4002ZM11.0999 32.9002L12.9 32.3002L12.4 21.2002L10.5999 21.8002L11.0999 32.9002Z" fill="black"/>
<path d="M18.8 31.8002L10.7 34.4002C10.4 34.5002 10 34.3002 9.90004 34.0002C9.80004 33.7002 10 33.3002 10.3 33.2002L18.4 30.6002C18.7 30.5002 19.1 30.7002 19.2 31.0002C19.4 31.3002 19.2 31.7002 18.8 31.8002Z" fill="black"/>
<path d="M91.2 100.7C98.1035 100.7 103.7 95.1033 103.7 88.1997C103.7 81.2961 98.1035 75.6997 91.2 75.6997C84.2964 75.6997 78.7 81.2961 78.7 88.1997C78.7 95.1033 84.2964 100.7 91.2 100.7Z" fill="white"/>
<path d="M95.3999 100.2C88.7999 102.5 81.4999 98.9999 79.1999 92.2999C76.8999 85.6999 80.3999 78.3998 87.0999 76.0998C93.6999 73.7998 101 77.2998 103.3 83.9998C105.6 90.5998 102 97.8998 95.3999 100.2ZM87.4999 77.2999C81.4999 79.3999 78.2999 85.8998 80.3999 91.8998C82.4999 97.8998 88.9999 101.1 94.9999 98.9998C101 96.8998 104.2 90.3998 102.1 84.3998C100 78.3998 93.4999 75.1999 87.4999 77.2999Z" fill="black"/>
<path d="M91.3 98.1997C96.8229 98.1997 101.3 93.7226 101.3 88.1997C101.3 82.6769 96.8229 78.1997 91.3 78.1997C85.7772 78.1997 81.3 82.6769 81.3 88.1997C81.3 93.7226 85.7772 98.1997 91.3 98.1997Z" fill="#FF4C00"/>
<path d="M93.5999 95.5998L92.8999 93.5998C91.3999 93.9998 90.3999 93.7998 89.7999 93.5998L90.1999 92.4998C90.7999 92.7998 91.8999 92.8998 92.9999 92.5998C94.3999 92.0998 94.7999 91.1998 94.4999 90.3998C94.1999 89.4998 93.2999 89.2998 92.1999 89.1998L91.1999 89.0998C89.8999 88.9998 88.7999 88.5998 88.2999 87.2998C87.7999 85.8998 88.5999 84.6998 89.8999 83.9998L89.1999 82.0998L90.1999 81.7998L90.7999 83.6998C91.9999 83.3998 92.7999 83.5998 93.1999 83.6998L92.7999 84.7998C92.2999 84.4998 91.3999 84.5998 90.6999 84.7998C89.5999 85.1998 89.0999 85.9998 89.3999 86.8998C89.6999 87.7998 90.4999 87.9998 91.5999 88.0998L92.4999 88.1998C93.8999 88.3998 95.0999 88.5998 95.4999 89.8998C95.8999 91.0998 95.4999 92.4998 93.7999 93.2998L94.4999 95.2998L93.5999 95.5998Z" fill="black"/>
<defs>
<linearGradient id="paint0_linear_2116_20663" x1="31.835" y1="52.4832" x2="103.284" y2="62.6438" gradientUnits="userSpaceOnUse">
<stop stop-color="#3F2C22"/>
<stop offset="1"/>
</linearGradient>
<linearGradient id="paint1_linear_2116_20663" x1="30.9692" y1="60.7433" x2="95.2327" y2="69.8051" gradientUnits="userSpaceOnUse">
<stop stop-color="#3F2C22"/>
<stop offset="1"/>
</linearGradient>
</defs>
</svg>
