<svg width="122" height="124" viewBox="0 0 122 124" fill="none" xmlns="http://www.w3.org/2000/svg">
<g filter="url(#filter0_d_2116_20543)">
<path d="M7.7002 79.1001C12.8002 84.2001 19.6002 86.4001 26.1002 89.2001C32.7002 92.1001 37.6002 96.5001 42.7002 101.5C53.0002 111.6 65.0002 116 79.5002 114.6C87.0002 113.9 94.5002 111.9 101.3 108.7" stroke="#FF4C00" stroke-miterlimit="10" stroke-linecap="round"/>
<path d="M105.1 106.7C105.1 106.7 113 102.8 116.9 98.3003" stroke="#FF4C00" stroke-miterlimit="10" stroke-linecap="round"/>
<path d="M55.4001 6.2002H106.2" stroke="black" stroke-width="1.25" stroke-miterlimit="10"/>
<path d="M96.5 98.4002L55.5 98.0002C52.6 98.0002 50.4 95.6002 50.6 92.7002L55.5 6.30019C55.7 3.50019 58.1 1.2002 60.9 1.2002H101.3C104.2 1.2002 106.4 3.50019 106.2 6.30019L102.1 93.2002C101.9 96.1002 99.4 98.4002 96.5 98.4002Z" stroke="black" stroke-width="1.25" stroke-miterlimit="10"/>
<path d="M62.4 3.50019C62.4 3.90019 62 4.30019 61.6 4.30019C61.2 4.30019 60.8 3.90019 60.8 3.50019C60.8 3.10019 61.2 2.7002 61.6 2.7002C62.1 2.7002 62.4 3.10019 62.4 3.50019Z" fill="black"/>
<path d="M65.9 3.50019C65.9 3.90019 65.5 4.30019 65.1 4.30019C64.7 4.30019 64.3 3.90019 64.3 3.50019C64.3 3.10019 64.7 2.7002 65.1 2.7002C65.5 2.7002 65.9 3.10019 65.9 3.50019Z" fill="black"/>
<path d="M69.3 3.50019C69.3 3.90019 68.9 4.30019 68.5 4.30019C68.1 4.30019 67.7 3.90019 67.7 3.50019C67.7 3.10019 68.1 2.7002 68.5 2.7002C68.9 2.7002 69.3 3.10019 69.3 3.50019Z" fill="black"/>
<path d="M94.3 69.9003L40.8 81.1003C39.2 81.4003 37.6 80.4003 37.2 78.8003L29.7 43.3003C29.4 41.7003 30.4 40.1003 32 39.7003L85.4 28.5003C87 28.2003 88.6 29.2003 89 30.8003L96.5 66.3003C96.9 68.0003 95.9 69.5003 94.3 69.9003Z" fill="black"/>
<path d="M46.3528 53.588C50.6007 53.3926 53.8859 49.7907 53.6906 45.5428C53.4953 41.2948 49.8933 38.0096 45.6454 38.2049C41.3975 38.4002 38.1122 42.0022 38.3075 46.2501C38.5029 50.498 42.1048 53.7833 46.3528 53.588Z" fill="white"/>
<path d="M47.6 53.8001C43.2 54.7001 38.9 51.9001 38 47.5001C37.1 43.1001 39.9 38.8001 44.3 37.9001C48.7 37.0001 53 39.8001 53.9 44.2001C54.8 48.6001 52 52.9001 47.6 53.8001ZM44.5 38.7001C40.6 39.5001 38 43.4001 38.8 47.4001C39.6 51.3001 43.5 53.9001 47.5 53.1001C51.4 52.3001 54 48.4001 53.2 44.4001C52.3 40.4001 48.4 37.9001 44.5 38.7001Z" fill="black"/>
<path d="M45.9999 52.3C49.5345 52.3 52.3999 49.4346 52.3999 45.9C52.3999 42.3654 49.5345 39.5 45.9999 39.5C42.4652 39.5 39.5999 42.3654 39.5999 45.9C39.5999 49.4346 42.4652 52.3 45.9999 52.3Z" fill="#FF4C00"/>
<path d="M47.0001 45.7999L44.8001 46.2999C44.6001 46.2999 44.4001 46.1999 44.3001 45.9999C44.3001 45.7999 44.4001 45.5999 44.6001 45.4999L46.8001 44.9999C47.5001 44.8999 47.9001 44.1999 47.7001 43.5999C47.6001 42.8999 46.9001 42.4999 46.3001 42.6999L42.1001 43.5999C41.9001 43.5999 41.7001 43.4999 41.6001 43.2999C41.5001 43.0999 41.7001 42.8999 41.9001 42.7999L46.1001 41.8999C47.2001 41.6999 48.2001 42.3999 48.5001 43.3999C48.8001 44.4999 48.1001 45.4999 47.0001 45.7999Z" fill="black"/>
<path d="M48.2 49.1L43.5 50.1C43.3 50.1 43.1 50 43 49.8C43 49.6 43.1 49.4 43.3 49.3L48 48.3C48.7 48.1 49.2 47.4 49.1 46.7C49 46 48.2 45.5 47.5 45.6L44.4 46.3C44.2 46.3 44 46.2 43.9 46C43.9 45.8 44 45.6 44.2 45.5L47.3 44.8C48.5 44.6 49.6 45.3 49.8 46.5C50.1 47.7 49.4 48.9 48.2 49.1Z" fill="black"/>
<path d="M46.1 42.4C45.9 42.4 45.7 42.3 45.6 42.1L45.3 40.8C45.3 40.6 45.4 40.4 45.6 40.3C45.8 40.2 46 40.4 46.1 40.6L46.4 41.9C46.4 42.2 46.3 42.4 46.1 42.4Z" fill="black"/>
<path d="M44.2001 42.7999C44.0001 42.7999 43.8001 42.6999 43.7001 42.4999L43.4001 41.1999C43.4001 40.9999 43.5001 40.7999 43.7001 40.6999C43.9001 40.5999 44.1001 40.7999 44.2001 40.9999L44.5001 42.2999C44.5001 42.5999 44.4001 42.7999 44.2001 42.7999Z" fill="black"/>
<path d="M47.8 50.6998C47.6 50.6998 47.4 50.5998 47.3 50.3998L47 49.0998C47 48.8998 47.1 48.6998 47.3 48.5998C47.5 48.4998 47.7 48.6998 47.8 48.8998L48.1 50.1998C48.2 50.4998 48 50.6998 47.8 50.6998Z" fill="black"/>
<path d="M45.9001 51.1002C45.7001 51.1002 45.5001 51.0002 45.4001 50.8002L45.1001 49.5002C45.1001 49.3002 45.2001 49.1002 45.4001 49.0002C45.6001 48.9002 45.8001 49.1002 45.9001 49.3002L46.2001 50.6002C46.3001 50.9002 46.1001 51.1002 45.9001 51.1002Z" fill="black"/>
<path d="M44.8 49.8001C44.6 49.8001 44.4 49.7001 44.3 49.5001L43 43.1001C43 42.9001 43.1 42.7001 43.3 42.6001C43.5 42.6001 43.7 42.7001 43.8 42.9001L45.1 49.3001C45.2 49.6001 45.1 49.8001 44.8 49.8001Z" fill="black"/>
<path d="M60.4489 45.6881C64.6969 45.4927 67.9821 41.8908 67.7868 37.6429C67.5915 33.3949 63.9895 30.1097 59.7416 30.305C55.4937 30.5003 52.2084 34.1023 52.4037 38.3502C52.5991 42.5981 56.201 45.8834 60.4489 45.6881Z" fill="white"/>
<path d="M61.7001 45.9002C57.3001 46.8002 53.0001 44.0002 52.1001 39.6002C51.2001 35.2002 54.0001 30.9002 58.4001 30.0002C62.8001 29.1002 67.1001 31.9002 68.0001 36.3002C68.9001 40.7002 66.1001 45.0002 61.7001 45.9002ZM58.6001 30.9002C54.7001 31.7002 52.1001 35.6002 52.9001 39.6002C53.7001 43.5002 57.6001 46.1002 61.6001 45.3002C65.5001 44.5002 68.1001 40.6002 67.3001 36.6002C66.4001 32.6002 62.5001 30.0002 58.6001 30.9002Z" fill="black"/>
<path d="M60.1 44.4001C63.6346 44.4001 66.5 41.5347 66.5 38.0001C66.5 34.4655 63.6346 31.6001 60.1 31.6001C56.5653 31.6001 53.7 34.4655 53.7 38.0001C53.7 41.5347 56.5653 44.4001 60.1 44.4001Z" fill="#FF4C00"/>
<path d="M61.0999 37.9L58.8999 38.4C58.6999 38.4 58.4999 38.3 58.3999 38.1C58.2999 37.9 58.4999 37.7 58.6999 37.6L60.8999 37.1C61.5999 37 61.9999 36.3 61.7999 35.7C61.6999 35 60.9999 34.6 60.3999 34.8L56.1999 35.7C55.9999 35.7 55.7999 35.6 55.6999 35.4C55.5999 35.2 55.7999 35 55.9999 34.9L60.1999 34C61.2999 33.8 62.2999 34.5 62.5999 35.5C62.8999 36.7 62.1999 37.7 61.0999 37.9Z" fill="black"/>
<path d="M62.2999 41.3002L57.5999 42.3002C57.3999 42.3002 57.1999 42.2002 57.0999 42.0002C57.0999 41.8002 57.1999 41.6002 57.3999 41.5002L62.0999 40.5002C62.7999 40.3002 63.2999 39.6002 63.1999 38.9002C63.0999 38.2002 62.2999 37.7002 61.5999 37.8002L58.4999 38.5002C58.2999 38.5002 58.0999 38.4002 57.9999 38.2002C57.8999 38.0002 58.0999 37.8002 58.2999 37.7002L61.3999 37.0002C62.5999 36.8002 63.6999 37.5002 63.8999 38.7002C64.1999 39.9002 63.3999 41.0002 62.2999 41.3002Z" fill="black"/>
<path d="M60.1999 34.6002C59.9999 34.6002 59.7999 34.5002 59.6999 34.3002L59.3999 33.0002C59.3999 32.8002 59.4999 32.6002 59.6999 32.5002C59.8999 32.4002 60.0999 32.6002 60.1999 32.8002L60.4999 34.1002C60.4999 34.3002 60.3999 34.6002 60.1999 34.6002Z" fill="black"/>
<path d="M58.3 35.0004C58.1 35.0004 57.9 34.9004 57.8 34.7004L57.5 33.4004C57.5 33.2004 57.6 33.0004 57.8 32.9004C58 32.9004 58.2 33.0004 58.3 33.2004L58.6 34.5004C58.6 34.7004 58.5 35.0004 58.3 35.0004Z" fill="black"/>
<path d="M61.8999 42.9C61.6999 42.9 61.4999 42.8 61.3999 42.6L61.0999 41.3C61.0999 41.1 61.1999 40.9 61.3999 40.8C61.5999 40.7 61.7999 40.9 61.8999 41.1L62.1999 42.4C62.1999 42.6 62.0999 42.8 61.8999 42.9Z" fill="black"/>
<path d="M60 43.3002C59.8 43.3002 59.6 43.2002 59.5 43.0002L59.2 41.7002C59.2 41.5002 59.3 41.3002 59.5 41.2002C59.7 41.2002 59.9 41.3002 60 41.5002L60.3 42.8002C60.3 43.0002 60.2 43.2002 60 43.3002Z" fill="black"/>
<path d="M58.8999 42.0003C58.6999 42.0003 58.4999 41.9003 58.3999 41.7003L57.0999 35.3003C57.0999 35.1003 57.1999 34.9003 57.3999 34.8003C57.5999 34.8003 57.7999 34.9003 57.8999 35.1003L59.1999 41.5003C59.2999 41.7003 59.0999 41.9003 58.8999 42.0003Z" fill="black"/>
<path d="M76.5515 47.6871C80.7994 47.4918 84.0847 43.8898 83.8893 39.6419C83.694 35.394 80.092 32.1087 75.8441 32.304C71.5962 32.4994 68.3109 36.1013 68.5063 40.3492C68.7016 44.5972 72.3036 47.8824 76.5515 47.6871Z" fill="white"/>
<path d="M77.7999 47.9002C73.3999 48.8002 69.0999 46.0002 68.1999 41.6002C67.2999 37.2002 70.0999 32.9002 74.4999 32.0002C78.8999 31.1002 83.1999 33.9002 84.0999 38.3002C84.9999 42.7002 82.1999 47.0002 77.7999 47.9002ZM74.6999 32.8002C70.7999 33.6002 68.1999 37.5002 68.9999 41.5002C69.7999 45.4002 73.6999 48.0002 77.6999 47.2002C81.5999 46.4002 84.1999 42.5002 83.3999 38.5002C82.4999 34.5002 78.5999 32.0002 74.6999 32.8002Z" fill="black"/>
<path d="M76.1998 46.4001C79.7344 46.4001 82.5998 43.5347 82.5998 40.0001C82.5998 36.4655 79.7344 33.6001 76.1998 33.6001C72.6652 33.6001 69.7998 36.4655 69.7998 40.0001C69.7998 43.5347 72.6652 46.4001 76.1998 46.4001Z" fill="#FF4C00"/>
<path d="M77.2 39.8999L75 40.2999C74.8 40.2999 74.6 40.1999 74.5 39.9999C74.4 39.7999 74.6 39.5999 74.8 39.4999L77 38.9999C77.7 38.8999 78.1 38.1999 77.9 37.5999C77.8 36.8999 77.1 36.4999 76.5 36.6999L72.3 37.5999C72.1 37.5999 71.9 37.4999 71.8 37.2999C71.7 37.0999 71.9 36.8999 72.1 36.7999L76.3 35.8999C77.4 35.6999 78.4 36.3999 78.7 37.3999C79 38.5999 78.3 39.5999 77.2 39.8999Z" fill="black"/>
<path d="M78.4 43.2001L73.7 44.2001C73.5 44.2001 73.3 44.1001 73.2 43.9001C73.2 43.7001 73.3 43.5001 73.5 43.4001L78.2 42.4001C78.9 42.2001 79.4 41.5001 79.3 40.8001C79.2 40.1001 78.4 39.6001 77.7 39.7001L74.6 40.4001C74.4 40.4001 74.2 40.3001 74.1 40.1001C74 39.9001 74.2 39.7001 74.4 39.6001L77.5 38.9001C78.7 38.7001 79.8 39.4001 80 40.6001C80.3 41.8001 79.5 43.0001 78.4 43.2001Z" fill="black"/>
<path d="M76.2001 36.5001C76.0001 36.5001 75.8001 36.4001 75.7001 36.2001L75.4001 34.9001C75.4001 34.7001 75.5001 34.5001 75.7001 34.4001C75.9001 34.3001 76.1001 34.5001 76.2001 34.7001L76.5001 36.0001C76.6001 36.3001 76.5001 36.5001 76.2001 36.5001Z" fill="black"/>
<path d="M74.3 36.9003C74.1 36.9003 73.9 36.8003 73.8 36.6003L73.5 35.3003C73.5 35.1003 73.6 34.9003 73.8 34.8003C74 34.8003 74.2 34.9003 74.3 35.1003L74.6 36.4003C74.7 36.7003 74.6 36.9003 74.3 36.9003Z" fill="black"/>
<path d="M78 44.7999C77.8 44.7999 77.6 44.6999 77.5 44.4999L77.2 43.1999C77.2 42.9999 77.3 42.7999 77.5 42.6999C77.7 42.5999 77.9 42.7999 78 42.9999L78.3 44.2999C78.3 44.5999 78.2 44.7999 78 44.7999Z" fill="black"/>
<path d="M76.1 45.2001C75.9 45.2001 75.7 45.1001 75.6 44.9001L75.3 43.6001C75.3 43.4001 75.4 43.2001 75.6 43.1001C75.8 43.1001 76 43.2001 76.1 43.4001L76.4 44.7001C76.4 45.0001 76.3 45.2001 76.1 45.2001Z" fill="black"/>
<path d="M75 43.9002C74.8 43.9002 74.6 43.8002 74.5 43.6002L73.2 37.2002C73.2 37.0002 73.3 36.8002 73.5 36.7002C73.7 36.7002 73.9 36.8002 74 37.0002L75.3 43.4002C75.4 43.7002 75.2 43.9002 75 43.9002Z" fill="black"/>
<path d="M92.6999 67.8004L43.0999 78.2003C42.2999 78.4003 41.5999 77.9003 41.4999 77.1003L35.9999 50.7003C35.7999 49.9003 36.2999 49.2003 37.0999 49.1003L86.6999 38.7004C87.4999 38.5004 88.1999 39.0003 88.2999 39.8003L93.7999 66.2003C93.8999 66.9003 93.3999 67.6004 92.6999 67.8004Z" fill="#FF4C00"/>
<path d="M63.0001 71.9005L36.4001 77.5005C35.2001 77.8005 33.9001 77.0005 33.7001 75.7005L32.1001 68.3005C31.8001 67.1005 32.6001 65.8005 33.9001 65.6005L60.5001 60.0005C61.7001 59.7005 63.0001 60.5005 63.2001 61.8005L64.8001 69.2005C65.0001 70.4005 64.2001 71.7005 63.0001 71.9005Z" fill="black"/>
<path d="M62 69.7003L59.6 70.2003C59.4 70.2003 59.2 70.1003 59.1 69.9003L57.8 63.8003C57.8 63.6003 57.9 63.4003 58.1 63.3003L60.5 62.8003C60.7 62.8003 60.9 62.9003 61 63.1003L62.3 69.2003C62.3 69.4003 62.2 69.6003 62 69.7003Z" fill="#FF4C00"/>
<path d="M83.8 53.4001C83.5 51.8001 82.4 50.5001 80.9 50.0001L80.7 49.9001L80.2 49.7001L77.3 48.7001L76.8 48.5001L71.3 46.6001L71.9 49.6001L74.5 50.5001L75 50.7001L77.9 51.7001L78.4 51.9001L80 52.5001C80.6 52.7001 81.1 53.2001 81.2 53.9001L81.3 54.3001C81.4 54.9001 81.2 55.6001 80.7 56.0001L79.4 57.1001L79 57.4001L76.7 59.4001L76.3 59.7001L74.2 61.5001L74.8 64.5001L79.2 60.7001L79.6 60.4001L81.9 58.4001L82.3 58.1001L82.4 58.0001C83.6 57.0001 84.2 55.4001 83.9 53.8001" fill="black"/>
<path d="M84.6002 59.3002C84.9002 60.7002 84.4002 62.2002 83.3002 63.1002L82.8002 63.5002L80.7002 65.3002L76.3002 69.0002L75.8002 66.3002L78.1002 64.4002L80.2002 62.6002L81.7002 61.3002C82.1002 60.9002 82.4002 60.3002 82.2002 59.7002L82.1002 59.3002C82.0002 58.7002 81.6002 58.2002 81.0002 58.0002L79.1002 57.3002L76.5002 56.4002L73.7002 55.4002L73.2002 52.7002L78.6002 54.6002L81.2002 55.5002L81.8002 55.7002C83.2002 56.2002 84.2002 57.4002 84.4002 58.8002" fill="white"/>
<path d="M75.6 59.5004L74 60.9004L71.8 50.4004L74 51.2004L75.6 59.5004Z" fill="black"/>
<path d="M46.5003 14.6375C47.3585 9.34945 43.7674 4.36691 38.4794 3.50869C33.1913 2.65048 28.2088 6.24157 27.3506 11.5296C26.4924 16.8177 30.0834 21.8002 35.3715 22.6584C40.6596 23.5166 45.6421 19.9256 46.5003 14.6375Z" fill="white"/>
<path d="M37 23.2999C31.4 23.2999 26.8 18.6999 26.8 13.0999C26.8 7.4999 31.4 2.8999 37 2.8999C42.6 2.8999 47.2 7.4999 47.2 13.0999C47.2 18.7999 42.6 23.2999 37 23.2999ZM37 3.8999C31.9 3.8999 27.8 7.9999 27.8 13.0999C27.8 18.1999 31.9 22.2999 37 22.2999C42.1 22.2999 46.2 18.1999 46.2 13.0999C46.2 8.0999 42 3.8999 37 3.8999Z" fill="black"/>
<path d="M37.0002 21.1001C41.4185 21.1001 45.0002 17.5184 45.0002 13.1001C45.0002 8.68182 41.4185 5.1001 37.0002 5.1001C32.582 5.1001 29.0002 8.68182 29.0002 13.1001C29.0002 17.5184 32.582 21.1001 37.0002 21.1001Z" fill="#FF4C00"/>
<path d="M37 18.8003C36.9 18.8003 36.8 18.7003 36.7 18.6003L33 13.5003C32.9 13.4003 32.9 13.2003 33 13.1003C33.1 13.0003 33.3001 12.9003 33.4001 13.0003L37.1 14.4003L40.6 12.9003C40.8 12.8003 40.9 12.9003 41 13.0003C41.1 13.1003 41.1 13.3003 41 13.5003L37.3 18.7003C37.3 18.8003 37.2 18.8003 37 18.8003ZM34.4001 14.1003L37.1 17.8003L39.7 14.1003L37.3 15.1003C37.2 15.1003 37.1 15.1003 37 15.1003L34.4001 14.1003Z" fill="black"/>
<path d="M33.3 13.6003C33.2 13.6003 33.1 13.6003 33 13.5003C32.9 13.4003 32.9 13.2003 33 13.1003L36.7 6.50029C36.8 6.40029 36.9 6.30029 37 6.30029C37.1 6.30029 37.3 6.40029 37.3 6.50029L41 13.0003C41.1 13.1003 41.1 13.3003 41 13.4003C40.9 13.5003 40.7 13.6003 40.6 13.5003L37.2 12.3003L33.4001 13.5003C33.4001 13.6003 33.4 13.6003 33.3 13.6003ZM37 7.30029L34.1 12.5003L37.1 11.5003C37.2 11.5003 37.3 11.5003 37.3 11.5003L39.9001 12.4003L37 7.30029Z" fill="black"/>
<path d="M21.0811 56.4464C21.7978 52.0306 18.799 47.8699 14.3832 47.1533C9.96743 46.4366 5.80676 49.4354 5.0901 53.8512C4.37344 58.267 7.37219 62.4276 11.788 63.1443C16.2038 63.861 20.3645 60.8622 21.0811 56.4464Z" fill="white"/>
<path d="M13.1001 63.6001C8.4001 63.6001 4.6001 59.8001 4.6001 55.1001C4.6001 50.4001 8.4001 46.6001 13.1001 46.6001C17.8001 46.6001 21.6001 50.4001 21.6001 55.1001C21.6001 59.8001 17.8001 63.6001 13.1001 63.6001ZM13.1001 47.5001C8.9001 47.5001 5.4001 50.9001 5.4001 55.2001C5.4001 59.4001 8.8001 62.9001 13.1001 62.9001C17.3001 62.9001 20.8001 59.5001 20.8001 55.2001C20.8001 50.9001 17.3001 47.5001 13.1001 47.5001Z" fill="black"/>
<path d="M13.1001 61.8004C16.8005 61.8004 19.8001 58.8007 19.8001 55.1004C19.8001 51.4001 16.8005 48.4004 13.1001 48.4004C9.39984 48.4004 6.40015 51.4001 6.40015 55.1004C6.40015 58.8007 9.39984 61.8004 13.1001 61.8004Z" fill="#FF4C00"/>
<path d="M14.0002 54.3002C13.8002 54.3002 13.7002 54.2002 13.6002 54.0002C13.5002 53.8002 13.6002 53.5002 13.9002 53.4002L15.5002 52.8002C15.7002 52.7002 16.0002 52.8002 16.1002 53.1002C16.2002 53.3002 16.1002 53.6002 15.8002 53.7002L14.2002 54.3002C14.2002 54.3002 14.1002 54.3002 14.0002 54.3002Z" fill="black"/>
<path d="M9.40015 56.2006C9.20015 56.2006 9.10015 56.1006 9.00015 55.9006C8.90015 55.7006 9.00015 55.4006 9.30015 55.3006L10.9001 54.7006C11.1001 54.6006 11.4001 54.7006 11.5001 55.0006C11.6001 55.2006 11.5001 55.5006 11.2001 55.6006L9.60015 56.2006C9.50015 56.2006 9.40015 56.2006 9.40015 56.2006Z" fill="black"/>
<path d="M12.5001 59.0004H10.3001C10.2001 59.0004 10.0001 58.9004 10.0001 58.8004C9.90014 58.7004 9.90015 58.6004 9.90015 58.4004L12.1001 50.2004C12.2001 50.0004 12.3001 49.9004 12.5001 49.9004H14.7001C14.8001 49.9004 15.0001 50.0004 15.0001 50.1004C15.1001 50.2004 15.1001 50.3004 15.1001 50.5004L12.9001 58.7004C12.8001 58.9004 12.7001 59.0004 12.5001 59.0004ZM10.8001 58.1004H12.1001L14.0001 50.8004H12.7001L10.8001 58.1004Z" fill="black"/>
<path d="M16.1001 59.0002H10.3001C10.1001 59.0002 9.90015 58.8002 9.90015 58.6002C9.90015 58.4002 10.1001 58.2002 10.3001 58.2002H16.1001C16.3001 58.2002 16.5001 58.4002 16.5001 58.6002C16.5001 58.8002 16.3001 59.0002 16.1001 59.0002Z" fill="black"/>
<path d="M100.095 105.236C105.69 104.579 109.693 99.51 109.035 93.915C108.378 88.32 103.309 84.3173 97.7144 84.9747C92.1194 85.6321 88.1167 90.7007 88.7741 96.2957C89.4315 101.891 94.5001 105.893 100.095 105.236Z" fill="white"/>
<path d="M99 105.6C93.2 105.6 88.5 100.9 88.5 95.1001C88.5 89.3001 93.2 84.6001 99 84.6001C104.8 84.6001 109.5 89.3001 109.5 95.1001C109.5 100.9 104.8 105.6 99 105.6ZM99 85.6001C93.8 85.6001 89.5 89.9001 89.5 95.1001C89.5 100.3 93.8 104.6 99 104.6C104.2 104.6 108.5 100.3 108.5 95.1001C108.5 89.8001 104.2 85.6001 99 85.6001Z" fill="black"/>
<path d="M99 103.4C103.584 103.4 107.3 99.6843 107.3 95.1003C107.3 90.5163 103.584 86.8003 99 86.8003C94.416 86.8003 90.7 90.5163 90.7 95.1003C90.7 99.6843 94.416 103.4 99 103.4Z" fill="#FF4C00"/>
<path d="M98.7999 101.5V99.8003C97.4999 99.7003 96.7999 99.3003 96.3999 98.9003L96.9999 98.1003C97.3999 98.5003 98.1999 98.9003 99.1999 98.9003C100.5 98.9003 101 98.3003 101 97.6003C101 96.8003 100.4 96.5003 99.4999 96.1003L98.7999 95.8003C97.7999 95.4003 96.9999 94.8003 96.9999 93.6003C96.9999 92.4003 97.8999 91.6003 99.0999 91.5003V89.8003H99.9999V91.5003C101 91.6003 101.6 92.0003 101.9 92.2003L101.3 93.0003C100.9 92.6003 100.3 92.4003 99.6999 92.4003C98.6999 92.4003 98.0999 92.9003 98.0999 93.7003C98.0999 94.5003 98.6999 94.8003 99.4999 95.2003L100.2 95.5003C101.2 96.0003 102.1 96.5003 102.1 97.7003C102.1 98.7003 101.4 99.7003 99.7999 99.9003V101.6H98.7999V101.5Z" fill="black"/>
</g>
<defs>
<filter id="filter0_d_2116_20543" x="0.600098" y="0.575195" width="120.8" height="122.778" filterUnits="userSpaceOnUse" color-interpolation-filters="sRGB">
<feFlood flood-opacity="0" result="BackgroundImageFix"/>
<feColorMatrix in="SourceAlpha" type="matrix" values="0 0 0 0 0 0 0 0 0 0 0 0 0 0 0 0 0 0 127 0" result="hardAlpha"/>
<feOffset dy="4"/>
<feGaussianBlur stdDeviation="2"/>
<feComposite in2="hardAlpha" operator="out"/>
<feColorMatrix type="matrix" values="0 0 0 0 0 0 0 0 0 0 0 0 0 0 0 0 0 0 0.25 0"/>
<feBlend mode="normal" in2="BackgroundImageFix" result="effect1_dropShadow_2116_20543"/>
<feBlend mode="normal" in="SourceGraphic" in2="effect1_dropShadow_2116_20543" result="shape"/>
</filter>
</defs>
</svg>
