<svg width="25" height="20" viewBox="0 0 25 20" fill="none" xmlns="http://www.w3.org/2000/svg">
<path fill-rule="evenodd" clip-rule="evenodd" d="M24.793 16.6419L21.6431 19.7913C21.5771 19.8573 21.4992 19.9092 21.412 19.9446C21.3259 19.9811 21.2339 20 21.1419 20C21.0499 20 20.9591 19.9811 20.8719 19.9446C20.7858 19.9092 20.7068 19.8573 20.6419 19.7913L17.492 16.6419C17.2148 16.366 17.2148 15.9179 17.492 15.6408C17.7679 15.3649 18.2149 15.3649 18.4908 15.6408L20.4355 17.584V5.02771C20.4355 3.03502 18.814 1.41493 16.821 1.41493C14.8291 1.41493 13.2076 3.03502 13.2076 5.02771V14.9711C13.2076 17.7444 10.9528 20 8.17904 20C5.40651 20 3.1505 17.7444 3.1505 14.9711V2.41481L1.20701 4.35798C0.931058 4.63389 0.484103 4.63389 0.206967 4.35798C-0.0689891 4.08207 -0.0689891 3.63401 0.206967 3.35692L3.35806 0.207523C3.42292 0.141493 3.50193 0.0896121 3.58802 0.0542389C3.76138 -0.0165075 3.95596 -0.0165075 4.12814 0.0542389C4.21423 0.0896121 4.29324 0.141493 4.35811 0.207523L7.5092 3.35692C7.78516 3.63401 7.78516 4.08207 7.5092 4.35798C7.37122 4.49593 7.18961 4.5655 7.00917 4.5655C6.82874 4.5655 6.64713 4.49593 6.50915 4.35798L4.56566 2.41481V14.9711C4.56566 16.9638 6.1872 18.5839 8.17904 18.5839C10.1721 18.5839 11.7936 16.9638 11.7936 14.9711V5.02771C11.7936 2.25563 14.0484 0 16.821 0C19.5947 0 21.8495 2.25563 21.8495 5.02771V17.584L23.793 15.6408C24.0701 15.3649 24.5171 15.3649 24.793 15.6408C25.069 15.9179 25.069 16.366 24.793 16.6419Z" fill="#F44D03"/>
</svg>
