<svg width="22" height="22" viewBox="0 0 22 22" fill="none" xmlns="http://www.w3.org/2000/svg">
<path d="M19.5762 14.2902C18.8438 13.567 17.8295 13.1197 16.7096 13.1197C15.5896 13.1197 14.5753 13.5683 13.8417 14.2927C13.1081 15.0171 12.655 16.0185 12.655 17.1231C12.655 18.2302 13.1093 19.2304 13.8417 19.9548C14.5753 20.678 15.5896 21.1265 16.7096 21.1265C17.8295 21.1265 18.8425 20.678 19.5762 19.9548C20.3098 19.2304 20.7628 18.229 20.7628 17.1231C20.7628 16.016 20.3098 15.0146 19.5774 14.2927L19.5762 14.2902ZM4.56736 11.6958C4.32449 11.6958 4.12692 11.5007 4.12692 11.2609C4.12692 11.0211 4.32449 10.826 4.56736 10.826H13.3257C13.5686 10.826 13.7662 11.0211 13.7662 11.2609C13.7662 11.5007 13.5686 11.6958 13.3257 11.6958H4.56736ZM4.56736 8.87281C4.32449 8.87281 4.12692 8.67774 4.12692 8.43793C4.12692 8.19688 4.32449 8.00305 4.56736 8.00305H13.3257C13.5686 8.00305 13.7662 8.19688 13.7662 8.43793C13.7662 8.67774 13.5686 8.87281 13.3257 8.87281H4.56736ZM4.56736 14.5176C4.32449 14.5176 4.12692 14.3225 4.12692 14.0827C4.12692 13.8429 4.32449 13.6478 4.56736 13.6478H9.40838C9.65125 13.6478 9.84883 13.8429 9.84883 14.0827C9.84883 14.3225 9.65125 14.5176 9.40838 14.5176H4.56736ZM5.66342 1.4525L2.16761 4.78866H4.95117C5.14622 4.78866 5.32491 4.71038 5.45327 4.5824H5.45452C5.58288 4.45442 5.66342 4.27923 5.66342 4.08664V1.4525ZM16.3723 12.2612V1.56682C16.3723 1.38417 16.2993 1.21518 16.1823 1.08969L16.1634 1.07229C16.0351 0.944311 15.8564 0.86479 15.6613 0.86479H6.54429V4.08788C6.54429 4.51903 6.3656 4.91167 6.07743 5.19744H6.07617L6.07743 5.19869C5.78926 5.48322 5.39034 5.65966 4.95242 5.65966H1.5208V19.5249C1.5208 19.7175 1.60134 19.8927 1.73095 20.0194L1.72969 20.0207H1.73095C1.85931 20.1474 2.03674 20.2269 2.23179 20.2269H12.9054C12.1982 19.3845 11.7742 18.3023 11.7742 17.1231C11.7742 15.7775 12.3266 14.5586 13.2188 13.6776C14.038 12.8675 15.1441 12.3419 16.3723 12.2612ZM13.8518 21.0954H2.23179C1.79639 21.0954 1.39747 20.9165 1.10804 20.632L1.10679 20.6332C0.818614 20.3487 0.638672 19.9561 0.638672 19.5224V5.23348V5.2223C0.638672 5.0881 0.701589 4.96634 0.799744 4.88682L5.79932 0.115552L5.8031 0.111827L5.80687 0.108096L5.81064 0.104371L5.81443 0.101887L5.8182 0.0993989L5.82197 0.0956734L5.82575 0.0931897L5.82953 0.0894594H5.83079L5.8333 0.0869758L5.83708 0.0844921H5.83833L5.84211 0.0820037L5.84588 0.07952H5.84715L5.84966 0.0770364L5.85344 0.0745527H5.85469L5.85721 0.0720643L5.86224 0.0695806H5.86351L5.86602 0.0683388L5.86979 0.0658551L5.87231 0.0646085L5.87483 0.0633667L5.8786 0.060883H5.88112L5.88238 0.0596412L5.88741 0.0571575L5.88993 0.055911L5.89118 0.0546691L5.89622 0.0521855L5.89874 0.0509436L5.9 0.0497018L5.90503 0.04846L5.90754 0.0472134H5.9088L5.91383 0.0459716L5.91762 0.0447297H5.91887L5.9239 0.0434879L5.92768 0.0422461L5.93271 0.0410042L5.93649 0.0397624L5.94152 0.037274L5.94529 0.0360321L5.95033 0.0347903L5.95411 0.0335485L5.95914 0.0323066L5.96417 0.0310648L5.96921 0.0298182L5.97424 0.0285764L5.97927 0.0273346L5.9843 0.0260927L5.98934 0.0248509H5.99437L6.01199 0.00497208L6.01702 0.0037255H6.0208L6.02584 0.00248367H6.02709L6.0359 0.00124183H6.03715H6.04094H6.04597H6.04723H6.051H6.05604H6.05855H6.06107H6.0661H6.06736H6.06987H6.07491H6.07743H6.07995H6.08498H6.08749H6.09001H6.09505H6.09756H6.10008V0H15.6575C16.0955 0 16.4944 0.177682 16.7825 0.462218L16.809 0.490795C17.0808 0.772846 17.2507 1.1543 17.2507 1.57178V12.2848C18.3945 12.409 19.4214 12.9209 20.194 13.6826V13.6838C21.0862 14.566 21.6387 15.7837 21.6387 17.1268C21.6387 18.4725 21.0862 19.6914 20.1928 20.5723C19.3006 21.4533 18.0661 22 16.7033 22C15.645 21.9963 14.6584 21.662 13.8518 21.0954ZM14.5174 17.6089C14.3451 17.44 14.3451 17.1654 14.5162 16.9951C14.6873 16.8249 14.9654 16.8249 15.1378 16.9939L16.1181 17.9618L18.2523 15.3625C18.4046 15.1773 18.6815 15.1488 18.869 15.2991C19.0565 15.4495 19.0854 15.7228 18.9331 15.9092L16.4994 18.8738C16.4881 18.8875 16.4768 18.9012 16.4642 18.9136C16.293 19.0838 16.0149 19.0838 15.8425 18.9148L14.5174 17.6089Z" />
</svg>
