<svg width="14" height="28" viewBox="0 0 14 28" fill="none" xmlns="http://www.w3.org/2000/svg">
<path d="M13.4621 18.766C13.4621 20.3766 12.9733 21.666 11.9958 22.6343C11.0276 23.5932 9.6916 24.1658 7.98789 24.352V27.0751H5.76748V24.352C4.70615 24.2402 3.74258 23.947 2.87676 23.4722C2.01094 22.9974 1.3127 22.2991 0.782031 21.3774C0.260677 20.4465 0 19.2874 0 17.9002H3.47725C3.47725 19.2036 3.79844 20.1392 4.44082 20.7071C5.0832 21.2657 5.87454 21.545 6.81484 21.545C7.82962 21.545 8.61165 21.2983 9.16094 20.8049C9.71953 20.3115 9.99883 19.6411 9.99883 18.7939C9.99883 18.0026 9.74746 17.3509 9.24473 16.8389C8.74199 16.3175 7.89014 15.8474 6.68916 15.4284C5.38578 14.9815 4.31048 14.4928 3.46328 13.9621C2.61608 13.4314 1.95508 12.7751 1.48027 11.9931C1.01478 11.211 0.782031 10.2568 0.782031 9.13027C0.782031 8.09688 0.996159 7.17985 1.42441 6.3792C1.86198 5.57855 2.47643 4.93617 3.26777 4.45205C4.05911 3.96794 4.98545 3.66536 6.04678 3.54434V0.5H8.28115V3.57227C9.88245 3.7957 11.1346 4.47067 12.0377 5.59717C12.9408 6.72367 13.3923 8.2179 13.3923 10.0799H9.91504C9.91504 8.91615 9.65902 8.00378 9.14697 7.34277C8.64424 6.68177 7.94134 6.35127 7.03828 6.35127C6.10729 6.35127 5.40905 6.60264 4.94355 7.10537C4.47806 7.5988 4.24531 8.26911 4.24531 9.11631C4.24531 9.64697 4.34772 10.1032 4.55254 10.4849C4.76667 10.8573 5.11579 11.2017 5.5999 11.5183C6.08402 11.8255 6.75433 12.1374 7.61084 12.4539C8.92354 12.9287 9.99883 13.4314 10.8367 13.9621C11.6746 14.4928 12.3216 15.1491 12.7778 15.9312C13.234 16.7039 13.4621 17.6488 13.4621 18.766Z" fill="white"/>
</svg>
