<svg width="30" height="17" viewBox="0 0 30 17" fill="none" xmlns="http://www.w3.org/2000/svg">
<path d="M29.9875 8.48676C30 8.2764 30 8.05367 30 7.81857C30 7.63807 29.9276 7.46497 29.7986 7.33734C29.6697 7.2097 29.4948 7.138 29.3125 7.138C29.1302 7.138 28.9553 7.2097 28.8264 7.33734C28.6974 7.46497 28.625 7.63807 28.625 7.81857C28.625 8.3259 28.6125 8.80848 28.575 9.25394C28.475 10.2067 28.1625 11.0482 27.7375 11.4812C27.6374 11.5893 27.5152 11.6749 27.379 11.7323C27.2428 11.7897 27.0957 11.8176 26.9477 11.8141C26.7997 11.8106 26.6542 11.7757 26.5209 11.7119C26.3876 11.6481 26.2696 11.5568 26.175 11.4441C25.5125 10.7141 25.3125 9.10545 25.4625 7.89281C25.4801 7.71275 25.4259 7.53299 25.3115 7.39195C25.197 7.25091 25.0314 7.15977 24.85 7.138C24.6681 7.12054 24.4865 7.17418 24.344 7.28747C24.2015 7.40077 24.1094 7.56473 24.0874 7.74432C24.0186 8.36941 24.0186 9.00007 24.0874 9.62516C24.0874 9.67465 24.0749 9.73652 24.0749 9.78602C23.7749 12.1494 22.7499 12.6444 21.9499 12.6444C21.6944 12.6369 21.4415 12.591 21.1999 12.5083L21.2374 12.4588C22.0124 11.605 22.4624 10.479 22.4624 9.47667C22.4624 8.82085 22.2749 8.26403 21.9124 7.85569C21.5499 7.44735 21.0999 7.138 20.1874 7.138C19.8157 7.13626 19.4498 7.22996 19.1256 7.40997C18.8013 7.58997 18.5298 7.85013 18.3374 8.16504C17.7249 9.10545 17.6749 10.5037 18.1999 11.6545C18.3402 11.9566 18.5256 12.236 18.7499 12.4835C18.4573 12.5886 18.1486 12.643 17.8374 12.6444C16.8749 12.6444 15.4749 11.4812 14.6749 10.6274C15.5552 9.93733 16.33 9.12458 16.9749 8.21453C17.0274 8.14141 17.0649 8.05876 17.0851 7.9713C17.1054 7.88385 17.1081 7.7933 17.093 7.70482C17.0779 7.61635 17.0453 7.53168 16.9972 7.45566C16.949 7.37963 16.8863 7.31374 16.8124 7.26174C16.7385 7.20974 16.655 7.17266 16.5667 7.1526C16.4783 7.13254 16.3869 7.12991 16.2975 7.14484C16.2081 7.15978 16.1226 7.192 16.0458 7.23966C15.969 7.28731 15.9024 7.34948 15.8499 7.4226C15.2022 8.34742 14.3988 9.15523 13.4749 9.81077V7.81857C13.4749 7.63807 13.4024 7.46497 13.2735 7.33734C13.1446 7.2097 12.9697 7.138 12.7873 7.138C12.605 7.138 12.4301 7.2097 12.3012 7.33734C12.1723 7.46497 12.0998 7.63807 12.0998 7.81857V11.803L12.0623 11.7782L11.9748 11.704L11.8248 11.5926L11.7248 11.5184L11.5623 11.407L11.4873 11.3451L11.2748 11.209L11.2373 11.1843L10.9623 11.011H10.9498L10.6998 10.8625L10.6373 10.8254L10.4248 10.7141L10.3623 10.6769L10.1498 10.5532L10.0873 10.5285L9.82482 10.3923H9.81232L9.74982 10.3552L9.54982 10.2686L9.41231 10.2067L9.27481 10.1449L9.14981 10.083L8.98731 10.0211L8.89981 9.99637H8.87481L8.68731 9.89738C9.10071 9.394 9.46879 8.85574 9.78732 8.28878C10.2378 7.49526 10.5545 6.63426 10.7248 5.73975C10.8131 5.26659 10.8383 4.78403 10.7998 4.30438C10.7754 4.05844 10.7336 3.81449 10.6748 3.57432C10.6203 3.33178 10.5407 3.09543 10.4373 2.86901C10.3408 2.63651 10.2236 2.41291 10.0873 2.20082C9.95151 1.99268 9.80114 1.79421 9.63732 1.60687L9.37481 1.34702L9.11231 1.09954C8.92286 0.941372 8.72236 0.79665 8.51231 0.666453C8.0805 0.39034 7.60204 0.193347 7.09979 0.0848798C6.59738 -0.0140477 6.0815 -0.026605 5.57478 0.0477581C5.0805 0.120458 4.6001 0.266458 4.14977 0.480845C3.71032 0.687646 3.3022 0.954198 2.93726 1.27277C2.55512 1.58617 2.22598 1.95794 1.96225 2.37405C1.8167 2.59588 1.69519 2.8323 1.59974 3.07936C1.49684 3.36557 1.44194 3.66652 1.43724 3.97028C1.43724 4.19344 1.5268 4.40746 1.6862 4.56526C1.84561 4.72306 2.06181 4.81171 2.28725 4.81171C2.51269 4.81171 2.72889 4.72306 2.8883 4.56526C3.0477 4.40746 3.13726 4.19344 3.13726 3.97028C3.1382 3.86419 3.15941 3.75923 3.19976 3.66094C3.24686 3.52624 3.30979 3.3975 3.38726 3.27735C3.56944 3.0059 3.78811 2.76029 4.03727 2.54729C4.5452 2.11185 5.163 1.82104 5.82478 1.70586C6.13243 1.6644 6.44485 1.67275 6.74979 1.73061C7.05509 1.80301 7.34641 1.92422 7.6123 2.08945C7.89012 2.26507 8.14245 2.47739 8.3623 2.72052C8.47288 2.83688 8.56937 2.96562 8.64981 3.10411C8.73702 3.23761 8.81231 3.37838 8.87481 3.52482C9.00093 3.81979 9.07696 4.13336 9.09981 4.45287C9.12629 4.78771 9.10949 5.12452 9.04981 5.45515C8.91143 6.16886 8.65372 6.85472 8.2873 7.48447C7.91442 8.13787 7.4746 8.75155 6.97479 9.31581L6.89979 9.40243L6.72479 9.37768L6.59979 9.35293L6.42479 9.32818H6.12478L5.97478 9.30344L5.69978 9.27869H4.63727C4.42477 9.27869 4.21227 9.30344 3.99977 9.31581H3.94977L3.68726 9.35293H3.49976L3.37476 9.37768L3.27476 9.40243L2.99976 9.4643H2.96226L2.64975 9.55091L2.57475 9.57566L2.33725 9.6499H2.29975L2.23725 9.67465L2.03725 9.76127L1.92475 9.79839L1.72474 9.89738L1.64974 9.92213H1.62474L1.36224 10.0582H1.32474L1.24974 10.1077H1.16224L1.09974 10.1449C1.0113 10.1997 0.927671 10.2618 0.849737 10.3305C0.611907 10.5244 0.415392 10.7632 0.271615 11.033C0.127838 11.3028 0.039668 11.5981 0.0122294 11.902C-0.010183 12.1042 -0.00175535 12.3086 0.0372297 12.5083C0.0438961 12.5376 0.052243 12.5665 0.0622299 12.5949V12.6196H0.07473C0.0772334 12.646 0.085785 12.6713 0.0997302 12.6939C0.0997302 12.7186 0.0997302 12.731 0.11223 12.7434C0.114734 12.7697 0.123285 12.7951 0.137231 12.8176C0.148665 12.8568 0.165489 12.8943 0.187231 12.929C0.206601 12.9562 0.223342 12.9852 0.237231 13.0156H0.249732C0.250521 13.0251 0.254999 13.034 0.262232 13.0404C0.276121 13.0707 0.292862 13.0997 0.312232 13.127C0.324732 13.1393 0.324732 13.1517 0.337232 13.1517C0.351122 13.1821 0.367862 13.2111 0.387233 13.2383L0.412233 13.2631L0.487234 13.3497H0.499734L0.574735 13.4363C0.581365 13.4363 0.587724 13.4389 0.592412 13.4436C0.597101 13.4482 0.599735 13.4545 0.599735 13.4611L0.662235 13.5106L0.699736 13.5353L0.762236 13.5848L0.787237 13.6096L0.862237 13.659L0.887237 13.6838L0.987238 13.7457H0.999738L1.08724 13.7952L1.12474 13.8199H1.16224C1.16556 13.8199 1.16873 13.8212 1.17108 13.8235C1.17342 13.8259 1.17474 13.829 1.17474 13.8323L1.33724 13.8942H1.34974L1.51224 13.956H1.53724L1.69974 14.0055H2.33725L2.48725 13.9808H2.52475L2.64975 13.956H2.74975C3.1941 13.8411 3.62874 13.6922 4.04977 13.5106C4.86264 13.1708 5.63078 12.7345 6.33729 12.2113C6.77265 11.8791 7.186 11.5195 7.5748 11.1348H7.5998L7.7498 11.1719L7.8498 11.1966L8.0873 11.2709L8.1373 11.2956L8.3498 11.3699L8.42481 11.3946L8.61231 11.4689H8.66231L8.89981 11.5679H8.91231L9.22481 11.704L9.56232 11.8772L9.62482 11.902L9.99982 12.1247L10.0373 12.1494L10.4123 12.3722L10.7873 12.6073L10.8373 12.6444L11.1873 12.8919L11.2123 12.9166L11.5248 13.1517C11.5373 13.1765 11.5623 13.1888 11.5748 13.2012L11.8873 13.4611L11.9498 13.5229L12.2623 13.8075C12.3621 13.9011 12.4888 13.9616 12.6248 13.9808L12.7748 14.0055C12.9572 14.0055 13.1321 13.9338 13.261 13.8062C13.3899 13.6786 13.4624 13.5054 13.4624 13.325V11.3204C14.2249 12.1618 16.0874 14.0179 17.8374 14.0179C18.5903 14.0169 19.3305 13.8252 19.9874 13.4611C20.5854 13.8036 21.2594 13.9949 21.9499 14.0179C23.2624 14.0179 24.2749 13.3002 24.875 12.0009C24.9596 12.1217 25.0515 12.2374 25.15 12.3474C25.3751 12.6085 25.655 12.8179 25.9701 12.9611C26.2853 13.1043 26.6282 13.1778 26.975 13.1765C27.2077 13.1756 27.4392 13.1423 27.6625 13.0775C27.5775 13.2588 27.4771 13.4326 27.3625 13.5972C26.45 14.9707 25.025 15.6389 22.9999 15.6389C22.8176 15.6389 22.6427 15.7106 22.5138 15.8382C22.3849 15.9658 22.3124 16.1389 22.3124 16.3194C22.3124 16.4999 22.3849 16.673 22.5138 16.8007C22.6427 16.9283 22.8176 17 22.9999 17C25.5 17 27.35 16.1091 28.5125 14.3396C29.325 13.1022 29.8 11.4565 29.95 9.34056C29.975 9.04358 29.9875 8.75898 29.9875 8.48676ZM3.36226 12.0628C3.03288 12.2113 2.68956 12.3273 2.33725 12.4093H1.98725L1.89975 12.3845H1.87475L1.83725 12.3598H1.78725L1.73724 12.2979H1.72474C1.72474 12.2855 1.72474 12.2855 1.71224 12.2855C1.70032 12.2497 1.69607 12.2118 1.69974 12.1742C1.73026 12.0254 1.80931 11.8906 1.92475 11.7906L2.02475 11.7163H2.06225L2.09975 11.6916L2.17475 11.6421L2.38725 11.5307L2.44975 11.4936L2.59975 11.4194L2.68725 11.3823L2.83726 11.3204L2.91226 11.2956L3.08726 11.2338L3.13726 11.209L3.38726 11.1471H3.41226L3.62476 11.0977L3.71226 11.0729L3.87476 11.0358H3.94977L4.16227 11.011H4.19977L4.72477 10.9615H5.38728L5.28728 11.0358C4.6871 11.4494 4.04126 11.794 3.36226 12.0628ZM19.9624 11.7906C19.7483 11.5894 19.5745 11.3502 19.4499 11.0853C19.1249 10.3676 19.1374 9.45192 19.4999 8.8951C19.5677 8.77376 19.6674 8.67287 19.7884 8.60315C19.9095 8.53343 20.0474 8.49748 20.1874 8.49913C20.4999 8.49913 20.7374 8.58575 20.8749 8.74661C21.0124 8.90747 21.0874 9.25394 21.0874 9.47667C21.0874 10.4418 20.6124 11.2338 19.9624 11.7906Z" fill="white"/>
</svg>
