<svg width="27" height="17" viewBox="0 0 27 17" fill="none" xmlns="http://www.w3.org/2000/svg">
<g clip-path="url(#clip0_2116_21212)">
<path d="M3.52881 8.50761C3.52881 5.06349 5.40381 2.02455 8.19548 0.282227H0.153809V16.6925H8.23714C5.40381 14.9907 3.52881 11.9517 3.52881 8.50761Z" fill="white"/>
<path d="M26.8206 0.282227H18.7373C21.529 1.98403 23.404 5.02297 23.404 8.50761C23.404 11.9923 21.529 14.9907 18.7373 16.733H26.8206V0.282227Z" fill="white"/>
<path d="M14.779 6.48173C14.6956 6.03602 14.154 5.75238 13.6123 5.7929C13.154 5.83342 12.6956 5.91446 12.2373 6.07654L12.6956 8.02146C12.6956 8.02146 13.5706 7.8999 14.0706 7.57575C14.5706 7.25159 14.8623 6.92744 14.779 6.48173Z" fill="white"/>
<path d="M14.1955 8.66984C13.7371 8.75088 13.3205 8.83191 12.9038 8.95347L13.4038 11.0199C13.4038 11.0199 14.7788 10.7768 15.1955 10.4932C15.6538 10.2096 16.1538 9.68282 15.8621 9.11555C15.5705 8.54828 14.7371 8.5888 14.1955 8.66984Z" fill="white"/>
<path d="M13.4873 0.484863C8.94564 0.484863 5.2373 4.05055 5.2373 8.50766C5.2373 12.9648 8.94564 16.4899 13.4873 16.4899C18.029 16.4899 21.7373 12.9242 21.7373 8.46714C21.7373 4.01003 18.029 0.484863 13.4873 0.484863ZM17.7373 10.4121C17.404 11.263 15.4873 11.7897 15.4873 11.7897L15.8623 13.3294L14.8623 13.5726L14.4873 12.0328L13.6956 12.1949L14.0706 13.7346L13.0706 13.9372L12.6956 12.3975L10.6956 12.8432L10.6123 11.6276C10.6123 11.6276 10.9873 11.5871 11.3206 11.5061C11.654 11.425 11.654 11.0604 11.6123 10.8983C11.5706 10.7362 10.7373 7.25156 10.6123 6.88689C10.4873 6.52222 10.1123 6.44118 9.94564 6.44118C9.77897 6.4817 9.2373 6.64378 9.2373 6.64378L8.9873 5.6308L10.904 5.18509L10.529 3.60484L11.529 3.36172L11.904 4.94197C12.1956 4.86093 12.4456 4.82041 12.6956 4.77989L12.3206 3.19965L13.3206 2.95653L13.6956 4.53678C14.154 4.45574 14.9873 4.3747 15.529 4.5773C16.154 4.82041 16.5706 5.54976 16.6123 6.15755C16.654 6.72481 16.029 7.37312 16.029 7.37312C16.029 7.37312 17.029 7.45416 17.4456 7.94039C18.3206 9.03441 17.8623 10.0474 17.7373 10.4121Z" fill="white"/>
</g>
<defs>
<clipPath id="clip0_2116_21212">
<rect width="26.6667" height="16.4103" fill="white" transform="translate(0.153809 0.282227)"/>
</clipPath>
</defs>
</svg>
