<svg width="20" height="25" viewBox="0 0 20 25" fill="none" xmlns="http://www.w3.org/2000/svg">
<path fill-rule="evenodd" clip-rule="evenodd" d="M19.2613 10.0871C19.6435 7.5323 17.6983 6.1589 15.0385 5.2427L15.9013 1.7819L13.7947 1.2569L12.9547 4.6265C12.4009 4.4885 11.8321 4.3583 11.2669 4.2293L12.1129 0.8375L10.0075 0.3125L9.14412 3.7721C8.68572 3.6677 8.23572 3.5645 7.79892 3.4559L7.80132 3.4451L4.89612 2.7197L4.33572 4.9697C4.33572 4.9697 5.89872 5.3279 5.86572 5.3501C6.71892 5.5631 6.87312 6.1277 6.84732 6.5753L5.86452 10.5179C5.92332 10.5329 5.99952 10.5545 6.08352 10.5881L6.01213 10.5703L6.01207 10.5703C5.96323 10.558 5.91261 10.5453 5.86092 10.5329L4.48332 16.0559C4.37892 16.3151 4.11432 16.7039 3.51792 16.5563C3.53892 16.5869 1.98672 16.1741 1.98672 16.1741L0.940918 18.5855L3.68232 19.2689C3.98846 19.3456 4.29093 19.4245 4.59024 19.5026L4.59067 19.5027C4.78983 19.5546 4.9876 19.6062 5.18412 19.6565L4.31232 23.1569L6.41652 23.6819L7.27992 20.2187C7.85472 20.3747 8.41272 20.5187 8.95872 20.6543L8.09832 24.1013L10.2049 24.6263L11.0767 21.1325C14.6689 21.8123 17.3701 21.5381 18.5071 18.2891C19.4233 15.6731 18.4615 14.1641 16.5715 13.1801C17.9479 12.8627 18.9847 11.9573 19.2613 10.0871ZM14.4482 16.8365C13.8509 19.2366 10.0942 18.2443 8.37525 17.7903L8.37506 17.7903C8.22048 17.7494 8.08239 17.713 7.96457 17.6837L9.12137 13.0463C9.2649 13.0821 9.44026 13.1215 9.63892 13.166L9.63893 13.166C11.4168 13.565 15.0602 14.3825 14.4482 16.8365ZM9.99611 11.014C11.4292 11.3964 14.5552 12.2307 15.0997 10.0493C15.6558 7.81808 12.6176 7.14549 11.1337 6.81701C10.9668 6.78006 10.8196 6.74747 10.6994 6.7175L9.65055 10.9235C9.74962 10.9482 9.86588 10.9792 9.99611 11.014Z" fill="white"/>
</svg>
