<svg width="18" height="30" viewBox="0 0 18 30" fill="none" xmlns="http://www.w3.org/2000/svg">
<path opacity="0.5" d="M9.0451 0.369141C9.0451 0.461448 9.0451 0.553756 9.0451 0.646064C9.0451 4.06145 9.0451 7.52299 9.0451 10.9384C9.0451 10.9845 9.0451 11.0768 9.0451 11.123C9.0451 11.1691 9.0001 11.2153 8.9551 11.2153C8.6401 11.3538 8.3701 11.4922 8.0551 11.6307C7.6501 11.8153 7.2001 11.9999 6.7951 12.2307C6.3001 12.4614 5.8051 12.6922 5.3101 12.923C4.9051 13.1076 4.5001 13.2922 4.0951 13.4768C3.6001 13.7076 3.1051 13.9384 2.6101 14.1691C2.2051 14.3538 1.8001 14.5384 1.3501 14.7691C1.0351 14.9076 0.675098 15.0922 0.360098 15.2307C0.315098 15.2307 0.315098 15.2768 0.270098 15.2307C0.270098 15.2307 0.270098 15.2307 0.225098 15.2307C0.360098 14.9999 0.495098 14.8153 0.630098 14.5845C1.3501 13.3384 2.1151 12.0922 2.8351 10.8461C3.6001 9.5076 4.4101 8.16914 5.1751 6.83068C5.8951 5.58453 6.6151 4.33837 7.3351 3.13837C7.8751 2.21529 8.4151 1.33837 8.9101 0.415294C9.0001 0.415294 9.0001 0.369141 9.0451 0.369141C9.0451 0.369141 9.0001 0.369141 9.0451 0.369141Z" fill="white"/>
<path opacity="0.5" d="M17.775 15.2305C17.1 15.692 16.38 16.1074 15.705 16.5228C13.5 17.8613 11.34 19.1536 9.135 20.492C9.09 20.492 9.09 20.5382 9.045 20.5382C9 20.5382 9 20.492 9 20.492C9 20.4459 9 20.3997 9 20.3536C9 17.3536 9 14.3536 9 11.3536C9 11.3074 9 11.2613 9 11.2151C9 11.1689 9.045 11.1689 9.09 11.1689C9.27 11.2613 9.45 11.3536 9.675 11.4459C10.215 11.7228 10.8 11.9536 11.34 12.2305C11.835 12.4613 12.285 12.692 12.78 12.8766C13.275 13.1074 13.725 13.3382 14.22 13.5689C14.625 13.7536 15.075 13.9382 15.48 14.1689C15.885 14.3536 16.335 14.5382 16.74 14.7689C17.055 14.9074 17.37 15.092 17.73 15.2305C17.73 15.1843 17.73 15.2305 17.775 15.2305Z" fill="white"/>
<path opacity="0.5" d="M9.04551 29.5844C9.00051 29.5844 9.04551 29.5844 9.04551 29.5844C9.00051 29.5844 9.00051 29.5844 8.95551 29.5382C8.05551 28.2459 7.20051 26.9998 6.30051 25.7075C5.40051 24.4151 4.50051 23.1228 3.60051 21.8305C2.74551 20.5844 1.84551 19.3382 0.990508 18.0459C0.765508 17.7228 0.540508 17.3998 0.315508 17.0767C0.315508 17.0305 0.270508 17.0305 0.270508 16.9844C0.315508 16.9844 0.315508 17.0305 0.360508 17.0305C1.57551 17.769 2.83551 18.5075 4.05051 19.2459C5.44551 20.1228 6.88551 20.9536 8.28051 21.8305C8.50551 21.969 8.77551 22.1075 9.00051 22.2459C9.04551 22.2459 9.04551 22.2921 9.04551 22.3382C9.04551 22.3844 9.04551 22.4305 9.04551 22.4767C9.04551 24.7844 9.04551 27.0459 9.04551 29.3536C9.04551 29.3998 9.04551 29.4921 9.04551 29.5844Z" fill="white"/>
<path d="M0.270508 15.2305C0.270508 15.2305 0.315508 15.2305 0.270508 15.2305C0.315508 15.2305 0.315508 15.2305 0.270508 15.2305C0.270508 15.2766 0.270508 15.2766 0.270508 15.2305Z" fill="#808080"/>
<path opacity="0.3" d="M0.314941 15.2769C0.314941 15.2307 0.314941 15.2307 0.314941 15.2769C0.764941 15.0461 1.21494 14.8615 1.66494 14.6307C2.24994 14.3538 2.83494 14.0769 3.41994 13.8C3.86994 13.5692 4.31994 13.3846 4.76994 13.1538C5.39994 12.8307 6.07494 12.5538 6.70494 12.2307C7.15494 12.0461 7.60494 11.8154 8.05494 11.6307C8.36994 11.4923 8.68494 11.3538 8.99994 11.1692C9.04494 11.1692 9.04494 11.123 9.08994 11.123C9.08994 11.123 9.08994 11.123 9.08994 11.1692C9.08994 11.2154 9.08994 11.2154 9.08994 11.2615C9.08994 14.3077 9.08994 17.3538 9.08994 20.4C9.08994 20.4461 9.08994 20.4923 9.08994 20.5384C9.04494 20.5846 9.04494 20.5384 8.99994 20.5384C8.86494 20.4461 8.72994 20.4 8.63994 20.3077C5.89494 18.6461 3.14994 16.9846 0.404941 15.323C0.359941 15.2769 0.314941 15.2769 0.314941 15.2769Z" fill="white"/>
<path opacity="0.3" d="M17.7304 16.9844C17.7304 17.0305 17.7304 17.0305 17.6854 17.0767C15.0754 20.8613 12.4654 24.5998 9.85541 28.3844C9.58541 28.7998 9.31541 29.169 9.04541 29.5844C9.04541 29.5844 9.04541 29.5844 9.04541 29.5382C9.04541 29.4921 9.04541 29.4921 9.04541 29.4459C9.04541 27.0921 9.04541 24.7382 9.04541 22.3844C9.04541 22.3382 9.04541 22.2921 9.04541 22.2459C9.63041 21.8767 10.2154 21.5075 10.8004 21.1844C13.0954 19.7998 15.3904 18.4151 17.6854 17.0305C17.6854 16.9844 17.7304 16.9844 17.7304 16.9844Z" fill="white"/>
<path opacity="0.3" d="M9.04541 11.1694C9.04541 11.1232 9.04541 11.0771 9.04541 11.0771C9.04541 7.56938 9.04541 4.01553 9.04541 0.507835C9.04541 0.461681 9.04541 0.415527 9.04541 0.415527C11.9254 5.30784 14.8054 10.2001 17.6854 15.0925C17.7304 15.1386 17.7754 15.1848 17.7754 15.2309C17.5954 15.1386 17.4154 15.0463 17.1904 14.954C16.9654 14.8617 16.7404 14.7232 16.5154 14.6309C16.3804 14.5848 16.2454 14.4925 16.0654 14.4463C15.8404 14.354 15.5704 14.2155 15.3454 14.1232C15.2104 14.0771 15.0754 13.9848 14.9404 13.9386C14.6254 13.8001 14.3104 13.6617 13.9954 13.5232C13.8154 13.4309 13.6804 13.3848 13.5004 13.2925C13.2754 13.2001 13.0504 13.0617 12.8254 12.9694C12.6904 12.9232 12.5554 12.8309 12.4204 12.7848C12.1054 12.6463 11.7904 12.5078 11.4754 12.3694C11.2954 12.2771 11.1604 12.2309 10.9804 12.1386C10.7554 12.0463 10.5304 11.9078 10.3054 11.8155C10.1704 11.7232 9.99041 11.6771 9.85541 11.5848C9.58541 11.4463 9.31541 11.3078 9.04541 11.1694Z" fill="white"/>
</svg>
