<svg width="16" height="21" viewBox="0 0 16 21" fill="none" xmlns="http://www.w3.org/2000/svg">
<path d="M7.91639 11.6215L6.23424 17.1252H15.2318C15.3033 17.1254 15.3738 17.1417 15.4378 17.1728C15.5017 17.2039 15.5573 17.2491 15.6002 17.3046C15.6431 17.3602 15.672 17.4246 15.6848 17.4929C15.6976 17.5611 15.6938 17.6313 15.6738 17.698L14.8914 20.3114C14.8541 20.4362 14.7759 20.5459 14.6686 20.6239C14.5614 20.7019 14.4309 20.744 14.2968 20.7438H0.554071L2.87778 13.1349L0.307617 13.8935L0.874852 12.1146L3.44893 11.356L6.7115 0.667161C6.74737 0.541906 6.82452 0.43147 6.93118 0.352709C7.03783 0.273949 7.16814 0.23119 7.30221 0.23096H10.7839C10.8553 0.230712 10.9258 0.246547 10.9899 0.277219C11.054 0.30789 11.1098 0.352561 11.153 0.407714C11.1963 0.462867 11.2257 0.526996 11.239 0.595054C11.2523 0.663112 11.2492 0.73324 11.2298 0.799917L8.49145 9.83876L11.0616 9.08015L10.51 10.8894L7.91639 11.6215Z" fill="white"/>
</svg>
