<svg width="21" height="23" viewBox="0 0 21 23" fill="none" xmlns="http://www.w3.org/2000/svg">
<path d="M18.1889 13.77C17.4023 13.3094 16.5164 13.1759 15.639 13.1448C14.9028 13.1187 13.8045 12.6403 13.8045 11.2821C13.8045 10.2702 14.6134 9.45581 15.6394 9.41947C16.5167 9.3884 17.4025 9.25472 18.1889 8.79425C20.1418 7.65075 21.0033 5.25027 20.232 3.10119C19.4607 0.952114 17.2793 -0.325123 15.0585 0.0720604C12.8378 0.469244 11.2188 2.42618 11.2188 4.71319C11.2188 5.62625 11.539 6.46649 11.9476 7.24579C12.2913 7.90124 12.4651 9.11777 11.2865 9.80783C10.4098 10.3212 9.31567 9.99613 8.76915 9.10907C8.30751 8.35983 7.75023 7.65782 6.97002 7.20089C5.01713 6.0574 2.53661 6.50098 1.08712 8.2529C-0.362372 10.0048 -0.362372 12.5593 1.08712 14.3113C2.53661 16.0632 5.01713 16.5068 6.97002 15.3633C7.75001 14.9065 8.30734 14.205 8.76869 13.4562C9.14753 12.8413 10.0937 12.0575 11.2865 12.7565C12.1619 13.2694 12.4325 14.3933 11.9472 15.319C11.5387 16.0982 11.2189 16.9382 11.2189 17.8511C11.2189 20.1381 12.8379 22.0949 15.0587 22.4921C17.2794 22.8892 19.4607 21.6119 20.2319 19.4629C21.0032 17.3139 20.1417 14.9135 18.1889 13.77Z" fill="white"/>
</svg>
