<svg width="27" height="22" viewBox="0 0 27 22" fill="none" xmlns="http://www.w3.org/2000/svg">
<path d="M22.257 3.07388L19.128 4.62465L4.17795 12.12C4.09103 11.7754 4.09103 11.3447 4.09103 11C4.09103 6.08927 8.08929 2.21235 12.9567 2.21235C14.4344 2.21235 15.9989 2.55696 17.3027 3.33235L19.0411 2.47081L19.3018 2.2985C14.5213 -1.23381 7.74162 -0.113809 4.26487 4.71081C2.96109 6.52004 2.17882 8.76004 2.17882 11C2.17882 11.2585 2.17882 11.517 2.17882 11.8616C2.26574 12.637 1.83114 13.4123 1.13579 13.757L0.179688 14.1877V16.4277L2.96109 15.0493L3.83027 14.6185L4.69946 14.1877L20.4318 6.26158L22.1701 5.40004L25.8207 3.59081V1.1785L22.257 3.07388ZM25.8207 5.6585L5.56865 15.8247L3.83027 16.6862L0.179688 18.5816V20.8216L3.83027 19.0123L6.95935 17.4616L21.9094 9.88004C21.9963 10.2247 21.9963 10.6554 21.9963 11C21.9963 15.9108 17.998 19.7877 13.1306 19.7877C11.566 19.7877 10.0884 19.357 8.78464 18.6677L8.69772 18.7539L6.78551 19.7016C11.653 23.2339 18.4326 22.1139 21.9963 17.2893C23.3001 15.48 24.0823 13.24 24.0823 11C24.0823 10.7416 24.0823 10.4831 24.0823 10.1385C23.9954 9.36311 24.43 8.58773 25.1254 8.24312L26.0815 7.81235V5.6585H25.8207Z" fill="white"/>
</svg>
